<svg xmlns="http://www.w3.org/2000/svg" xmlns:xlink="http://www.w3.org/1999/xlink" x="0" y="0" width="661.3333740234375" height="410.3333435058594" style="
        width:661.3333740234375px;
        height:410.3333435058594px;
        background: #FFF;
        fill: none;
">
        
        
        <svg xmlns="http://www.w3.org/2000/svg" class="role-diagram-draw-area"><g class="shapes-region" style="stroke: black; fill: none;"><g class="composite-shape"><path class="real" d=" M173.41,231 C173.41,143.41 244.41,72.41 332,72.41 C419.59,72.41 490.59,143.41 490.59,231 C490.59,318.59 419.59,389.59 332,389.59 C244.41,389.59 173.41,318.59 173.41,231 Z" style="stroke-width: 1px; stroke: rgb(0, 0, 0); fill: none; fill-opacity: 1;"/></g><g class="composite-shape"><path class="real" d=" M174.41,231.61 C174.41,213.94 245.41,199.61 333,199.61 C420.59,199.61 491.59,213.94 491.59,231.61 C491.59,249.29 420.59,263.61 333,263.61 C245.41,263.61 174.41,249.29 174.41,231.61 Z" style="stroke-width: 1px; stroke: rgb(0, 0, 0); fill: none; fill-opacity: 1;"/></g><g class="composite-shape"><defs><!-- react-text: 16247 --> <!-- /react-text --><radialGradient id="_pgffgiq4bhtc" gradientTransform="matrix(1.28, 0, 0, 1.28, -0.14, -0.14)" cx="0.43" cy="0.38" fx="0.43" fy="0.38"><!-- react-text: 16249 --> <!-- /react-text --><stop offset="0" style="stop-color: rgb(153, 218, 255); stop-opacity: 1;"/><stop offset="0.39" style="stop-color: rgb(126, 211, 33); stop-opacity: 1;"/><stop offset="0.71" style="stop-color: rgb(33, 170, 211); stop-opacity: 1;"/><stop offset="0.95" style="stop-color: rgb(126, 211, 33); stop-opacity: 1;"/></radialGradient></defs><path class="real" d=" M307,231 C307,217.19 318.19,206 332,206 C345.81,206 357,217.19 357,231 C357,244.81 345.81,256 332,256 C318.19,256 307,244.81 307,231 Z" style="stroke-width: 1px; stroke: rgb(0, 0, 0); fill: url(&quot;#_pgffgiq4bhtc&quot;); fill-opacity: 1;"/></g><g class="composite-shape"><path class="real" d=" M333.79,388.34 C333.79,388.34 333.79,388.34 333.79,388.34 C385.15,388.34 426.79,317.61 426.79,230.36 C426.79,143.11 385.15,72.38 333.79,72.38 C333.19,72.38 332.6,72.39 332,72.41 L333.79,230.36 Z" style="stroke-width: 1px; stroke: none; fill: none; fill-opacity: 1; stroke-dasharray: 1.125px, 3.35px;"/><path class="real" d=" M333.79,388.34 C333.79,388.34 333.79,388.34 333.79,388.34 C385.15,388.34 426.79,317.61 426.79,230.36 C426.79,143.11 385.15,72.38 333.79,72.38 C333.19,72.38 332.6,72.39 332,72.41" style="stroke-width: 1px; stroke: rgb(0, 0, 0); fill: none; fill-opacity: 1; stroke-dasharray: 1.125px, 3.35px;"/></g><g class="arrow-line"><path class="connection real" stroke-dasharray="" d="  M266,272.63 C303.83,278.45 346.36,277.69 389.04,273.99" style="stroke: rgb(208, 2, 27); stroke-opacity: 1; stroke-width: 2px; fill: none; fill-opacity: 1;"/><g stroke="none" fill="rgb(208,2,27)" fill-opacity="1" transform="matrix(-0.9959002018170435,0.09045876420099949,-0.09045876420099949,-0.9959002018170435,393,273.6333312988281)" style="stroke: none; fill: rgb(208, 2, 27); stroke-width: 2px;"><path d=" M12.23,-5.88 L0,0 L12.23,5.88 L8.12,0 Z"/></g></g><g class="arrow-line"><path class="connection real" stroke-dasharray="2.25 3.685" d="  M332,231 L197,313.63" style="stroke: rgb(0, 0, 0); stroke-width: 2px; fill: none; fill-opacity: 1;"/></g><g class="arrow-line"><path class="connection real" stroke-dasharray="6 6" d="  M332,231.9 L332,25.3" style="stroke: rgb(0, 0, 0); stroke-width: 1px; fill: none; fill-opacity: 1;"/><g stroke="none" fill="#000" transform="matrix(3.061616997868383e-16,1,-1,3.061616997868383e-16,332,22.300003051757812)" style="stroke: none; fill: rgb(0, 0, 0); stroke-width: 1px;"><path d=" M8.93,-4.29 L0,0 L8.93,4.29 Z"/></g></g><g class="composite-shape"><path class="real" d=" M307,231.9 C307,229.69 318.19,227.9 332,227.9 C345.81,227.9 357,229.69 357,231.9 C357,234.1 345.81,235.9 332,235.9 C318.19,235.9 307,234.1 307,231.9 Z" style="stroke-width: 1px; stroke: rgb(0, 0, 0); fill: none; fill-opacity: 1; stroke-dasharray: 1.125px, 3.35px;"/></g><g class="arrow-line"><path class="connection real" stroke-dasharray="" d="  M434.33,253.3 C438.19,211.81 436.47,181.48 421.96,151.56" style="stroke: rgb(208, 2, 27); stroke-opacity: 1; stroke-width: 2px; fill: none; fill-opacity: 1;"/><g stroke="none" fill="rgb(208,2,27)" fill-opacity="1" transform="matrix(0.4586495544843157,0.8886172326549484,-0.8886172326549484,0.4586495544843157,420.33331298828125,148.3000030517578)" style="stroke: none; fill: rgb(208, 2, 27); stroke-width: 2px;"><path d=" M13.4,-6.43 L0,0 L13.4,6.44 L8.9,0 Z"/></g></g><g class="arrow-line"><path class="connection real" stroke-dasharray="" d="  M434.33,197.3 L496.33,197.3" style="stroke: rgb(208, 2, 27); stroke-opacity: 1; stroke-width: 2px; fill: none; fill-opacity: 1;"/></g><g class="arrow-line"><path class="connection real" stroke-dasharray="" d="  M142.33,232.3 L163.34,231.42" style="stroke: rgb(0, 0, 0); stroke-width: 1px; fill: none; fill-opacity: 1;"/><g stroke="none" fill="#000" transform="matrix(-0.9991301235616503,0.04170127326211202,-0.04170127326211202,-0.9991301235616503,166.33331298828128,231.3000030517578)" style="stroke: none; fill: rgb(0, 0, 0); stroke-width: 1px;"><path d=" M10.72,-5.15 L0,0 L10.72,5.15 L7.12,0 Z"/></g></g><g/></g><g/><g/><g/></svg>
        <svg xmlns="http://www.w3.org/2000/svg" xmlns:xlink="http://www.w3.org/1999/xlink" width="660" height="409" style="width:660px;height:409px;font-family:Asana-Math, Asana;background:#FFF;"><g><g><g><text x="272.66668701171875" y="5.899993896484375" style="white-space:pre;stroke:none;fill:rgb(0,0,0);fill-opacity:1;font-size:13.2px;font-family:sans-serif, Arial, Helvetica;font-weight:400;font-style:normal;dominant-baseline:text-before-edge;text-decoration:rgb(0, 0, 0);">Northern Celestial Pole</text></g></g><g></g></g><g><g><g><g transform="matrix(1,0,0,1,269.66668701171875,295.2600030517578)"><path transform="matrix(0.014960000000000001,0,0,-0.014960000000000001,0,0)" d="M105 664L161 662C185 661 196 653 196 635C196 621 192 589 187 559L112 125C96 34 94 32 54 28L13 25L9 -3L51 -2C98 0 117 0 141 0L238 -3L264 -3L267 25L218 28C191 30 182 38 182 58C182 67 183 76 186 93L287 648C316 654 336 656 363 656C450 656 496 617 496 543C496 448 418 378 314 378L270 378L267 367C401 172 432 124 507 -3C507 -3 592 0 592 0C593 0 607 -1 626 -3L639 -3L639 24C599 29 588 37 559 79L375 354C430 364 459 376 495 402C553 444 584 499 584 560C584 646 520 693 409 691L108 691ZM700 388L707 368L739 389C776 412 779 414 786 414C796 414 804 404 804 391C804 384 800 361 796 347L730 107C722 76 717 49 717 30C717 6 728 -9 747 -9C773 -9 809 12 907 85L897 103L871 86C842 67 819 56 810 56C803 56 797 66 797 76C797 86 799 95 804 116L881 420C885 437 887 448 887 456C887 473 878 482 862 482C840 482 803 461 728 408ZM894 712C865 712 836 679 836 645C836 620 851 604 875 604C906 604 930 633 930 671C930 695 915 712 894 712ZM1218 482C1151 482 998 419 998 259C998 182 1043 136 1120 136C1128 136 1139 136 1150 137L1109 99C1093 84 1082 66 1082 52C1082 42 1089 31 1103 19C1034 -4 906 -48 906 -159C906 -230 976 -276 1085 -276C1214 -276 1327 -204 1327 -121C1327 -85 1306 -49 1263 -14L1203 35C1169 62 1156 81 1156 100C1156 114 1171 128 1183 146C1281 170 1352 253 1352 342C1352 357 1349 376 1348 380C1365 378 1373 378 1382 378C1399 378 1409 379 1432 382L1441 427L1438 433C1410 426 1390 424 1336 424C1336 425 1312 482 1218 482ZM1119 1L1196 -58C1242 -94 1261 -121 1261 -154C1261 -206 1192 -248 1109 -248C1027 -248 970 -206 970 -145C970 -43 1080 -11 1119 1ZM1193 448C1251 448 1280 412 1280 341C1280 238 1232 168 1162 168C1101 168 1069 209 1069 288C1069 383 1120 448 1193 448ZM1678 722L1666 733C1621 711 1580 697 1506 691L1502 670L1550 670C1568 670 1584 667 1584 647C1584 641 1584 632 1582 622L1540 388C1520 272 1478 80 1452 2L1459 -9L1528 7C1536 64 1550 164 1590 236C1635 317 1738 414 1780 414C1791 414 1802 407 1802 393C1802 375 1797 342 1787 303L1736 107C1730 85 1723 55 1723 31C1723 6 1733 -9 1754 -9C1786 -9 1854 41 1913 85L1903 103L1877 86C1854 71 1828 56 1816 56C1809 56 1803 65 1803 76C1803 88 1806 101 1810 116L1874 372C1880 398 1885 423 1885 447C1885 464 1879 482 1853 482C1818 482 1741 437 1673 374C1640 343 1614 308 1586 273L1582 275ZM2066 390L2010 107C2009 99 1997 61 1997 31C1997 6 2008 -9 2027 -9C2062 -9 2097 11 2175 74L2206 99L2196 117L2151 86C2122 66 2102 56 2091 56C2082 56 2077 64 2077 76C2077 102 2091 183 2120 328L2133 390L2240 390L2251 440C2213 436 2179 434 2141 434C2157 528 2168 577 2186 631L2175 646C2155 634 2128 622 2097 610L2072 440C2028 419 2002 408 1984 403L1982 390ZM2793 204L2764 77C2760 60 2758 42 2758 26C2758 4 2767 -9 2782 -9C2805 -9 2846 17 2928 85L2921 106C2897 86 2868 59 2846 59C2837 59 2831 68 2831 82C2831 87 2831 90 2832 93L2924 472L2914 481L2881 463C2840 478 2823 482 2796 482C2768 482 2748 477 2721 464C2659 433 2626 403 2601 354C2557 265 2526 145 2526 67C2526 23 2541 -11 2560 -11C2597 -11 2677 41 2793 204ZM2841 414C2819 305 2800 253 2766 201C2709 117 2648 59 2616 59C2604 59 2598 72 2598 99C2598 163 2626 280 2661 360C2685 415 2708 433 2756 433C2779 433 2797 429 2841 414ZM2996 148C2991 97 2985 62 2974 16C3012 -2 3046 -11 3081 -11C3130 -11 3176 7 3227 47C3278 87 3299 124 3299 174C3299 228 3267 257 3193 271L3150 279C3090 290 3071 307 3071 348C3071 401 3116 442 3173 442C3214 442 3252 424 3268 397L3268 342L3291 342C3295 377 3299 404 3310 455C3271 474 3243 482 3210 482C3158 482 3097 452 3049 404C3023 377 3012 352 3012 316C3012 260 3043 228 3109 215L3172 203C3216 195 3232 177 3232 138C3232 73 3186 29 3115 29C3080 29 3049 40 3021 64L3021 148ZM3695 330L3718 330C3726 395 3733 432 3742 458C3718 473 3683 482 3646 482C3601 483 3528 463 3471 400C3417 352 3378 241 3378 136C3378 40 3420 -11 3500 -11C3554 -11 3602 9 3657 54L3707 95L3699 115L3684 105C3612 57 3574 40 3539 40C3483 40 3454 80 3454 159C3454 267 3489 371 3538 409C3559 425 3583 433 3614 433C3659 433 3695 414 3695 390ZM4087 111L4063 94C4010 56 3962 36 3926 36C3879 36 3850 73 3850 133C3850 158 3853 185 3858 214C3875 218 3984 248 4009 259C4094 296 4133 342 4133 404C4133 451 4099 482 4049 482C3981 496 3871 423 3834 349C3804 299 3774 180 3774 113C3774 35 3818 -11 3890 -11C3947 -11 4003 17 4095 92ZM3872 274C3889 343 3909 386 3938 412C3956 428 3987 440 4011 440C4040 440 4059 420 4059 388C4059 344 4024 297 3972 272C3944 258 3908 247 3863 237ZM4171 388L4178 368L4210 389C4247 412 4250 414 4257 414C4268 414 4275 404 4275 389C4275 338 4234 145 4193 2L4200 -9C4225 -2 4248 4 4270 8C4289 134 4310 199 4356 268C4410 352 4485 414 4530 414C4541 414 4547 405 4547 390C4547 372 4544 351 4536 319L4484 107C4475 70 4471 47 4471 31C4471 6 4482 -9 4501 -9C4527 -9 4563 12 4661 85L4651 103L4625 86C4596 67 4574 56 4564 56C4557 56 4551 65 4551 76C4551 81 4552 92 4553 96L4619 372C4626 401 4630 429 4630 446C4630 469 4619 482 4599 482C4557 482 4488 444 4429 389C4391 354 4363 320 4311 247L4349 408C4353 426 4355 438 4355 449C4355 470 4347 482 4332 482C4311 482 4272 460 4199 408ZM4733 148C4728 97 4722 62 4711 16C4749 -2 4783 -11 4818 -11C4867 -11 4913 7 4964 47C5015 87 5036 124 5036 174C5036 228 5004 257 4930 271L4887 279C4827 290 4808 307 4808 348C4808 401 4853 442 4910 442C4951 442 4989 424 5005 397L5005 342L5028 342C5032 377 5036 404 5047 455C5008 474 4980 482 4947 482C4895 482 4834 452 4786 404C4760 377 4749 352 4749 316C4749 260 4780 228 4846 215L4909 203C4953 195 4969 177 4969 138C4969 73 4923 29 4852 29C4817 29 4786 40 4758 64L4758 148ZM5124 388L5131 368L5163 389C5200 412 5203 414 5210 414C5220 414 5228 404 5228 391C5228 384 5224 361 5220 347L5154 107C5146 76 5141 49 5141 30C5141 6 5152 -9 5171 -9C5197 -9 5233 12 5331 85L5321 103L5295 86C5266 67 5243 56 5234 56C5227 56 5221 66 5221 76C5221 86 5223 95 5228 116L5305 420C5309 437 5311 448 5311 456C5311 473 5302 482 5286 482C5264 482 5227 461 5152 408ZM5318 712C5289 712 5260 679 5260 645C5260 620 5275 604 5299 604C5330 604 5354 633 5354 671C5354 695 5339 712 5318 712ZM5384 152C5384 46 5429 -11 5512 -11C5567 -11 5627 15 5672 57C5734 116 5778 230 5778 331C5778 425 5728 482 5645 482C5541 482 5384 382 5384 152ZM5608 444C5669 444 5702 399 5702 315C5702 219 5671 113 5627 60C5609 39 5583 27 5552 27C5494 27 5460 72 5460 151C5460 264 5499 387 5548 427C5561 438 5584 444 5608 444ZM5834 388L5841 368L5873 389C5910 412 5913 414 5920 414C5931 414 5938 404 5938 389C5938 338 5897 145 5856 2L5863 -9C5888 -2 5911 4 5933 8C5952 134 5973 199 6019 268C6073 352 6148 414 6193 414C6204 414 6210 405 6210 390C6210 372 6207 351 6199 319L6147 107C6138 70 6134 47 6134 31C6134 6 6145 -9 6164 -9C6190 -9 6226 12 6324 85L6314 103L6288 86C6259 67 6237 56 6227 56C6220 56 6214 65 6214 76C6214 81 6215 92 6216 96L6282 372C6289 401 6293 429 6293 446C6293 469 6282 482 6262 482C6220 482 6151 444 6092 389C6054 354 6026 320 5974 247L6012 408C6016 426 6018 438 6018 449C6018 470 6010 482 5995 482C5974 482 5935 460 5862 408Z" stroke="rgb(0,0,0)" stroke-opacity="1" stroke-width="8" fill="rgb(0,0,0)" fill-opacity="1"></path></g></g><g><g transform="matrix(1,0,0,1,368.5999755859375,294.62667175292967)"><path transform="matrix(0.014960000000000001,0,0,-0.014960000000000001,0,0)" d="M146 266C146 526 243 632 301 700L282 726C225 675 60 542 60 266C60 159 85 58 133 -32C168 -99 200 -138 282 -215L301 -194C255 -137 146 -15 146 266Z" stroke="rgb(0,0,0)" stroke-opacity="1" stroke-width="8" fill="rgb(0,0,0)" fill-opacity="1"></path></g></g><g><g transform="matrix(1,0,0,1,373.58331298828125,295.2600030517578)"><path transform="matrix(0.014960000000000001,0,0,-0.014960000000000001,0,0)" d="M400 -16C446 -16 513 54 545 84L545 97L532 97C513 79 489 55 462 55C417 55 424 184 424 216C474 278 520 343 558 413C551 428 544 444 536 459L525 459C511 391 456 315 420 257C422 336 445 472 332 473C164 473 27 243 24 93C23 33 43 -16 111 -16C203 -16 297 64 357 131C357 96 348 -15 400 -16ZM284 437C371 437 358 224 357 164C314 113 233 28 162 28C109 28 98 70 99 115C100 202 175 437 284 437Z" stroke="rgb(0,0,0)" stroke-opacity="1" stroke-width="8" fill="rgb(0,0,0)" fill-opacity="1"></path></g></g><g><g transform="matrix(1,0,0,1,382.4666748046875,294.62667175292967)"><path transform="matrix(0.014960000000000001,0,0,-0.014960000000000001,0,0)" d="M51 726L32 700C87 636 187 526 187 266C187 -10 83 -131 32 -194L51 -215C104 -165 273 -23 273 265C273 542 108 675 51 726Z" stroke="rgb(0,0,0)" stroke-opacity="1" stroke-width="8" fill="rgb(0,0,0)" fill-opacity="1"></path></g></g></g></g><g><g><g><g transform="matrix(1,0,0,1,10.33331298828125,238.2500030517578)"><path transform="matrix(0.018699999999999998,0,0,-0.018699999999999998,0,0)" d="M45 284C45 90 152 -18 343 -18C439 -18 510 5 600 67C600 67 610 103 610 103C610 103 600 110 600 110C506 53 454 35 376 35C219 35 133 131 133 309C133 447 190 653 418 653C489 653 541 639 597 603L597 519L624 519C629 576 637 619 651 665C575 694 518 706 456 706C276 706 45 578 45 284ZM1015 111L991 94C938 56 890 36 854 36C807 36 778 73 778 133C778 158 781 185 786 214C803 218 912 248 937 259C1022 296 1061 342 1061 404C1061 451 1027 482 977 482C909 496 799 423 762 349C732 299 702 180 702 113C702 35 746 -11 818 -11C875 -11 931 17 1023 92ZM800 274C817 343 837 386 866 412C884 428 915 440 939 440C968 440 987 420 987 388C987 344 952 297 900 272C872 258 836 247 791 237ZM1326 722L1314 733C1262 707 1226 698 1154 691L1150 670L1198 670C1222 670 1232 663 1232 648C1232 645 1232 640 1229 622C1218 567 1145 182 1130 132C1117 82 1111 52 1111 31C1111 6 1122 -9 1141 -9C1167 -9 1203 12 1301 85L1291 103L1265 86C1236 67 1214 56 1204 56C1197 56 1191 66 1191 76C1191 82 1192 89 1195 104ZM1680 111L1656 94C1603 56 1555 36 1519 36C1472 36 1443 73 1443 133C1443 158 1446 185 1451 214C1468 218 1577 248 1602 259C1687 296 1726 342 1726 404C1726 451 1692 482 1642 482C1574 496 1464 423 1427 349C1397 299 1367 180 1367 113C1367 35 1411 -11 1483 -11C1540 -11 1596 17 1688 92ZM1465 274C1482 343 1502 386 1531 412C1549 428 1580 440 1604 440C1633 440 1652 420 1652 388C1652 344 1617 297 1565 272C1537 258 1501 247 1456 237ZM1771 148C1766 97 1760 62 1749 16C1787 -2 1821 -11 1856 -11C1905 -11 1951 7 2002 47C2053 87 2074 124 2074 174C2074 228 2042 257 1968 271L1925 279C1865 290 1846 307 1846 348C1846 401 1891 442 1948 442C1989 442 2027 424 2043 397L2043 342L2066 342C2070 377 2074 404 2085 455C2046 474 2018 482 1985 482C1933 482 1872 452 1824 404C1798 377 1787 352 1787 316C1787 260 1818 228 1884 215L1947 203C1991 195 2007 177 2007 138C2007 73 1961 29 1890 29C1855 29 1824 40 1796 64L1796 148ZM2253 390L2197 107C2196 99 2184 61 2184 31C2184 6 2195 -9 2214 -9C2249 -9 2284 11 2362 74L2393 99L2383 117L2338 86C2309 66 2289 56 2278 56C2269 56 2264 64 2264 76C2264 102 2278 183 2307 328L2320 390L2427 390L2438 440C2400 436 2366 434 2328 434C2344 528 2355 577 2373 631L2362 646C2342 634 2315 622 2284 610L2259 440C2215 419 2189 408 2171 403L2169 390ZM2494 388L2501 368L2533 389C2570 412 2573 414 2580 414C2590 414 2598 404 2598 391C2598 384 2594 361 2590 347L2524 107C2516 76 2511 49 2511 30C2511 6 2522 -9 2541 -9C2567 -9 2603 12 2701 85L2691 103L2665 86C2636 67 2613 56 2604 56C2597 56 2591 66 2591 76C2591 86 2593 95 2598 116L2675 420C2679 437 2681 448 2681 456C2681 473 2672 482 2656 482C2634 482 2597 461 2522 408ZM2688 712C2659 712 2630 679 2630 645C2630 620 2645 604 2669 604C2700 604 2724 633 2724 671C2724 695 2709 712 2688 712ZM3008 204L2979 77C2975 60 2973 42 2973 26C2973 4 2982 -9 2997 -9C3020 -9 3061 17 3143 85L3136 106C3112 86 3083 59 3061 59C3052 59 3046 68 3046 82C3046 87 3046 90 3047 93L3139 472L3129 481L3096 463C3055 478 3038 482 3011 482C2983 482 2963 477 2936 464C2874 433 2841 403 2816 354C2772 265 2741 145 2741 67C2741 23 2756 -11 2775 -11C2812 -11 2892 41 3008 204ZM3056 414C3034 305 3015 253 2981 201C2924 117 2863 59 2831 59C2819 59 2813 72 2813 99C2813 163 2841 280 2876 360C2900 415 2923 433 2971 433C2994 433 3012 429 3056 414ZM3431 722L3419 733C3367 707 3331 698 3259 691L3255 670L3303 670C3327 670 3337 663 3337 648C3337 645 3337 640 3334 622C3323 567 3250 182 3235 132C3222 82 3216 52 3216 31C3216 6 3227 -9 3246 -9C3272 -9 3308 12 3406 85L3396 103L3370 86C3341 67 3319 56 3309 56C3302 56 3296 66 3296 76C3296 82 3297 89 3300 104ZM4034 111L4010 94C3957 56 3909 36 3873 36C3826 36 3797 73 3797 133C3797 158 3800 185 3805 214C3822 218 3931 248 3956 259C4041 296 4080 342 4080 404C4080 451 4046 482 3996 482C3928 496 3818 423 3781 349C3751 299 3721 180 3721 113C3721 35 3765 -11 3837 -11C3894 -11 3950 17 4042 92ZM3819 274C3836 343 3856 386 3885 412C3903 428 3934 440 3958 440C3987 440 4006 420 4006 388C4006 344 3971 297 3919 272C3891 258 3855 247 3810 237ZM4479 458C4436 475 4407 482 4378 482C4303 482 4215 394 4197 374C4157 327 4118 181 4118 78C4118 19 4130 -11 4154 -11C4176 -11 4195 -3 4227 19C4274 51 4353 121 4402 209L4326 -205C4321 -229 4311 -249 4299 -262L4308 -276C4339 -268 4370 -262 4394 -259C4398 -205 4404 -150 4413 -100L4499 356C4510 417 4516 443 4526 474L4512 480ZM4212 59C4198 59 4190 80 4190 113C4190 209 4233 359 4275 409C4287 424 4316 433 4348 433C4376 433 4397 427 4445 406L4424 311C4395 174 4254 59 4212 59ZM5048 473L5041 482L4973 465L4963 414C4948 336 4923 268 4892 221C4833 130 4755 59 4715 59C4707 59 4702 68 4702 85C4702 99 4704 112 4709 137L4766 408C4769 424 4771 438 4771 451C4771 470 4762 482 4748 482C4728 482 4690 461 4616 408L4588 388L4595 368L4627 389C4655 407 4666 412 4675 412C4684 412 4692 403 4692 392C4692 388 4691 378 4690 374L4627 77C4625 68 4623 44 4623 30C4623 7 4638 -11 4658 -11C4721 -11 4842 101 4926 239L4889 97C4882 73 4878 46 4878 31C4878 6 4889 -9 4908 -9C4934 -9 4970 12 5068 85L5058 103L5032 86C5008 70 4982 59 4971 59C4963 59 4958 66 4958 76C4958 112 5033 416 5048 473ZM5382 204L5353 77C5349 60 5347 42 5347 26C5347 4 5356 -9 5371 -9C5394 -9 5435 17 5517 85L5510 106C5486 86 5457 59 5435 59C5426 59 5420 68 5420 82C5420 87 5420 90 5421 93L5513 472L5503 481L5470 463C5429 478 5412 482 5385 482C5357 482 5337 477 5310 464C5248 433 5215 403 5190 354C5146 265 5115 145 5115 67C5115 23 5130 -11 5149 -11C5186 -11 5266 41 5382 204ZM5430 414C5408 305 5389 253 5355 201C5298 117 5237 59 5205 59C5193 59 5187 72 5187 99C5187 163 5215 280 5250 360C5274 415 5297 433 5345 433C5368 433 5386 429 5430 414ZM5679 390L5623 107C5622 99 5610 61 5610 31C5610 6 5621 -9 5640 -9C5675 -9 5710 11 5788 74L5819 99L5809 117L5764 86C5735 66 5715 56 5704 56C5695 56 5690 64 5690 76C5690 102 5704 183 5733 328L5746 390L5853 390L5864 440C5826 436 5792 434 5754 434C5770 528 5781 577 5799 631L5788 646C5768 634 5741 622 5710 610L5685 440C5641 419 5615 408 5597 403L5595 390ZM5903 152C5903 46 5948 -11 6031 -11C6086 -11 6146 15 6191 57C6253 116 6297 230 6297 331C6297 425 6247 482 6164 482C6060 482 5903 382 5903 152ZM6127 444C6188 444 6221 399 6221 315C6221 219 6190 113 6146 60C6128 39 6102 27 6071 27C6013 27 5979 72 5979 151C5979 264 6018 387 6067 427C6080 438 6103 444 6127 444ZM6697 365C6700 403 6705 435 6713 476C6702 481 6698 482 6693 482C6662 482 6631 458 6595 407C6556 351 6517 291 6501 256L6533 408C6537 425 6539 438 6539 450C6539 470 6531 482 6516 482C6495 482 6457 461 6383 408L6355 388L6362 368L6394 389C6422 407 6433 412 6442 412C6452 412 6459 403 6459 390C6459 332 6416 126 6376 -2L6386 -9C6401 -4 6417 -1 6440 4L6453 6L6479 126C6497 209 6520 262 6564 319C6598 363 6625 384 6647 384C6662 384 6672 379 6683 365Z" stroke="rgb(0,0,0)" stroke-opacity="1" stroke-width="8" fill="rgb(0,0,0)" fill-opacity="1"></path></g></g></g><g></g></g><g transform="matrix(0.8484178428994292,-0.5293270858834633,0.5293270858834633,0.8484178428994292,-116.58483403042032,161.884072664399)"><g><g><text x="189.45001220703125" y="277.50001525878906" style="white-space:pre;stroke:none;fill:rgb(0,0,0);fill-opacity:1;font-size:11.55px;font-family:sans-serif, Arial, Helvetica;font-weight:400;font-style:normal;dominant-baseline:text-before-edge;text-decoration:rgb(0, 0, 0);">Vernal Equinox</text></g></g></g><g><g><g><g transform="matrix(1,0,0,1,502.66668701171875,206.2500030517578)"><path transform="matrix(0.018699999999999998,0,0,-0.018699999999999998,0,0)" d="M316 -3C388 -3 437 8 489 34C645 114 741 265 741 431C741 529 711 599 650 642C604 675 519 693 424 692L220 689L210 689C201 689 198 689 97 692L94 664L147 662C171 661 182 653 182 635C182 621 178 589 173 559L86 55C81 31 56 29 33 23L28 -3L121 0L176 0C211 0 282 -3 316 -3ZM384 655C566 655 649 579 649 415C649 225 549 41 329 41C285 41 236 46 168 56C168 68 169 75 172 93L268 650C291 650 349 655 384 655ZM1105 111L1081 94C1028 56 980 36 944 36C897 36 868 73 868 133C868 158 871 185 876 214C893 218 1002 248 1027 259C1112 296 1151 342 1151 404C1151 451 1117 482 1067 482C999 496 889 423 852 349C822 299 792 180 792 113C792 35 836 -11 908 -11C965 -11 1021 17 1113 92ZM890 274C907 343 927 386 956 412C974 428 1005 440 1029 440C1058 440 1077 420 1077 388C1077 344 1042 297 990 272C962 258 926 247 881 237ZM1507 330L1530 330C1538 395 1545 432 1554 458C1530 473 1495 482 1458 482C1413 483 1340 463 1283 400C1229 352 1190 241 1190 136C1190 40 1232 -11 1312 -11C1366 -11 1414 9 1469 54L1519 95L1511 115L1496 105C1424 57 1386 40 1351 40C1295 40 1266 80 1266 159C1266 267 1301 371 1350 409C1371 425 1395 433 1426 433C1471 433 1507 414 1507 390ZM1822 722L1810 733C1758 707 1722 698 1650 691L1646 670L1694 670C1718 670 1728 663 1728 648C1728 645 1728 640 1725 622C1714 567 1641 182 1626 132C1613 82 1607 52 1607 31C1607 6 1618 -9 1637 -9C1663 -9 1699 12 1797 85L1787 103L1761 86C1732 67 1710 56 1700 56C1693 56 1687 66 1687 76C1687 82 1688 89 1691 104ZM1882 388L1889 368L1921 389C1958 412 1961 414 1968 414C1978 414 1986 404 1986 391C1986 384 1982 361 1978 347L1912 107C1904 76 1899 49 1899 30C1899 6 1910 -9 1929 -9C1955 -9 1991 12 2089 85L2079 103L2053 86C2024 67 2001 56 1992 56C1985 56 1979 66 1979 76C1979 86 1981 95 1986 116L2063 420C2067 437 2069 448 2069 456C2069 473 2060 482 2044 482C2022 482 1985 461 1910 408ZM2076 712C2047 712 2018 679 2018 645C2018 620 2033 604 2057 604C2088 604 2112 633 2112 671C2112 695 2097 712 2076 712ZM2149 388L2156 368L2188 389C2225 412 2228 414 2235 414C2246 414 2253 404 2253 389C2253 338 2212 145 2171 2L2178 -9C2203 -2 2226 4 2248 8C2267 134 2288 199 2334 268C2388 352 2463 414 2508 414C2519 414 2525 405 2525 390C2525 372 2522 351 2514 319L2462 107C2453 70 2449 47 2449 31C2449 6 2460 -9 2479 -9C2505 -9 2541 12 2639 85L2629 103L2603 86C2574 67 2552 56 2542 56C2535 56 2529 65 2529 76C2529 81 2530 92 2531 96L2597 372C2604 401 2608 429 2608 446C2608 469 2597 482 2577 482C2535 482 2466 444 2407 389C2369 354 2341 320 2289 247L2327 408C2331 426 2333 438 2333 449C2333 470 2325 482 2310 482C2289 482 2250 460 2177 408ZM2951 204L2922 77C2918 60 2916 42 2916 26C2916 4 2925 -9 2940 -9C2963 -9 3004 17 3086 85L3079 106C3055 86 3026 59 3004 59C2995 59 2989 68 2989 82C2989 87 2989 90 2990 93L3082 472L3072 481L3039 463C2998 478 2981 482 2954 482C2926 482 2906 477 2879 464C2817 433 2784 403 2759 354C2715 265 2684 145 2684 67C2684 23 2699 -11 2718 -11C2755 -11 2835 41 2951 204ZM2999 414C2977 305 2958 253 2924 201C2867 117 2806 59 2774 59C2762 59 2756 72 2756 99C2756 163 2784 280 2819 360C2843 415 2866 433 2914 433C2937 433 2955 429 2999 414ZM3248 390L3192 107C3191 99 3179 61 3179 31C3179 6 3190 -9 3209 -9C3244 -9 3279 11 3357 74L3388 99L3378 117L3333 86C3304 66 3284 56 3273 56C3264 56 3259 64 3259 76C3259 102 3273 183 3302 328L3315 390L3422 390L3433 440C3395 436 3361 434 3323 434C3339 528 3350 577 3368 631L3357 646C3337 634 3310 622 3279 610L3254 440C3210 419 3184 408 3166 403L3164 390ZM3489 388L3496 368L3528 389C3565 412 3568 414 3575 414C3585 414 3593 404 3593 391C3593 384 3589 361 3585 347L3519 107C3511 76 3506 49 3506 30C3506 6 3517 -9 3536 -9C3562 -9 3598 12 3696 85L3686 103L3660 86C3631 67 3608 56 3599 56C3592 56 3586 66 3586 76C3586 86 3588 95 3593 116L3670 420C3674 437 3676 448 3676 456C3676 473 3667 482 3651 482C3629 482 3592 461 3517 408ZM3683 712C3654 712 3625 679 3625 645C3625 620 3640 604 3664 604C3695 604 3719 633 3719 671C3719 695 3704 712 3683 712ZM3749 152C3749 46 3794 -11 3877 -11C3932 -11 3992 15 4037 57C4099 116 4143 230 4143 331C4143 425 4093 482 4010 482C3906 482 3749 382 3749 152ZM3973 444C4034 444 4067 399 4067 315C4067 219 4036 113 3992 60C3974 39 3948 27 3917 27C3859 27 3825 72 3825 151C3825 264 3864 387 3913 427C3926 438 3949 444 3973 444ZM4199 388L4206 368L4238 389C4275 412 4278 414 4285 414C4296 414 4303 404 4303 389C4303 338 4262 145 4221 2L4228 -9C4253 -2 4276 4 4298 8C4317 134 4338 199 4384 268C4438 352 4513 414 4558 414C4569 414 4575 405 4575 390C4575 372 4572 351 4564 319L4512 107C4503 70 4499 47 4499 31C4499 6 4510 -9 4529 -9C4555 -9 4591 12 4689 85L4679 103L4653 86C4624 67 4602 56 4592 56C4585 56 4579 65 4579 76C4579 81 4580 92 4581 96L4647 372C4654 401 4658 429 4658 446C4658 469 4647 482 4627 482C4585 482 4516 444 4457 389C4419 354 4391 320 4339 247L4377 408C4381 426 4383 438 4383 449C4383 470 4375 482 4360 482C4339 482 4300 460 4227 408Z" stroke="rgb(0,0,0)" stroke-opacity="1" stroke-width="8" fill="rgb(0,0,0)" fill-opacity="1"></path></g></g><g><g transform="matrix(1,0,0,1,594.5999755859375,205.36667175292968)"><path transform="matrix(0.018699999999999998,0,0,-0.018699999999999998,0,0)" d="M146 266C146 526 243 632 301 700L282 726C225 675 60 542 60 266C60 159 85 58 133 -32C168 -99 200 -138 282 -215L301 -194C255 -137 146 -15 146 266Z" stroke="rgb(0,0,0)" stroke-opacity="1" stroke-width="8" fill="rgb(0,0,0)" fill-opacity="1"></path></g></g><g><g transform="matrix(1,0,0,1,600.8333129882812,206.2500030517578)"><path transform="matrix(0.018699999999999998,0,0,-0.018699999999999998,0,0)" d="M183 -16C340 -16 453 139 455 287C458 470 216 507 227 622C234 698 356 689 413 655L423 655C420 667 417 681 411 694C316 715 167 698 156 597C149 540 224 493 266 464L266 458C123 426 31 304 29 160C27 53 70 -16 183 -16ZM209 12C125 12 105 99 106 167C108 295 153 411 287 448C349 399 381 350 380 269C378 174 327 12 209 12Z" stroke="rgb(0,0,0)" stroke-opacity="1" stroke-width="8" fill="rgb(0,0,0)" fill-opacity="1"></path></g></g><g><g transform="matrix(1,0,0,1,610.13330078125,205.36667175292968)"><path transform="matrix(0.018699999999999998,0,0,-0.018699999999999998,0,0)" d="M51 726L32 700C87 636 187 526 187 266C187 -10 83 -131 32 -194L51 -215C104 -165 273 -23 273 265C273 542 108 675 51 726Z" stroke="rgb(0,0,0)" stroke-opacity="1" stroke-width="8" fill="rgb(0,0,0)" fill-opacity="1"></path></g></g></g></g></svg>
</svg>
