<svg xmlns="http://www.w3.org/2000/svg" xmlns:xlink="http://www.w3.org/1999/xlink" x="0" y="0" width="701.3333129882812" height="301.33331298828125" style="
        width:701.3333129882812px;
        height:301.33331298828125px;
        background: #FFF;
        fill: none;
">
        
        
        <svg xmlns="http://www.w3.org/2000/svg" class="role-diagram-draw-area" style="overflow: visible;"><g class="shapes-region" style="stroke: black; fill: none;"><g class="composite-shape"><path class="real" d=" M260,184.38 C260,134.52 300.42,94.1 350.28,94.1 C400.15,94.1 440.57,134.52 440.57,184.38 C440.57,234.25 400.15,274.67 350.28,274.67 C300.42,274.67 260,234.25 260,184.38 Z" style="stroke-width: 2px; stroke: rgb(0, 0, 0); fill: none; fill-opacity: 1;"/></g><g class="arrow-line"><path class="connection real" stroke-dasharray="" d="  M217.67,184.38 L473.67,184.38" style="stroke: rgb(0, 0, 0); stroke-width: 1px; fill: none; fill-opacity: 1;"/></g><g class="arrow-line"><path class="connection real" stroke-dasharray="" d="  M350.28,54.1 L350.28,293.1" style="stroke: rgb(0, 0, 0); stroke-width: 1px; fill: none; fill-opacity: 1;"/></g><g class="arrow-line"><path class="connection real" stroke-dasharray="" d="  M214.44,83.29 L350.28,184.38" style="stroke: rgb(0, 0, 0); stroke-width: 1px; fill: none; fill-opacity: 1;"/></g><g class="composite-shape"><path class="real" d=" M332.63,184.73 C332.61,183.2 332.92,181.61 333.58,180.06 C334.43,178.07 335.75,176.45 337.32,175.31 L341.86,183.61 Z" style="stroke-width: 2px; stroke: none; stroke-opacity: 1; fill: none; fill-opacity: 1;"/><path class="real" d=" M332.63,184.73 C332.61,183.2 332.92,181.61 333.58,180.06 C334.43,178.07 335.75,176.45 337.32,175.31" style="stroke-width: 2px; stroke: rgb(223, 4, 4); stroke-opacity: 1; fill: none; fill-opacity: 1;"/></g><g class="arrow-line"><path class="connection real" stroke-dasharray="7.5 6" d="  M192.44,241.96 L333.78,53.96" style="stroke: rgb(161, 161, 161); stroke-opacity: 1; stroke-width: 2px; fill: none; fill-opacity: 1;"/></g><g class="composite-shape"><path class="real" d=" M271.52,124.94 L277.32,117.7 L284.56,123.5 L278.77,130.74 Z" style="stroke-width: 1px; stroke: rgb(0, 0, 0); fill: none; fill-opacity: 1;"/></g><g class="arrow-line"><path class="connection real" stroke-dasharray="1.125 3.35" d="  M277.54,11.08 L277.54,117.7" style="stroke: rgb(0, 0, 0); stroke-width: 1px; fill: none; fill-opacity: 1;"/></g><g class="composite-shape"><path class="real" d=" M350.35,69.92 C346.36,70.23 342.24,69.75 338.21,68.36 C334.47,67.07 331.15,65.11 328.33,62.66 L348,40 Z" style="stroke-width: 2px; stroke: none; stroke-opacity: 1; fill: none; fill-opacity: 1;"/><path class="real" d=" M350.35,69.92 C346.36,70.23 342.24,69.75 338.21,68.36 C334.47,67.07 331.15,65.11 328.33,62.66" style="stroke-width: 2px; stroke: rgb(208, 2, 27); stroke-opacity: 1; fill: none; fill-opacity: 1;"/></g><g class="composite-shape"><path class="real" d=" M277.95,99.9 C280.36,99.68 282.76,99.97 285.04,100.81 C288.63,102.14 291.52,104.68 293.6,108.04 L274.65,128.95 Z" style="stroke-width: 2px; stroke: none; stroke-opacity: 1; fill: none; fill-opacity: 1;"/><path class="real" d=" M277.95,99.9 C280.36,99.68 282.76,99.97 285.04,100.81 C288.63,102.14 291.52,104.68 293.6,108.04" style="stroke-width: 2px; stroke: rgb(208, 2, 27); stroke-opacity: 1; fill: none; fill-opacity: 1;"/></g><g class="composite-shape"><path class="real" d=" M272.32,125.27 C266.36,129.43 278.59,127.19 272.32,123.42 C271.38,122.85 268.88,125.66 269.94,125.8 C271.49,126.02 273.76,125.35 274.22,123.68 C275.27,119.84 265.7,123.26 269.47,126.07 C270.58,126.9 271.84,124.65 273.03,123.95" style="stroke-width: 2px; stroke: rgb(0, 0, 0); stroke-opacity: 1; stroke-linejoin: round; stroke-linecap: round;"/></g><g class="composite-shape"><path class="real" d=" M270.96,125.88 C272.78,126.79 275.03,127.47 276.07,129.21" style="stroke-width: 2px; stroke: rgb(0, 0, 0); stroke-opacity: 1; stroke-linejoin: round; stroke-linecap: round;"/></g><g class="composite-shape"><path class="real" d=" M273.63,127.66 C274.44,129.14 275.26,130.62 276.07,132.1" style="stroke-width: 2px; stroke: rgb(0, 0, 0); stroke-opacity: 1; stroke-linejoin: round; stroke-linecap: round;"/></g><g class="composite-shape"><path class="real" d=" M274.52,128.1 C275.78,128.8 277.28,131.74 278.07,130.55" style="stroke-width: 2px; stroke: rgb(0, 0, 0); stroke-opacity: 1; stroke-linejoin: round; stroke-linecap: round;"/></g><g class="arrow-line"><path class="connection real" stroke-dasharray="" d="  M168.88,132.33 C208.08,102.93 224.35,158.98 262.63,132.99" style="stroke: rgb(0, 0, 0); stroke-width: 1px; fill: none; fill-opacity: 1;"/><g stroke="none" transform="matrix(-0.7999989281485084,0.6000014291326627,-0.6000014291326627,-0.7999989281485084,265,131.29998779296875)" style="stroke: none; stroke-width: 1px; fill: rgb(0, 0, 0);" fill="#000"><path d=" M8.93,-4.29 L0,0 L8.93,4.29 Z"/></g></g><g/></g><g/><g/><g/></svg>
        <svg xmlns="http://www.w3.org/2000/svg" xmlns:xlink="http://www.w3.org/1999/xlink" width="700" height="300" style="width:700px;height:300px;font-family:Asana-Math, Asana;background:#FFF;"><g><g><g><text x="479.6666259765625" y="173.8833465576172" style="white-space:pre;stroke:none;fill:rgb(0,0,0);fill-opacity:1;font-size:16.5px;font-family:sans-serif, Arial, Helvetica;font-weight:400;font-style:normal;dominant-baseline:text-before-edge;text-decoration:rgb(0, 0, 0);">Celestial Equator</text></g></g></g><g><g><g><g transform="matrix(1,0,0,1,308.6666259765625,178.26333435058592)"><path transform="matrix(0.016829999999999998,0,0,-0.016829999999999998,0,0)" d="M400 -16C446 -16 513 54 545 84L545 97L532 97C513 79 489 55 462 55C417 55 424 184 424 216C474 278 520 343 558 413C551 428 544 444 536 459L525 459C511 391 456 315 420 257C422 336 445 472 332 473C164 473 27 243 24 93C23 33 43 -16 111 -16C203 -16 297 64 357 131C357 96 348 -15 400 -16ZM284 437C371 437 358 224 357 164C314 113 233 28 162 28C109 28 98 70 99 115C100 202 175 437 284 437Z" stroke="rgb(0,0,0)" stroke-opacity="1" stroke-width="8" fill="rgb(0,0,0)" fill-opacity="1"></path></g></g></g></g><g><g><g><g transform="matrix(1,0,0,1,305.33331298828125,145.93999084472657)"><path transform="matrix(0.01309,0,0,-0.01309,0,0)" d="M96 -20C207 16 255 39 309 85C406 168 457 283 457 417C457 586 376 689 244 689C116 689 20 589 20 455C20 340 95 256 199 256C233 256 272 267 290 282L360 340C352 172 243 49 62 5L62 -3ZM240 656C285 656 318 637 340 597C358 565 370 516 370 471C370 379 317 317 240 317C160 317 106 388 106 492C106 593 158 656 240 656ZM762 689C607 689 528 566 528 324C528 207 549 106 584 57C619 8 675 -20 737 -20C888 -20 964 110 964 366C964 585 899 689 762 689ZM744 654C841 654 880 556 880 316C880 103 842 15 750 15C653 15 612 116 612 360C612 571 649 654 744 654Z" stroke="rgb(0,0,0)" stroke-opacity="1" stroke-width="8" fill="rgb(0,0,0)" fill-opacity="1"></path></g></g><g><g transform="matrix(1,0,0,1,324.316650390625,145.93999084472657)"><path transform="matrix(0.01309,0,0,-0.01309,0,0)" d="M555 243L555 299L51 299L51 243Z" stroke="rgb(0,0,0)" stroke-opacity="1" stroke-width="8" fill="rgb(0,0,0)" fill-opacity="1"></path></g></g><g><g transform="matrix(1,0,0,1,331.2833251953125,145.93999084472657)"><path transform="matrix(0.01309,0,0,-0.01309,0,0)" d="M649 -16C695 -16 762 54 794 84L794 97L781 97C762 79 738 55 711 55C666 55 673 184 673 216C723 278 769 343 807 413C800 428 793 444 785 459L774 459C760 391 705 315 669 257C671 336 694 472 581 473C413 473 276 243 273 93C272 33 292 -16 360 -16C452 -16 546 64 606 131C606 96 597 -15 649 -16ZM533 437C620 437 607 224 606 164C563 113 482 28 411 28C358 28 347 70 348 115C349 202 424 437 533 437Z" stroke="rgb(0,0,0)" stroke-opacity="1" stroke-width="8" fill="rgb(0,0,0)" fill-opacity="1"></path></g></g></g></g><g><g><g><text x="335.11663818359375" y="34.21665954589844" style="white-space:pre;stroke:none;fill:rgb(0,0,0);fill-opacity:1;font-size:16.5px;font-family:sans-serif, Arial, Helvetica;font-weight:700;font-style:normal;dominant-baseline:text-before-edge;text-decoration:rgb(0, 0, 0);">NCP</text></g></g></g><g><g><g><text x="166.45001220703125" y="64.54998779296875" style="white-space:pre;stroke:none;fill:rgb(0,0,0);fill-opacity:1;font-size:16.5px;font-family:sans-serif, Arial, Helvetica;font-weight:400;font-style:italic;dominant-baseline:text-before-edge;text-decoration:rgb(0, 0, 0);">zenith</text></g></g></g><g><g><g><text x="153.11663818359375" y="242.5499725341797" style="white-space:pre;stroke:none;fill:rgb(0,0,0);fill-opacity:1;font-size:13.2px;font-family:sans-serif, Arial, Helvetica;font-weight:400;font-style:italic;dominant-baseline:text-before-edge;text-decoration:rgb(0, 0, 0);">horizontal plane</text></g></g></g><g><g><g><text x="261.6666259765625" y="14.883331298828125" style="white-space:pre;stroke:none;fill:rgb(0,0,0);fill-opacity:1;font-size:8.25px;font-family:sans-serif, Arial, Helvetica;font-weight:400;font-style:italic;dominant-baseline:text-before-edge;text-decoration:rgb(0, 0, 0);">to Polaris</text></g></g></g><g><g><g><g transform="matrix(1,0,0,1,332.26666259765625,79.38998779296875)"><path transform="matrix(0.01309,0,0,-0.01309,0,0)" d="M400 -16C446 -16 513 54 545 84L545 97L532 97C513 79 489 55 462 55C417 55 424 184 424 216C474 278 520 343 558 413C551 428 544 444 536 459L525 459C511 391 456 315 420 257C422 336 445 472 332 473C164 473 27 243 24 93C23 33 43 -16 111 -16C203 -16 297 64 357 131C357 96 348 -15 400 -16ZM284 437C371 437 358 224 357 164C314 113 233 28 162 28C109 28 98 70 99 115C100 202 175 437 284 437Z" stroke="rgb(0,0,0)" stroke-opacity="1" stroke-width="8" fill="rgb(0,0,0)" fill-opacity="1"></path></g></g></g></g><g><g><g><g transform="matrix(1,0,0,1,284.6666259765625,100.85666259765625)"><path transform="matrix(0.01309,0,0,-0.01309,0,0)" d="M237 -16C473 -16 572 316 576 504C578 618 546 702 419 702C159 702 72 412 69 199C67 80 101 -16 237 -16ZM401 676C536 676 506 491 485 381L169 381C194 485 272 676 401 676ZM253 13C102 13 147 261 163 349L479 349C454 237 396 13 253 13Z" stroke="rgb(0,0,0)" stroke-opacity="1" stroke-width="8" fill="rgb(0,0,0)" fill-opacity="1"></path></g></g></g></g><g><g><g><text x="111.33331298828125" y="126.88334655761719" style="white-space:pre;stroke:none;fill:rgb(0,0,0);fill-opacity:1;font-size:16.5px;font-family:sans-serif, Arial, Helvetica;font-weight:400;font-style:normal;dominant-baseline:text-before-edge;text-decoration:rgb(0, 0, 0);">Observer</text></g></g><g></g></g></svg>
</svg>
