<svg xmlns="http://www.w3.org/2000/svg" xmlns:xlink="http://www.w3.org/1999/xlink" x="0" y="0" width="701.3333129882812" height="311.33331298828125" style="
        width:701.3333129882812px;
        height:311.33331298828125px;
        background: #FFF;
        fill: none;
">
        
        
        <svg xmlns="http://www.w3.org/2000/svg" class="role-diagram-draw-area" style="overflow: visible;"><g class="shapes-region" style="stroke: black; fill: none;"><g class="grouped-shape"><g class="composite-shape" data-amt="diagram/shapes/plot" transform="matrix(1,0,0,1,5,-9)"><g><g><g class="test-xgi"><line x1="75.91192578124998" y1="0" x2="75.91192578124998" y2="270" fill="none" stroke="#c3c3c3" stroke-width="0.5"/><line x1="185.41252539062498" y1="0" x2="185.41252539062498" y2="270" fill="none" stroke="#c3c3c3" stroke-width="0.5"/><line x1="294.913125" y1="0" x2="294.913125" y2="270" fill="none" stroke="#c3c3c3" stroke-width="0.5"/><line x1="404.413724609375" y1="0" x2="404.413724609375" y2="270" fill="none" stroke="#c3c3c3" stroke-width="0.5"/><line x1="513.9143242187499" y1="0" x2="513.9143242187499" y2="270" fill="none" stroke="#c3c3c3" stroke-width="0.5"/></g><g class="test-ygi"><line x1="0" y1="242.22312695312496" x2="620" y2="242.22312695312496" fill="none" stroke="#c3c3c3" stroke-width="0.5"/><line x1="0" y1="132.72252734374996" x2="620" y2="132.72252734374996" fill="none" stroke="#c3c3c3" stroke-width="0.5"/><line x1="0" y1="23.221927734374958" x2="620" y2="23.221927734374958" fill="none" stroke="#c3c3c3" stroke-width="0.5"/></g></g><g><g class="test-xti" style="font-family: Asana-Math, Asana;"><line x1="0" y1="242.22312695312496" x2="616" y2="242.22312695312496" fill="none" stroke="rgb(50,50,50)" stroke-opacity="1" stroke-width="1"/><line x1="75.91192578124998" y1="238.22312695312496" x2="75.91192578124998" y2="246.22312695312496" fill="none" stroke="rgb(50,50,50)" stroke-opacity="1" stroke-width="1"/><line x1="185.41252539062498" y1="238.22312695312496" x2="185.41252539062498" y2="246.22312695312496" fill="none" stroke="rgb(50,50,50)" stroke-opacity="1" stroke-width="1"/><line x1="404.413724609375" y1="238.22312695312496" x2="404.413724609375" y2="246.22312695312496" fill="none" stroke="rgb(50,50,50)" stroke-opacity="1" stroke-width="1"/><line x1="513.9143242187499" y1="238.22312695312496" x2="513.9143242187499" y2="246.22312695312496" fill="none" stroke="rgb(50,50,50)" stroke-opacity="1" stroke-width="1"/><path d="M611,238.62312695312497 L619,242.22312695312496 L611,245.82312695312496 Z" stroke="none" stroke-width="1" fill="rgb(50,50,50)" fill-opacity="1"/></g><g class="test-yti" style="font-family: Asana-Math, Asana;"><line x1="294.913125" y1="4" x2="294.913125" y2="270" fill="none" stroke="rgb(50,50,50)" stroke-opacity="1" stroke-width="1"/><line x1="290.913125" y1="132.72252734374996" x2="298.913125" y2="132.72252734374996" fill="none" stroke="rgb(50,50,50)" stroke-opacity="1" stroke-width="1"/><line x1="290.913125" y1="23.221927734374958" x2="298.913125" y2="23.221927734374958" fill="none" stroke="rgb(50,50,50)" stroke-opacity="1" stroke-width="1"/><path d="M291.31312499999996,9 L294.913125,1 L298.513125,9 Z" stroke="none" stroke-width="1" fill="rgb(50,50,50)" fill-opacity="1"/></g><g class="test-plot-expression"><defs><clipPath id="cpke1tcjdm3dg-full-view"><rect x="1" y="1" width="618" height="268"/></clipPath></defs><g clip-path="url(#cpke1tcjdm3dg-full-view)"><path d=" M0.00,240.29 L2.07,240.26 L4.13,240.24 L6.20,240.21 L8.27,240.18 L10.33,240.15 L12.40,240.12 L14.47,240.09 L16.53,240.05 L18.60,240.02 L19.97,240.00 L20.67,239.99 L22.73,239.95 L24.80,239.92 L26.87,239.88 L28.93,239.85 L31.00,239.81 L33.07,239.77 L35.13,239.73 L37.20,239.69 L39.27,239.65 L41.33,239.61 L43.40,239.57 L45.47,239.52 L47.53,239.48 L49.60,239.43 L51.67,239.38 L53.73,239.33 L55.80,239.28 L57.87,239.23 L59.93,239.18 L62.00,239.13 L64.07,239.07 L66.13,239.01 L66.57,239.00 L68.20,238.95 L70.27,238.89 L72.33,238.83 L74.40,238.77 L76.47,238.70 L78.53,238.63 L80.60,238.56 L82.67,238.49 L84.73,238.42 L86.80,238.34 L88.87,238.26 L90.93,238.18 L93.00,238.10 L95.07,238.02 L95.43,238.00 L97.13,237.93 L99.20,237.84 L101.27,237.74 L103.33,237.64 L105.40,237.54 L107.47,237.44 L109.53,237.33 L111.60,237.22 L113.67,237.11 L115.54,237.00 L115.73,236.99 L117.80,236.87 L119.87,236.74 L121.93,236.61 L124.00,236.47 L126.07,236.33 L128.13,236.18 L130.20,236.03 L130.58,236.00 L132.27,235.87 L134.33,235.71 L136.40,235.53 L138.47,235.36 L140.53,235.17 L142.38,235.00 L142.60,234.98 L144.67,234.78 L146.73,234.57 L148.80,234.35 L150.87,234.12 L151.96,234.00 L152.93,233.89 L155.00,233.64 L157.07,233.38 L159.13,233.11 L159.93,233.00 L161.20,232.82 L163.27,232.53 L165.33,232.21 L166.70,232.00 L167.40,231.89 L169.47,231.54 L171.53,231.18 L172.55,231.00 L173.60,230.80 L175.67,230.40 L177.66,230.00 L177.73,229.98 L179.80,229.54 L181.87,229.07 L182.18,229.00 L183.93,228.58 L186.00,228.06 L186.21,228.00 L188.07,227.50 L189.85,227.00 L190.13,226.92 L192.20,226.29 L193.14,226.00 L194.27,225.63 L196.13,225.00 L196.33,224.93 L198.40,224.18 L198.88,224.00 L200.47,223.38 L201.42,223.00 L202.53,222.53 L203.76,222.00 L204.60,221.62 L205.93,221.00 L206.67,220.64 L207.96,220.00 L208.73,219.60 L209.85,219.00 L210.80,218.47 L211.63,218.00 L212.87,217.26 L213.29,217.00 L214.86,216.00 L214.93,215.95 L216.35,215.00 L217.00,214.54 L217.75,214.00 L219.07,213.01 L219.08,213.00 L220.35,212.00 L221.13,211.35 L221.55,211.00 L222.70,210.00 L223.20,209.54 L223.80,209.00 L224.84,208.00 L225.27,207.58 L225.85,207.00 L226.81,206.00 L227.33,205.42 L227.73,205.00 L228.61,204.00 L229.40,203.07 L229.46,203.00 L230.28,202.00 L231.07,201.00 L231.47,200.47 L231.83,200.00 L232.57,199.00 L233.27,198.00 L233.53,197.62 L233.96,197.00 L234.62,196.00 L235.26,195.00 L235.60,194.45 L235.88,194.00 L236.49,193.00 L237.07,192.00 L237.63,191.00 L237.67,190.94 L238.19,190.00 L238.73,189.00 L239.25,188.00 L239.73,187.03 L239.75,187.00 L240.25,186.00 L240.73,185.00 L241.20,184.00 L241.65,183.00 L241.80,182.65 L242.09,182.00 L242.53,181.00 L242.95,180.00 L243.36,179.00 L243.76,178.00 L243.87,177.73 L244.16,177.00 L244.55,176.00 L244.92,175.00 L245.29,174.00 L245.65,173.00 L245.93,172.17 L245.99,172.00 L246.34,171.00 L246.69,170.00 L247.02,169.00 L247.34,168.00 L247.65,167.00 L247.96,166.00 L248.00,165.86 L248.27,165.00 L248.57,164.00 L248.87,163.00 L249.15,162.00 L249.44,161.00 L249.71,160.00 L249.98,159.00 L250.07,158.66 L250.25,158.00 L250.51,157.00 L250.78,156.00 L251.03,155.00 L251.28,154.00 L251.52,153.00 L251.76,152.00 L251.99,151.00 L252.13,150.39 L252.23,150.00 L252.46,149.00 L252.69,148.00 L252.91,147.00 L253.13,146.00 L253.35,145.00 L253.56,144.00 L253.77,143.00 L253.97,142.00 L254.17,141.00 L254.20,140.83 L254.37,140.00 L254.57,139.00 L254.77,138.00 L254.96,137.00 L255.15,136.00 L255.34,135.00 L255.52,134.00 L255.70,133.00 L255.87,132.00 L256.05,131.00 L256.22,130.00 L256.27,129.70 L256.39,129.00 L256.56,128.00 L256.73,127.00 L256.90,126.00 L257.06,125.00 L257.22,124.00 L257.38,123.00 L257.54,122.00 L257.69,121.00 L257.84,120.00 L257.99,119.00 L258.14,118.00 L258.28,117.00 L258.33,116.63 L258.43,116.00 L258.57,115.00 L258.72,114.00 L258.86,113.00 L259.00,112.00 L259.14,111.00 L259.28,110.00 L259.41,109.00 L259.54,108.00 L259.67,107.00 L259.80,106.00 L259.93,105.00 L260.05,104.00 L260.18,103.00 L260.30,102.00 L260.40,101.13 L260.42,101.00 L260.54,100.00 L260.67,99.00 L260.79,98.00 L260.91,97.00 L261.02,96.00 L261.14,95.00 L261.26,94.00 L261.37,93.00 L261.48,92.00 L261.59,91.00 L261.70,90.00 L261.81,89.00 L261.92,88.00 L262.02,87.00 L262.12,86.00 L262.23,85.00 L262.33,84.00 L262.43,83.00 L262.47,82.59 L262.53,82.00 L262.63,81.00 L262.73,80.00 L262.84,79.00 L262.93,78.00 L263.03,77.00 L263.13,76.00 L263.23,75.00 L263.32,74.00 L263.42,73.00 L263.51,72.00 L263.60,71.00 L263.69,70.00 L263.78,69.00 L263.87,68.00 L263.96,67.00 L264.04,66.00 L264.13,65.00 L264.21,64.00 L264.30,63.00 L264.38,62.00 L264.46,61.00 L264.53,60.13 L264.54,60.00 L264.63,59.00 L264.72,58.00 L264.80,57.00 L264.88,56.00 L264.96,55.00 L265.05,54.00 L265.13,53.00 L265.21,52.00 L265.28,51.00 L265.36,50.00 L265.44,49.00 L265.52,48.00 L265.59,47.00 L265.67,46.00 L265.74,45.00 L265.81,44.00 L265.89,43.00 L265.96,42.00 L266.03,41.00 L266.10,40.00 L266.17,39.00 L266.24,38.00 L266.31,37.00 L266.37,36.00 L266.44,35.00 L266.51,34.00 L266.57,33.00 L266.60,32.58 L266.64,32.00 L266.71,31.00 L266.78,30.00 L266.85,29.00 L266.91,28.00 L266.98,27.00 L267.05,26.00 L267.11,25.00 L267.18,24.00 L267.24,23.00 L267.31,22.00 L267.37,21.00 L267.43,20.00 L267.49,19.00 L267.56,18.00 L267.62,17.00 L267.68,16.00 L267.74,15.00 L267.80,14.00 L267.85,13.00 L267.91,12.00 L267.97,11.00 L268.03,10.00 L268.09,9.00 L268.14,8.00 L268.20,7.00 L268.25,6.00 L268.31,5.00 L268.36,4.00 L268.42,3.00 L268.47,2.00 L268.52,1.00 M322.35,19.00 L322.40,19.79 L322.41,20.00 L322.47,21.00 L322.53,22.00 L322.59,23.00 L322.66,24.00 L322.72,25.00 L322.78,26.00 L322.84,27.00 L322.91,28.00 L322.97,29.00 L323.04,30.00 L323.10,31.00 L323.17,32.00 L323.24,33.00 L323.30,34.00 L323.37,35.00 L323.44,36.00 L323.51,37.00 L323.58,38.00 L323.65,39.00 L323.72,40.00 L323.80,41.00 L323.87,42.00 L323.94,43.00 L324.02,44.00 L324.09,45.00 L324.17,46.00 L324.25,47.00 L324.32,48.00 L324.40,49.00 L324.47,49.81 L324.48,50.00 L324.56,51.00 L324.63,52.00 L324.71,53.00 L324.78,54.00 L324.86,55.00 L324.94,56.00 L325.02,57.00 L325.10,58.00 L325.18,59.00 L325.27,60.00 L325.35,61.00 L325.43,62.00 L325.52,63.00 L325.60,64.00 L325.69,65.00 L325.78,66.00 L325.87,67.00 L325.96,68.00 L326.05,69.00 L326.14,70.00 L326.23,71.00 L326.33,72.00 L326.42,73.00 L326.52,74.00 L326.53,74.14 L326.61,75.00 L326.70,76.00 L326.80,77.00 L326.89,78.00 L326.99,79.00 L327.09,80.00 L327.18,81.00 L327.28,82.00 L327.39,83.00 L327.49,84.00 L327.59,85.00 L327.70,86.00 L327.80,87.00 L327.91,88.00 L328.02,89.00 L328.13,90.00 L328.24,91.00 L328.35,92.00 L328.47,93.00 L328.58,94.00 L328.60,94.13 L328.70,95.00 L328.81,96.00 L328.92,97.00 L329.04,98.00 L329.16,99.00 L329.27,100.00 L329.40,101.00 L329.52,102.00 L329.64,103.00 L329.77,104.00 L329.89,105.00 L330.02,106.00 L330.16,107.00 L330.29,108.00 L330.42,109.00 L330.56,110.00 L330.67,110.75 L330.70,111.00 L330.83,112.00 L330.97,113.00 L331.11,114.00 L331.25,115.00 L331.39,116.00 L331.53,117.00 L331.68,118.00 L331.83,119.00 L331.98,120.00 L332.14,121.00 L332.29,122.00 L332.45,123.00 L332.61,124.00 L332.73,124.73 L332.78,125.00 L332.93,126.00 L333.10,127.00 L333.26,128.00 L333.43,129.00 L333.60,130.00 L333.77,131.00 L333.95,132.00 L334.13,133.00 L334.31,134.00 L334.50,135.00 L334.69,136.00 L334.80,136.59 L334.88,137.00 L335.06,138.00 L335.25,139.00 L335.45,140.00 L335.65,141.00 L335.85,142.00 L336.06,143.00 L336.27,144.00 L336.48,145.00 L336.70,146.00 L336.87,146.74 L336.92,147.00 L337.14,148.00 L337.36,149.00 L337.59,150.00 L337.82,151.00 L338.06,152.00 L338.30,153.00 L338.55,154.00 L338.81,155.00 L338.93,155.50 L339.06,156.00 L339.31,157.00 L339.57,158.00 L339.84,159.00 L340.11,160.00 L340.39,161.00 L340.68,162.00 L340.97,163.00 L341.00,163.10 L341.26,164.00 L341.55,165.00 L341.86,166.00 L342.17,167.00 L342.49,168.00 L342.82,169.00 L343.07,169.75 L343.15,170.00 L343.48,171.00 L343.82,172.00 L344.17,173.00 L344.54,174.00 L344.91,175.00 L345.13,175.59 L345.29,176.00 L345.67,177.00 L346.06,178.00 L346.46,179.00 L346.88,180.00 L347.20,180.75 L347.30,181.00 L347.73,182.00 L348.17,183.00 L348.63,184.00 L349.10,185.00 L349.27,185.34 L349.58,186.00 L350.07,187.00 L350.58,188.00 L351.10,189.00 L351.33,189.43 L351.64,190.00 L352.18,191.00 L352.75,192.00 L353.34,193.00 L353.40,193.09 L353.94,194.00 L354.56,195.00 L355.21,196.00 L355.47,196.39 L355.87,197.00 L356.55,198.00 L357.26,199.00 L357.53,199.37 L358.00,200.00 L358.75,201.00 L359.55,202.00 L359.60,202.06 L360.36,203.00 L361.22,204.00 L361.67,204.51 L362.10,205.00 L363.02,206.00 L363.73,206.74 L363.98,207.00 L364.98,208.00 L365.80,208.78 L366.03,209.00 L367.12,210.00 L367.87,210.65 L368.27,211.00 L369.48,212.00 L369.93,212.36 L370.74,213.00 L372.00,213.94 L372.08,214.00 L373.48,215.00 L374.07,215.40 L374.96,216.00 L376.13,216.75 L376.54,217.00 L378.20,218.00 L378.21,218.00 L379.98,219.00 L380.27,219.15 L381.87,220.00 L382.33,220.23 L383.90,221.00 L384.40,221.24 L386.07,222.00 L386.47,222.17 L388.41,223.00 L388.53,223.05 L390.60,223.87 L390.94,224.00 L392.67,224.64 L393.69,225.00 L394.73,225.36 L396.69,226.00 L396.80,226.03 L398.87,226.67 L399.98,227.00 L400.93,227.27 L403.00,227.84 L403.61,228.00 L405.07,228.37 L407.13,228.88 L407.65,229.00 L409.20,229.36 L411.27,229.81 L412.17,230.00 L413.33,230.24 L415.40,230.65 L417.28,231.00 L417.47,231.03 L419.53,231.40 L421.60,231.75 L423.12,232.00 L423.67,232.09 L425.73,232.40 L427.80,232.71 L429.87,233.00 L429.90,233.00 L431.93,233.27 L434.00,233.54 L436.07,233.79 L437.87,234.00 L438.13,234.03 L440.20,234.26 L442.27,234.48 L444.33,234.70 L446.40,234.90 L447.44,235.00 L448.47,235.10 L450.53,235.28 L452.60,235.46 L454.67,235.64 L456.73,235.81 L458.80,235.97 L459.24,236.00 L460.87,236.12 L462.93,236.27 L465.00,236.41 L467.07,236.55 L469.13,236.69 L471.20,236.82 L473.27,236.94 L474.29,237.00 L475.33,237.06 L477.40,237.18 L479.47,237.29 L481.53,237.40 L483.60,237.50 L485.67,237.60 L487.73,237.70 L489.80,237.80 L491.87,237.89 L493.93,237.98 L494.40,238.00 L496.00,238.07 L498.07,238.15 L500.13,238.23 L502.20,238.31 L504.27,238.39 L506.33,238.46 L508.40,238.54 L510.47,238.61 L512.53,238.67 L514.60,238.74 L516.67,238.81 L518.73,238.87 L520.80,238.93 L522.87,238.99 L523.26,239.00 L524.93,239.05 L527.00,239.10 L529.07,239.16 L531.13,239.21 L533.20,239.26 L535.27,239.31 L537.33,239.36 L539.40,239.41 L541.47,239.46 L543.53,239.50 L545.60,239.55 L547.67,239.59 L549.73,239.63 L551.80,239.68 L553.87,239.72 L555.93,239.76 L558.00,239.80 L560.07,239.83 L562.13,239.87 L564.20,239.91 L566.27,239.94 L568.33,239.98 L569.86,240.00 L570.40,240.01 L572.47,240.04 L574.53,240.07 L576.60,240.11 L578.67,240.14 L580.73,240.17 L582.80,240.20 L584.87,240.22 L586.93,240.25 L589.00,240.28 L591.07,240.31 L593.13,240.33 L595.20,240.36 L597.27,240.38 L599.33,240.41 L601.40,240.43 L603.47,240.46 L605.53,240.48 L607.60,240.50 L609.67,240.53 L611.73,240.55 L613.80,240.57 L615.87,240.59 L617.93,240.61 M322.29,18.00 L322.35,19.00 M322.22,17.00 L322.29,18.00 M322.16,16.00 L322.22,17.00 M322.10,15.00 L322.16,16.00 M322.04,14.00 L322.10,15.00 M321.98,13.00 L322.04,14.00 M321.92,12.00 L321.98,13.00 M321.86,11.00 L321.92,12.00 M321.80,10.00 L321.86,11.00 M321.74,9.00 L321.80,10.00 M321.68,8.00 L321.74,9.00 M321.62,7.00 L321.68,8.00 M321.57,6.00 L321.62,7.00 M321.51,5.00 L321.57,6.00 M321.45,4.00 L321.51,5.00 M321.40,3.00 L321.45,4.00 M321.34,2.00 L321.40,3.00 M321.29,1.00 L321.34,2.00" style="stroke-width: 2px; stroke: rgb(60, 180, 75); stroke-opacity: 1;"/></g></g><g class="test-xtl" style="font-family: &quot;Open Sans&quot;, verdana, arial, sans-serif;"><text text-anchor="middle" font-size="11" dominant-baseline="hanging" stroke="none" fill="rgb(50,50,50)" fill-opacity="1" x="72.77692578124997" y="249.22312695312496">-10</text><text text-anchor="middle" font-size="11" dominant-baseline="hanging" stroke="none" fill="rgb(50,50,50)" fill-opacity="1" x="182.277525390625" y="249.22312695312496">-5</text><text text-anchor="middle" font-size="11" dominant-baseline="hanging" stroke="none" fill="rgb(50,50,50)" fill-opacity="1" x="404.413724609375" y="249.22312695312496">5</text><text text-anchor="middle" font-size="11" dominant-baseline="hanging" stroke="none" fill="rgb(50,50,50)" fill-opacity="1" x="513.9143242187499" y="249.22312695312496">10</text><text text-anchor="middle" font-size="11" dominant-baseline="hanging" stroke="none" fill="rgb(50,50,50)" fill-opacity="1" x="286.913125" y="247.22312695312496">0</text></g><g class="test-ytl" style="font-family: &quot;Open Sans&quot;, verdana, arial, sans-serif;"><text text-anchor="end" dominant-baseline="middle" font-size="11" stroke="none" fill="rgb(50,50,50)" fill-opacity="1" x="286.913125" y="132.72252734374996">5</text><text text-anchor="end" dominant-baseline="middle" font-size="11" stroke="none" fill="rgb(50,50,50)" fill-opacity="1" x="286.913125" y="23.221927734374958">10</text></g><rect class="real" x="1" y="1" width="618" height="268" style="fill: transparent; stroke: none;"/></g></g></g><g class="composite-shape"><path class="real" d=" M275,232 C275,218.19 286.19,207 300,207 C313.81,207 325,218.19 325,232 C325,245.81 313.81,257 300,257 C286.19,257 275,245.81 275,232 Z" style="stroke-width: 1px; stroke: rgb(208, 2, 27); stroke-opacity: 1; fill: none; fill-opacity: 1;"/></g><g class="composite-shape"><path class="real" d=" M258.05,232 C258.05,208.83 276.83,190.05 300,190.05 C323.17,190.05 341.95,208.83 341.95,232 C341.95,255.17 323.17,273.95 300,273.95 C276.83,273.95 258.05,255.17 258.05,232 Z" style="stroke-width: 1px; stroke: rgb(208, 2, 27); stroke-opacity: 1; fill: none; fill-opacity: 1;"/></g><g class="composite-shape"><path class="real" d=" M242.58,232 C242.58,200.29 268.29,174.58 300,174.58 C331.71,174.58 357.42,200.29 357.42,232 C357.42,263.71 331.71,289.42 300,289.42 C268.29,289.42 242.58,263.71 242.58,232 Z" style="stroke-width: 1px; stroke: rgb(208, 2, 27); stroke-opacity: 1; fill: none; fill-opacity: 1;"/></g><g class="composite-shape"><path class="real" d=" M225.71,232 C225.71,190.97 258.97,157.71 300,157.71 C341.03,157.71 374.29,190.97 374.29,232 C374.29,273.03 341.03,306.29 300,306.29 C258.97,306.29 225.71,273.03 225.71,232 Z" style="stroke-width: 1px; stroke: rgb(208, 2, 27); stroke-opacity: 1; fill: none; fill-opacity: 1;"/></g><g class="arrow-line"><path class="connection real" stroke-dasharray="2.25 3.685" d="  M187.23,149.27 L300,232" style="stroke: rgb(0, 0, 0); stroke-width: 2px; fill: none; fill-opacity: 1;"/><g stroke="none" fill="#000" transform="matrix(0.8063413889825254,0.5914503904925009,-0.5914503904925009,0.8063413889825254,184,146.89999389648438)" style="stroke: none; fill: rgb(0, 0, 0); stroke-width: 2px;"><path d=" M13.4,-6.43 L0,0 L13.4,6.44 L8.9,0 Z"/></g></g><g class="arrow-line"><path class="connection real" stroke-dasharray="" d="  M421,73 L367.88,180.77" style="stroke: rgb(0, 0, 0); stroke-width: 1px; fill: none; fill-opacity: 1;"/><g stroke="#000" transform="matrix(0.44213214966024245,-0.8969499218110301,0.8969499218110301,0.44213214966024245,367,182.56666564941406)" style="stroke: rgb(0, 0, 0); stroke-width: 1px;"><path d=" M10.93,-3.29 Q4.96,-0.45 0,0 Q4.96,0.45 10.93,3.29"/></g></g><g class="arrow-line"><path class="connection real" stroke-dasharray="" d="  M421,73 L243.68,188.36" style="stroke: rgb(0, 0, 0); stroke-width: 1px; fill: none; fill-opacity: 1;"/><g stroke="#000" transform="matrix(0.8381949614438938,-0.545370705676487,0.545370705676487,0.8381949614438938,242,189.4499969482422)" style="stroke: rgb(0, 0, 0); stroke-width: 1px;"><path d=" M10.93,-3.29 Q4.96,-0.45 0,0 Q4.96,0.45 10.93,3.29"/></g></g></g><g/></g><g/><g/><g/></svg>
        <svg xmlns="http://www.w3.org/2000/svg" xmlns:xlink="http://www.w3.org/1999/xlink" width="700" height="310" style="width:700px;height:310px;font-family:Asana-Math, Asana;background:#FFF;"><g><g><g><text x="143.66668701171875" y="126.95001220703125" style="white-space:pre;stroke:none;fill:rgb(0,0,0);fill-opacity:1;font-size:14.7px;font-family:sans-serif, Arial, Helvetica;font-weight:400;font-style:normal;dominant-baseline:text-before-edge;text-decoration:rgb(0, 0, 0);">Normal line</text></g></g><g></g></g><g><g><g><g transform="matrix(1,0,0,1,537.6666870117188,230.6666687011719)"><path transform="matrix(0.0238,0,0,-0.0238,0,0)" d="M9 1C24 -7 40 -11 52 -11C85 -11 124 18 155 65L231 182L242 113C255 28 278 -11 314 -11C336 -11 368 6 400 35L449 79L440 98C404 68 379 53 363 53C348 53 335 63 325 83C316 102 305 139 300 168L282 269L317 318C364 383 391 406 422 406C438 406 450 398 455 383L469 387L484 472C472 479 463 482 454 482C414 482 374 446 312 354L275 299L269 347C257 446 230 482 171 482C145 482 123 474 114 461L56 378L73 368C103 402 123 416 142 416C175 416 197 375 214 277L225 215L185 153C142 86 108 54 80 54C65 54 54 58 52 63L41 91L21 88C21 53 13 27 9 1Z" stroke="rgb(0,0,0)" stroke-opacity="1" stroke-width="8" fill="rgb(0,0,0)" fill-opacity="1"></path></g></g><g><g><g><g><g transform="matrix(1,0,0,1,550.9500122070312,220.32667175292968)"><path transform="matrix(0.01666,0,0,-0.01666,0,0)" d="M16 23L16 -3C203 -3 203 0 239 0C275 0 275 -3 468 -3L468 82C353 77 307 81 122 77L304 270C401 373 431 428 431 503C431 618 353 689 226 689C154 689 105 669 56 619L39 483L68 483L81 529C97 587 133 612 200 612C286 612 341 558 341 473C341 398 299 324 186 204Z" stroke="rgb(0,0,0)" stroke-opacity="1" stroke-width="8" fill="rgb(0,0,0)" fill-opacity="1"></path></g></g></g></g></g><g><g transform="matrix(1,0,0,1,560.7166748046875,230.6666687011719)"><path transform="matrix(0.0238,0,0,-0.0238,0,0)" d="M-7 -180C-8 -187 -8 -193 -8 -198C-8 -241 29 -276 74 -276C180 -276 290 -152 349 33L490 473L479 482C450 471 427 465 405 463L370 331C358 284 323 211 290 162C255 111 206 67 184 67C172 67 163 90 164 115L180 322C182 353 184 391 184 419C184 464 177 482 160 482C147 482 133 475 85 442L3 386L14 368L64 398C69 401 80 410 89 410C103 410 111 391 111 358C111 357 111 351 110 343L93 100L92 60C92 18 110 -11 135 -11C172 -11 256 74 331 187L282 16C231 -161 181 -234 111 -234C76 -234 49 -207 49 -172C49 -167 50 -159 51 -150L41 -146Z" stroke="rgb(0,0,0)" stroke-opacity="1" stroke-width="8" fill="rgb(0,0,0)" fill-opacity="1"></path></g></g><g><g transform="matrix(1,0,0,1,585.7000122070312,230.6666687011719)"><path transform="matrix(0.0238,0,0,-0.0238,0,0)" d="M604 347L604 406L65 406L65 347ZM604 134L604 193L65 193L65 134Z" stroke="rgb(0,0,0)" stroke-opacity="1" stroke-width="8" fill="rgb(0,0,0)" fill-opacity="1"></path></g></g><g><g transform="matrix(1,0,0,1,606.2500610351562,230.6666687011719)"><path transform="matrix(0.0238,0,0,-0.0238,0,0)" d="M667 -3L667 27L615 30C560 33 550 44 550 96L550 700L309 598L316 548L466 614L466 96C466 44 455 33 401 30L345 27L345 -3C499 0 499 0 510 0C541 0 651 -3 667 -3ZM879 331C900 512 989 611 1169 665L1127 689C1031 657 990 637 939 593C836 506 780 384 780 247C780 82 860 -20 989 -20C1119 -20 1216 83 1216 219C1216 334 1147 409 1041 409C964 409 932 370 879 331ZM1003 349C1079 349 1130 283 1130 184C1130 80 1079 13 1002 13C917 13 871 86 871 220C871 255 875 274 886 291C908 325 955 349 1003 349Z" stroke="rgb(0,0,0)" stroke-opacity="1" stroke-width="8" fill="rgb(0,0,0)" fill-opacity="1"></path></g></g></g></g><g><g><g><text x="341.66668701171875" y="45.70001220703125" style="white-space:pre;stroke:none;fill:rgb(0,0,0);fill-opacity:1;font-size:21px;font-family:sans-serif, Arial, Helvetica;font-weight:400;font-style:normal;dominant-baseline:text-before-edge;text-decoration:rgb(0, 0, 0);">function tangent to constraint</text></g></g><g></g></g><g><g><g><g><g><g><g transform="matrix(1,0,0,1,168.4666748046875,303.0666778564453)"><path transform="matrix(0.0238,0,0,-0.0238,0,0)" d="M9 1C24 -7 40 -11 52 -11C85 -11 124 18 155 65L231 182L242 113C255 28 278 -11 314 -11C336 -11 368 6 400 35L449 79L440 98C404 68 379 53 363 53C348 53 335 63 325 83C316 102 305 139 300 168L282 269L317 318C364 383 391 406 422 406C438 406 450 398 455 383L469 387L484 472C472 479 463 482 454 482C414 482 374 446 312 354L275 299L269 347C257 446 230 482 171 482C145 482 123 474 114 461L56 378L73 368C103 402 123 416 142 416C175 416 197 375 214 277L225 215L185 153C142 86 108 54 80 54C65 54 54 58 52 63L41 91L21 88C21 53 13 27 9 1Z" stroke="rgb(170,9,9)" stroke-opacity="1" stroke-width="8" fill="rgb(170,9,9)" fill-opacity="1"></path></g></g><g><g><g><g><g transform="matrix(1,0,0,1,181.75,292.7266656494141)"><path transform="matrix(0.01666,0,0,-0.01666,0,0)" d="M16 23L16 -3C203 -3 203 0 239 0C275 0 275 -3 468 -3L468 82C353 77 307 81 122 77L304 270C401 373 431 428 431 503C431 618 353 689 226 689C154 689 105 669 56 619L39 483L68 483L81 529C97 587 133 612 200 612C286 612 341 558 341 473C341 398 299 324 186 204Z" stroke="rgb(170,9,9)" stroke-opacity="1" stroke-width="8" fill="rgb(170,9,9)" fill-opacity="1"></path></g></g></g></g></g><g><g transform="matrix(1,0,0,1,196.28338623046875,303.0666778564453)"><path transform="matrix(0.0238,0,0,-0.0238,0,0)" d="M604 241L604 300L364 300L364 538L305 538L305 300L65 300L65 241L305 241L305 0L364 0L364 241Z" stroke="rgb(170,9,9)" stroke-opacity="1" stroke-width="8" fill="rgb(170,9,9)" fill-opacity="1"></path></g></g><g><g transform="matrix(1,0,0,1,214.4666748046875,303.0666778564453)"><path transform="matrix(0.0238,0,0,-0.0238,0,0)" d="M-7 -180C-8 -187 -8 -193 -8 -198C-8 -241 29 -276 74 -276C180 -276 290 -152 349 33L490 473L479 482C450 471 427 465 405 463L370 331C358 284 323 211 290 162C255 111 206 67 184 67C172 67 163 90 164 115L180 322C182 353 184 391 184 419C184 464 177 482 160 482C147 482 133 475 85 442L3 386L14 368L64 398C69 401 80 410 89 410C103 410 111 391 111 358C111 357 111 351 110 343L93 100L92 60C92 18 110 -11 135 -11C172 -11 256 74 331 187L282 16C231 -161 181 -234 111 -234C76 -234 49 -207 49 -172C49 -167 50 -159 51 -150L41 -146Z" stroke="rgb(170,9,9)" stroke-opacity="1" stroke-width="8" fill="rgb(170,9,9)" fill-opacity="1"></path></g></g><g><g><g><g><g transform="matrix(1,0,0,1,227.75,292.7266656494141)"><path transform="matrix(0.01666,0,0,-0.01666,0,0)" d="M16 23L16 -3C203 -3 203 0 239 0C275 0 275 -3 468 -3L468 82C353 77 307 81 122 77L304 270C401 373 431 428 431 503C431 618 353 689 226 689C154 689 105 669 56 619L39 483L68 483L81 529C97 587 133 612 200 612C286 612 341 558 341 473C341 398 299 324 186 204Z" stroke="rgb(170,9,9)" stroke-opacity="1" stroke-width="8" fill="rgb(170,9,9)" fill-opacity="1"></path></g></g></g></g></g></g></g><svg x="144.66668701171875" overflow="visible" y="273.2666778564453" height="23.800003051757812" width="92.85000610351562"><polygon points="0.35,21.51 4.79,19.13 9.32,28.75 16.36,0.00 92.85,0.00 92.85,1.05 17.13,1.05 9.18,33.81 3.10,21.07 0.64,21.99" style="fill:rgb(170,9,9);fill-opacity:1;stroke-width:1px;stroke:none;stroke-opacity:1;"></polygon></svg></g></g></g></svg>
</svg>
