<svg xmlns="http://www.w3.org/2000/svg" xmlns:xlink="http://www.w3.org/1999/xlink" x="0" y="0" width="661.3333740234375" height="346.66668701171875" style="
        width:661.3333740234375px;
        height:346.66668701171875px;
        background: #FFF;
        fill: none;
">
        
        
        <svg xmlns="http://www.w3.org/2000/svg" class="role-diagram-draw-area"><g class="shapes-region" style="stroke: black; fill: none;"><g class="grouped-shape"><g class="arrow-line"><path class="connection real" stroke-dasharray="6 6" d="  M33.23,288.4 L33.23,124.74" style="stroke: rgb(0, 0, 0); stroke-width: 1px; fill: none; fill-opacity: 1;"/><g stroke="none" fill="#000" transform="matrix(3.061616997868383e-16,1,-1,3.061616997868383e-16,33.22812084786892,121.74482678414867)" style="stroke: none; fill: rgb(0, 0, 0); stroke-width: 1px;"><path d=" M8.93,-4.29 L0,0 L8.93,4.29 Z"/></g></g><g class="arrow-line"><path class="connection real" stroke-dasharray="6 6" d="  M32.29,288.4 L184.51,288.4" style="stroke: rgb(0, 0, 0); stroke-width: 1px; fill: none; fill-opacity: 1;"/><g stroke="none" fill="#000" transform="matrix(-1,1.2246467991473532e-16,-1.2246467991473532e-16,-1,187.50846384387273,288.40073853301067)" style="stroke: none; fill: rgb(0, 0, 0); stroke-width: 1px;"><path d=" M8.93,-4.29 L0,0 L8.93,4.29 Z"/></g></g></g><g class="arrow-line"><path class="connection real" stroke-dasharray="" d="  M33,291.46 L105.82,227.26" style="stroke: rgb(0, 0, 0); stroke-width: 1px; fill: none; fill-opacity: 1;"/><g stroke="#000" transform="matrix(-0.7501110696304597,0.6613118653236517,-0.6613118653236517,-0.7501110696304597,107.31980019672386,225.93458777328638)" style="stroke: rgb(0, 0, 0); stroke-width: 1px;"><path d=" M10.93,-3.29 Q4.96,-0.45 0,0 Q4.96,0.45 10.93,3.29"/></g></g><g class="arrow-line"><path class="connection real" stroke-dasharray="1.125 3.35" d="  M107.32,225.93 L107.32,291.25" style="stroke: rgb(0, 0, 0); stroke-width: 1px; fill: none; fill-opacity: 1;"/></g><g class="arrow-line"><path class="connection real" stroke-dasharray="1.125 3.35" d="  M33,225.93 L107.32,225.93" style="stroke: rgb(0, 0, 0); stroke-width: 1px; fill: none; fill-opacity: 1;"/></g><g class="arrow-line"><path class="connection real" stroke-dasharray="" d="  M32.29,291.46 L104.31,228.57" style="stroke: rgb(160, 29, 29); stroke-opacity: 1; stroke-width: 2px; fill: none; fill-opacity: 1;"/><g stroke="none" fill="rgb(160,29,29)" fill-opacity="1" transform="matrix(-0.7532190881467193,0.6577697205340367,-0.6577697205340367,-0.7532190881467193,107.31980019672386,225.9345877732864)" style="stroke: none; fill: rgb(160, 29, 29); stroke-width: 2px;"><path d=" M13.4,-6.43 L0,0 L13.4,6.44 L8.9,0 Z"/></g></g><g class="grouped-shape"><g class="grouped-shape"><g class="arrow-line"><path class="connection real" stroke-dasharray="6 6" d="  M246.23,292.4 L246.23,128.74" style="stroke: rgb(0, 0, 0); stroke-width: 1px; fill: none; fill-opacity: 1;"/><g stroke="none" fill="#000" transform="matrix(3.061616997868383e-16,1,-1,3.061616997868383e-16,246.2281208478689,125.74482678414869)" style="stroke: none; fill: rgb(0, 0, 0); stroke-width: 1px;"><path d=" M8.93,-4.29 L0,0 L8.93,4.29 Z"/></g></g><g class="arrow-line"><path class="connection real" stroke-dasharray="6 6" d="  M245.29,292.4 L397.51,292.4" style="stroke: rgb(0, 0, 0); stroke-width: 1px; fill: none; fill-opacity: 1;"/><g stroke="none" fill="#000" transform="matrix(-1,1.2246467991473532e-16,-1.2246467991473532e-16,-1,400.5084638438727,292.4007385330107)" style="stroke: none; fill: rgb(0, 0, 0); stroke-width: 1px;"><path d=" M8.93,-4.29 L0,0 L8.93,4.29 Z"/></g></g></g><g class="arrow-line"><path class="connection real" stroke-dasharray="" d="  M246,295.46 L318.82,231.26" style="stroke: rgb(0, 0, 0); stroke-width: 1px; fill: none; fill-opacity: 1;"/><g stroke="#000" transform="matrix(-0.7501110696304597,0.6613118653236517,-0.6613118653236517,-0.7501110696304597,320.31980019672386,229.9345877732864)" style="stroke: rgb(0, 0, 0); stroke-width: 1px;"><path d=" M10.93,-3.29 Q4.96,-0.45 0,0 Q4.96,0.45 10.93,3.29"/></g></g><g class="arrow-line"><path class="connection real" stroke-dasharray="1.125 3.35" d="  M320.32,229.93 L320.32,295.25" style="stroke: rgb(0, 0, 0); stroke-width: 1px; fill: none; fill-opacity: 1;"/></g><g class="arrow-line"><path class="connection real" stroke-dasharray="1.125 3.35" d="  M246,229.93 L320.32,229.93" style="stroke: rgb(0, 0, 0); stroke-width: 1px; fill: none; fill-opacity: 1;"/></g><g class="arrow-line"><path class="connection real" stroke-dasharray="" d="  M246.23,292.4 C302.56,295.7 320.12,269.16 320.34,232.75" style="stroke: rgb(169, 33, 33); stroke-opacity: 1; stroke-width: 2px; fill: none; fill-opacity: 1;"/><g stroke="rgb(169,33,33)" stroke-opacity="1" transform="matrix(0.017975923049993202,0.9998384200412088,-0.9998384200412088,0.017975923049993202,320.3198001967239,229.9345877732864)" style="stroke: rgb(169, 33, 33); stroke-width: 2px;"><path d=" M14.21,-4.28 Q6.45,-0.59 0,0 Q6.45,0.59 14.21,4.28"/></g></g></g><g class="grouped-shape"><g class="arrow-line"><path class="connection real" stroke-dasharray="6 6" d="  M484.23,291.4 L484.23,127.74" style="stroke: rgb(0, 0, 0); stroke-width: 1px; fill: none; fill-opacity: 1;"/><g stroke="none" fill="#000" transform="matrix(3.061616997868383e-16,1,-1,3.061616997868383e-16,484.228120847869,124.7448267841487)" style="stroke: none; fill: rgb(0, 0, 0); stroke-width: 1px;"><path d=" M8.93,-4.29 L0,0 L8.93,4.29 Z"/></g></g><g class="arrow-line"><path class="connection real" stroke-dasharray="6 6" d="  M483.29,291.4 L635.51,291.4" style="stroke: rgb(0, 0, 0); stroke-width: 1px; fill: none; fill-opacity: 1;"/><g stroke="none" fill="#000" transform="matrix(-1,1.2246467991473532e-16,-1.2246467991473532e-16,-1,638.5084638438727,291.4007385330107)" style="stroke: none; fill: rgb(0, 0, 0); stroke-width: 1px;"><path d=" M8.93,-4.29 L0,0 L8.93,4.29 Z"/></g></g></g><g class="arrow-line"><path class="connection real" stroke-dasharray="" d="  M484,294.46 L556.82,230.26" style="stroke: rgb(0, 0, 0); stroke-width: 1px; fill: none; fill-opacity: 1;"/><g stroke="#000" transform="matrix(-0.7501110696304597,0.6613118653236517,-0.6613118653236517,-0.7501110696304597,558.3198001967238,228.9345877732864)" style="stroke: rgb(0, 0, 0); stroke-width: 1px;"><path d=" M10.93,-3.29 Q4.96,-0.45 0,0 Q4.96,0.45 10.93,3.29"/></g></g><g class="arrow-line"><path class="connection real" stroke-dasharray="1.125 3.35" d="  M558.32,228.93 L558.32,294.25" style="stroke: rgb(0, 0, 0); stroke-width: 1px; fill: none; fill-opacity: 1;"/></g><g class="arrow-line"><path class="connection real" stroke-dasharray="1.125 3.35" d="  M484,228.93 L558.32,228.93" style="stroke: rgb(0, 0, 0); stroke-width: 1px; fill: none; fill-opacity: 1;"/></g><g class="arrow-line"><path class="connection real" stroke-dasharray="" d="  M483.29,291.4 L483.96,232.93" style="stroke: rgb(184, 22, 22); stroke-width: 2px; fill: none; fill-opacity: 1; stroke-opacity: 1;"/><g stroke="none" transform="matrix(-0.011518918315753093,0.999933655059592,-0.999933655059592,-0.011518918315753093,484.00198146004243,228.9345877732864)" style="stroke: none; stroke-width: 2px; fill: rgb(184, 22, 22);" fill="rgb(184,22,22)" fill-opacity="1"><path d=" M11.61,-5.58 L0,0 L11.61,5.58 Z"/></g></g><g class="arrow-line"><path class="connection real" stroke-dasharray="" d="  M484,228.93 L554.32,228.93" style="stroke: rgb(184, 22, 22); stroke-opacity: 1; stroke-width: 2px; fill: none; fill-opacity: 1;"/><g stroke="none" fill="rgb(184,22,22)" fill-opacity="1" transform="matrix(-1,1.2246467991473532e-16,-1.2246467991473532e-16,-1,558.3198001967239,228.9345877732864)" style="stroke: none; fill: rgb(184, 22, 22); stroke-width: 2px;"><path d=" M11.61,-5.58 L0,0 L11.61,5.58 Z"/></g></g><g class="arrow-line"><path class="connection real" stroke-dasharray="" d="  M212,-3.22 L212,348.78" style="stroke: rgb(155, 155, 155); stroke-width: 1px; fill: none; fill-opacity: 1; stroke-opacity: 1;"/></g><g class="arrow-line"><path class="connection real" stroke-dasharray="" d="  M438,3.33 L438,355.33" style="stroke: rgb(155, 155, 155); stroke-opacity: 1; stroke-width: 1px; fill: none; fill-opacity: 1;"/></g><g/></g><g/><g/><g/></svg>
        <svg xmlns="http://www.w3.org/2000/svg" xmlns:xlink="http://www.w3.org/1999/xlink" width="660" height="345.33331298828125" style="width:660px;height:345.33331298828125px;font-family:Asana-Math, Asana;background:#FFF;"><g><g><g><g transform="matrix(1,0,0,1,39.95001220703125,132.42666259765625)"><path transform="matrix(0.01666,0,0,-0.01666,0,0)" d="M-7 -180C-8 -187 -8 -193 -8 -198C-8 -241 29 -276 74 -276C180 -276 290 -152 349 33L490 473L479 482C450 471 427 465 405 463L370 331C358 284 323 211 290 162C255 111 206 67 184 67C172 67 163 90 164 115L180 322C182 353 184 391 184 419C184 464 177 482 160 482C147 482 133 475 85 442L3 386L14 368L64 398C69 401 80 410 89 410C103 410 111 391 111 358C111 357 111 351 110 343L93 100L92 60C92 18 110 -11 135 -11C172 -11 256 74 331 187L282 16C231 -161 181 -234 111 -234C76 -234 49 -207 49 -172C49 -167 50 -159 51 -150L41 -146Z" stroke="rgb(0,0,0)" stroke-opacity="1" stroke-width="8" fill="rgb(0,0,0)" fill-opacity="1"></path></g></g></g></g><g><g><g><g transform="matrix(1,0,0,1,188.58331298828125,293.9266625976563)"><path transform="matrix(0.01666,0,0,-0.01666,0,0)" d="M9 1C24 -7 40 -11 52 -11C85 -11 124 18 155 65L231 182L242 113C255 28 278 -11 314 -11C336 -11 368 6 400 35L449 79L440 98C404 68 379 53 363 53C348 53 335 63 325 83C316 102 305 139 300 168L282 269L317 318C364 383 391 406 422 406C438 406 450 398 455 383L469 387L484 472C472 479 463 482 454 482C414 482 374 446 312 354L275 299L269 347C257 446 230 482 171 482C145 482 123 474 114 461L56 378L73 368C103 402 123 416 142 416C175 416 197 375 214 277L225 215L185 153C142 86 108 54 80 54C65 54 54 58 52 63L41 91L21 88C21 53 13 27 9 1Z" stroke="rgb(0,0,0)" stroke-opacity="1" stroke-width="8" fill="rgb(0,0,0)" fill-opacity="1"></path></g></g></g></g><g><g><g><g transform="matrix(1,0,0,1,91.66668701171875,38.41666870117187)"><path transform="matrix(0.0238,0,0,-0.0238,0,0)" d="M271 204L242 77C238 60 236 42 236 26C236 4 245 -9 260 -9C283 -9 324 17 406 85L399 106C375 86 346 59 324 59C315 59 309 68 309 82C309 87 309 90 310 93L402 472L392 481L359 463C318 478 301 482 274 482C246 482 226 477 199 464C137 433 104 403 79 354C35 265 4 145 4 67C4 23 19 -11 38 -11C75 -11 155 41 271 204ZM319 414C297 305 278 253 244 201C187 117 126 59 94 59C82 59 76 72 76 99C76 163 104 280 139 360C163 415 186 433 234 433C257 433 275 429 319 414Z" stroke="rgb(0,0,0)" stroke-opacity="1" stroke-width="24" fill="rgb(0,0,0)" fill-opacity="1"></path></g></g><g><g transform="matrix(1,0,0,1,103.566650390625,37.466671752929685)"><path transform="matrix(0.0238,0,0,-0.0238,0,0)" d="M51 726L32 700C87 636 187 526 187 266C187 -10 83 -131 32 -194L51 -215C104 -165 273 -23 273 265C273 542 108 675 51 726Z" stroke="rgb(0,0,0)" stroke-opacity="1" stroke-width="24" fill="rgb(0,0,0)" fill-opacity="1"></path></g></g></g></g><g><g><g><g transform="matrix(1,0,0,1,401.58331298828125,297.9266625976563)"><path transform="matrix(0.01666,0,0,-0.01666,0,0)" d="M9 1C24 -7 40 -11 52 -11C85 -11 124 18 155 65L231 182L242 113C255 28 278 -11 314 -11C336 -11 368 6 400 35L449 79L440 98C404 68 379 53 363 53C348 53 335 63 325 83C316 102 305 139 300 168L282 269L317 318C364 383 391 406 422 406C438 406 450 398 455 383L469 387L484 472C472 479 463 482 454 482C414 482 374 446 312 354L275 299L269 347C257 446 230 482 171 482C145 482 123 474 114 461L56 378L73 368C103 402 123 416 142 416C175 416 197 375 214 277L225 215L185 153C142 86 108 54 80 54C65 54 54 58 52 63L41 91L21 88C21 53 13 27 9 1Z" stroke="rgb(0,0,0)" stroke-opacity="1" stroke-width="8" fill="rgb(0,0,0)" fill-opacity="1"></path></g></g></g></g><g><g><g><g transform="matrix(1,0,0,1,252.95001220703125,136.42666259765625)"><path transform="matrix(0.01666,0,0,-0.01666,0,0)" d="M-7 -180C-8 -187 -8 -193 -8 -198C-8 -241 29 -276 74 -276C180 -276 290 -152 349 33L490 473L479 482C450 471 427 465 405 463L370 331C358 284 323 211 290 162C255 111 206 67 184 67C172 67 163 90 164 115L180 322C182 353 184 391 184 419C184 464 177 482 160 482C147 482 133 475 85 442L3 386L14 368L64 398C69 401 80 410 89 410C103 410 111 391 111 358C111 357 111 351 110 343L93 100L92 60C92 18 110 -11 135 -11C172 -11 256 74 331 187L282 16C231 -161 181 -234 111 -234C76 -234 49 -207 49 -172C49 -167 50 -159 51 -150L41 -146Z" stroke="rgb(0,0,0)" stroke-opacity="1" stroke-width="8" fill="rgb(0,0,0)" fill-opacity="1"></path></g></g></g></g><g><g><g><g transform="matrix(1,0,0,1,315.66668701171875,41.41666870117187)"><path transform="matrix(0.0238,0,0,-0.0238,0,0)" d="M150 718L141 726C97 709 64 701 -15 689L-15 661L41 661C59 661 66 650 66 620L66 153C66 91 65 64 58 -6L74 -12L114 24C177 -12 232 -28 280 -28C432 -28 508 128 508 262L508 270C495 414 404 485 315 485C248 485 182 446 150 369ZM284 404C368 404 421 336 421 229C421 117 361 39 276 39C224 39 150 71 150 93L150 308C150 343 206 404 284 404Z" stroke="rgb(0,0,0)" stroke-opacity="1" stroke-width="24" fill="rgb(0,0,0)" fill-opacity="1"></path></g></g><g><g transform="matrix(1,0,0,1,328.9000244140625,40.466671752929685)"><path transform="matrix(0.0238,0,0,-0.0238,0,0)" d="M51 726L32 700C87 636 187 526 187 266C187 -10 83 -131 32 -194L51 -215C104 -165 273 -23 273 265C273 542 108 675 51 726Z" stroke="rgb(0,0,0)" stroke-opacity="1" stroke-width="24" fill="rgb(0,0,0)" fill-opacity="1"></path></g></g></g></g><g><g><g><g transform="matrix(1,0,0,1,465.66668701171875,234.50001220703126)"><path transform="matrix(0.0238,0,0,-0.0238,0,0)" d="M418 -3L418 27L366 30C311 33 301 44 301 96L301 700L60 598L67 548L217 614L217 96C217 44 206 33 152 30L96 27L96 -3C250 0 250 0 261 0C292 0 402 -3 418 -3Z" stroke="rgb(0,0,0)" stroke-opacity="1" stroke-width="8" fill="rgb(0,0,0)" fill-opacity="1"></path></g></g></g><g></g></g><g><g><g><g transform="matrix(1,0,0,1,552.13330078125,311.88331298828126)"><path transform="matrix(0.0238,0,0,-0.0238,0,0)" d="M418 -3L418 27L366 30C311 33 301 44 301 96L301 700L60 598L67 548L217 614L217 96C217 44 206 33 152 30L96 27L96 -3C250 0 250 0 261 0C292 0 402 -3 418 -3Z" stroke="rgb(0,0,0)" stroke-opacity="1" stroke-width="8" fill="rgb(0,0,0)" fill-opacity="1"></path></g></g></g><g></g></g><g><g><g><g transform="matrix(1,0,0,1,500.7833251953125,226.726650390625)"><path transform="matrix(0.01666,0,0,-0.01666,0,0)" d="M45 284C45 90 152 -18 343 -18C439 -18 510 5 600 67C600 67 610 103 610 103C610 103 600 110 600 110C506 53 454 35 376 35C219 35 133 131 133 309C133 447 190 653 418 653C489 653 541 639 597 603L597 519L624 519C629 576 637 619 651 665C575 694 518 706 456 706C276 706 45 578 45 284Z" stroke="rgb(186,36,36)" stroke-opacity="1" stroke-width="8" fill="rgb(186,36,36)" fill-opacity="1"></path></g></g></g></g><g><g><g><g transform="matrix(1,0,0,1,639.5833740234375,296.9266625976563)"><path transform="matrix(0.01666,0,0,-0.01666,0,0)" d="M9 1C24 -7 40 -11 52 -11C85 -11 124 18 155 65L231 182L242 113C255 28 278 -11 314 -11C336 -11 368 6 400 35L449 79L440 98C404 68 379 53 363 53C348 53 335 63 325 83C316 102 305 139 300 168L282 269L317 318C364 383 391 406 422 406C438 406 450 398 455 383L469 387L484 472C472 479 463 482 454 482C414 482 374 446 312 354L275 299L269 347C257 446 230 482 171 482C145 482 123 474 114 461L56 378L73 368C103 402 123 416 142 416C175 416 197 375 214 277L225 215L185 153C142 86 108 54 80 54C65 54 54 58 52 63L41 91L21 88C21 53 13 27 9 1Z" stroke="rgb(0,0,0)" stroke-opacity="1" stroke-width="8" fill="rgb(0,0,0)" fill-opacity="1"></path></g></g></g></g><g><g><g><g transform="matrix(1,0,0,1,490.95001220703125,135.42666259765625)"><path transform="matrix(0.01666,0,0,-0.01666,0,0)" d="M-7 -180C-8 -187 -8 -193 -8 -198C-8 -241 29 -276 74 -276C180 -276 290 -152 349 33L490 473L479 482C450 471 427 465 405 463L370 331C358 284 323 211 290 162C255 111 206 67 184 67C172 67 163 90 164 115L180 322C182 353 184 391 184 419C184 464 177 482 160 482C147 482 133 475 85 442L3 386L14 368L64 398C69 401 80 410 89 410C103 410 111 391 111 358C111 357 111 351 110 343L93 100L92 60C92 18 110 -11 135 -11C172 -11 256 74 331 187L282 16C231 -161 181 -234 111 -234C76 -234 49 -207 49 -172C49 -167 50 -159 51 -150L41 -146Z" stroke="rgb(0,0,0)" stroke-opacity="1" stroke-width="8" fill="rgb(0,0,0)" fill-opacity="1"></path></g></g></g></g><g><g><g><g transform="matrix(1,0,0,1,554.6666870117188,43.41666870117187)"><path transform="matrix(0.0238,0,0,-0.0238,0,0)" d="M399 311C399 357 404 398 413 434C381 478 338 497 293 497C169 497 25 361 25 224C25 219 26 215 26 210C26 75 121 -20 255 -20C307 -20 382 -1 392 14L413 46L403 61C366 41 334 32 298 32C187 32 114 118 114 250C114 357 164 417 254 417C298 417 346 397 364 372L371 311Z" stroke="rgb(0,0,0)" stroke-opacity="1" stroke-width="24" fill="rgb(0,0,0)" fill-opacity="1"></path></g></g><g><g transform="matrix(1,0,0,1,565.2333374023438,42.466671752929685)"><path transform="matrix(0.0238,0,0,-0.0238,0,0)" d="M51 726L32 700C87 636 187 526 187 266C187 -10 83 -131 32 -194L51 -215C104 -165 273 -23 273 265C273 542 108 675 51 726Z" stroke="rgb(0,0,0)" stroke-opacity="1" stroke-width="24" fill="rgb(0,0,0)" fill-opacity="1"></path></g></g></g></g><g><g><g><g transform="matrix(1,0,0,1,227.66668701171875,235.50001220703126)"><path transform="matrix(0.0238,0,0,-0.0238,0,0)" d="M418 -3L418 27L366 30C311 33 301 44 301 96L301 700L60 598L67 548L217 614L217 96C217 44 206 33 152 30L96 27L96 -3C250 0 250 0 261 0C292 0 402 -3 418 -3Z" stroke="rgb(0,0,0)" stroke-opacity="1" stroke-width="8" fill="rgb(0,0,0)" fill-opacity="1"></path></g></g></g><g></g></g><g><g><g><g transform="matrix(1,0,0,1,314.13330078125,312.88331298828126)"><path transform="matrix(0.0238,0,0,-0.0238,0,0)" d="M418 -3L418 27L366 30C311 33 301 44 301 96L301 700L60 598L67 548L217 614L217 96C217 44 206 33 152 30L96 27L96 -3C250 0 250 0 261 0C292 0 402 -3 418 -3Z" stroke="rgb(0,0,0)" stroke-opacity="1" stroke-width="8" fill="rgb(0,0,0)" fill-opacity="1"></path></g></g></g><g></g></g><g><g><g><g transform="matrix(1,0,0,1,305.7833251953125,288.726650390625)"><path transform="matrix(0.01666,0,0,-0.01666,0,0)" d="M45 284C45 90 152 -18 343 -18C439 -18 510 5 600 67C600 67 610 103 610 103C610 103 600 110 600 110C506 53 454 35 376 35C219 35 133 131 133 309C133 447 190 653 418 653C489 653 541 639 597 603L597 519L624 519C629 576 637 619 651 665C575 694 518 706 456 706C276 706 45 578 45 284Z" stroke="rgb(186,36,36)" stroke-opacity="1" stroke-width="8" fill="rgb(186,36,36)" fill-opacity="1"></path></g></g></g></g><g><g><g><g transform="matrix(1,0,0,1,14.66668701171875,231.50001220703126)"><path transform="matrix(0.0238,0,0,-0.0238,0,0)" d="M418 -3L418 27L366 30C311 33 301 44 301 96L301 700L60 598L67 548L217 614L217 96C217 44 206 33 152 30L96 27L96 -3C250 0 250 0 261 0C292 0 402 -3 418 -3Z" stroke="rgb(0,0,0)" stroke-opacity="1" stroke-width="8" fill="rgb(0,0,0)" fill-opacity="1"></path></g></g></g><g></g></g><g><g><g><g transform="matrix(1,0,0,1,101.13330078125,308.88331298828126)"><path transform="matrix(0.0238,0,0,-0.0238,0,0)" d="M418 -3L418 27L366 30C311 33 301 44 301 96L301 700L60 598L67 548L217 614L217 96C217 44 206 33 152 30L96 27L96 -3C250 0 250 0 261 0C292 0 402 -3 418 -3Z" stroke="rgb(0,0,0)" stroke-opacity="1" stroke-width="8" fill="rgb(0,0,0)" fill-opacity="1"></path></g></g></g><g></g></g><g><g><g><g transform="matrix(1,0,0,1,59.7833251953125,284.726650390625)"><path transform="matrix(0.01666,0,0,-0.01666,0,0)" d="M45 284C45 90 152 -18 343 -18C439 -18 510 5 600 67C600 67 610 103 610 103C610 103 600 110 600 110C506 53 454 35 376 35C219 35 133 131 133 309C133 447 190 653 418 653C489 653 541 639 597 603L597 519L624 519C629 576 637 619 651 665C575 694 518 706 456 706C276 706 45 578 45 284Z" stroke="rgb(186,36,36)" stroke-opacity="1" stroke-width="8" fill="rgb(186,36,36)" fill-opacity="1"></path></g></g></g></g></svg>
</svg>
