<svg xmlns="http://www.w3.org/2000/svg" xmlns:xlink="http://www.w3.org/1999/xlink" x="0" y="0" width="701.3333333333334" height="301.3333333333333" style="
        width:701.3333333333334px;
        height:301.3333333333333px;
        background: #FFF;
        fill: none;
">
        
        
        <svg xmlns="http://www.w3.org/2000/svg" class="role-diagram-draw-area" style="overflow: visible;"><g class="shapes-region" style="stroke: black; fill: none;"><g class="composite-shape"><path class="real" d=" M228.4,67.97 L654.07,186.87 L228.4,186.87 Z" style="stroke-width: 1px; stroke: rgb(0, 0, 0); fill: none; fill-opacity: 1;"/></g><g class="arrow-line"><path class="connection real" stroke-dasharray="" d="  M234.05,197.09 L649.24,197.09" style="stroke: rgb(208, 2, 27); stroke-width: 2px; fill: none; fill-opacity: 1; stroke-opacity: 1;"/><g stroke="none" fill="rgb(208,2,27)" transform="matrix(-1,1.2246467991473532e-16,-1.2246467991473532e-16,-1,653.2419465809668,197.0891910538446)" style="stroke: none; fill: rgb(208, 2, 27); stroke-width: 2px;" fill-opacity="1"><path d=" M11.61,-5.58 L0,0 L11.61,5.58 Z"/></g><g stroke="none" fill="rgb(208,2,27)" transform="matrix(1,0,0,1,230.05127317304925,197.08919105384462)" style="stroke: none; fill: rgb(208, 2, 27); stroke-width: 2px;" fill-opacity="1"><path d=" M11.61,-5.58 L0,0 L11.61,5.58 Z"/></g></g><g class="composite-shape"><path class="real" d=" M611.91,186.87 C611.91,186.87 611.91,186.87 611.91,186.87 C611.91,183.27 612.27,179.77 612.95,176.4 L654.07,186.87 Z" style="stroke-width: 3px; stroke: none; fill: none; fill-opacity: 1; stroke-opacity: 1;"/><path class="real" d=" M611.91,186.87 C611.91,186.87 611.91,186.87 611.91,186.87 C611.91,183.27 612.27,179.77 612.95,176.4" style="stroke-width: 3px; stroke: rgb(208, 2, 27); fill: none; fill-opacity: 1; stroke-opacity: 1;"/></g><g class="arrow-line"><path class="connection real" stroke-dasharray="" d="  M549.56,170.96 C604.93,164.79 555.07,181.88 607.81,182.22" style="stroke: rgb(0, 0, 0); stroke-width: 1px; fill: none; fill-opacity: 1;"/><g stroke="#000" transform="matrix(-1,1.2246467991473532e-16,-1.2246467991473532e-16,-1,609.4350995289752,182.22616701523515)" style="stroke: rgb(0, 0, 0); stroke-width: 1px;"><path d=" M10.93,-3.29 Q4.96,-0.45 0,0 Q4.96,0.45 10.93,3.29"/></g></g><g class="arrow-line"><path class="connection real" stroke-dasharray="" d="  M216,72.9 L216,178.23" style="stroke: rgb(208, 2, 27); stroke-width: 2px; fill: none; fill-opacity: 1; stroke-opacity: 1;"/><g stroke="none" fill="rgb(208,2,27)" transform="matrix(-1.8369701987210297e-16,-1,1,-1.8369701987210297e-16,216.00002034505198,182.2261670152351)" style="stroke: none; fill: rgb(208, 2, 27); stroke-width: 2px;" fill-opacity="1"><path d=" M11.61,-5.58 L0,0 L11.61,5.58 Z"/></g><g stroke="none" fill="rgb(208,2,27)" transform="matrix(6.123233995736766e-17,1,-1,6.123233995736766e-17,216.000020345052,68.8956087208376)" style="stroke: none; fill: rgb(208, 2, 27); stroke-width: 2px;" fill-opacity="1"><path d=" M11.61,-5.58 L0,0 L11.61,5.58 Z"/></g></g><g/></g><g/><g/><g/></svg>
        <svg xmlns="http://www.w3.org/2000/svg" xmlns:xlink="http://www.w3.org/1999/xlink" width="700" height="300" style="width:700px;height:300px;font-family:Asana-Math, Asana;background:#FFF;"><g><g><g><g transform="matrix(1,0,0,1,351.44449869791663,227.16665445963542)"><path transform="matrix(0.018699999999999998,0,0,-0.018699999999999998,0,0)" d="M316 -3C388 -3 437 8 489 34C645 114 741 265 741 431C741 529 711 599 650 642C604 675 519 693 424 692L220 689L210 689C201 689 198 689 97 692L94 664L147 662C171 661 182 653 182 635C182 621 178 589 173 559L86 55C81 31 56 29 33 23L28 -3L121 0L176 0C211 0 282 -3 316 -3ZM384 655C566 655 649 579 649 415C649 225 549 41 329 41C285 41 236 46 168 56C168 68 169 75 172 93L268 650C291 650 349 655 384 655Z" stroke="rgb(0,0,0)" stroke-opacity="1" stroke-width="8" fill="rgb(0,0,0)" fill-opacity="1"></path></g></g><g><g transform="matrix(1,0,0,1,375.2444661458333,227.16665445963542)"><path transform="matrix(0.018699999999999998,0,0,-0.018699999999999998,0,0)" d="M604 347L604 406L65 406L65 347ZM604 134L604 193L65 193L65 134Z" stroke="rgb(0,0,0)" stroke-opacity="1" stroke-width="8" fill="rgb(0,0,0)" fill-opacity="1"></path></g></g><g><g transform="matrix(1,0,0,1,391.3999837239583,227.16665445963542)"><path transform="matrix(0.018699999999999998,0,0,-0.018699999999999998,0,0)" d="M565 -3C637 -3 686 8 738 34C894 114 990 265 990 431C990 529 960 599 899 642C853 675 768 693 673 692L469 689L459 689C450 689 447 689 346 692L343 664L396 662C420 661 431 653 431 635C431 621 427 589 422 559L335 55C330 31 305 29 282 23L277 -3L370 0L425 0C460 0 531 -3 565 -3ZM633 655C815 655 898 579 898 415C898 225 798 41 578 41C534 41 485 46 417 56C417 68 418 75 421 93L517 650C540 650 598 655 633 655ZM1060 388L1067 368L1099 389C1136 412 1139 414 1146 414C1156 414 1164 404 1164 391C1164 384 1160 361 1156 347L1090 107C1082 76 1077 49 1077 30C1077 6 1088 -9 1107 -9C1133 -9 1169 12 1267 85L1257 103L1231 86C1202 67 1179 56 1170 56C1163 56 1157 66 1157 76C1157 86 1159 95 1164 116L1241 420C1245 437 1247 448 1247 456C1247 473 1238 482 1222 482C1200 482 1163 461 1088 408ZM1254 712C1225 712 1196 679 1196 645C1196 620 1211 604 1235 604C1266 604 1290 633 1290 671C1290 695 1275 712 1254 712ZM1334 148C1329 97 1323 62 1312 16C1350 -2 1384 -11 1419 -11C1468 -11 1514 7 1565 47C1616 87 1637 124 1637 174C1637 228 1605 257 1531 271L1488 279C1428 290 1409 307 1409 348C1409 401 1454 442 1511 442C1552 442 1590 424 1606 397L1606 342L1629 342C1633 377 1637 404 1648 455C1609 474 1581 482 1548 482C1496 482 1435 452 1387 404C1361 377 1350 352 1350 316C1350 260 1381 228 1447 215L1510 203C1554 195 1570 177 1570 138C1570 73 1524 29 1453 29C1418 29 1387 40 1359 64L1359 148ZM1816 390L1760 107C1759 99 1747 61 1747 31C1747 6 1758 -9 1777 -9C1812 -9 1847 11 1925 74L1956 99L1946 117L1901 86C1872 66 1852 56 1841 56C1832 56 1827 64 1827 76C1827 102 1841 183 1870 328L1883 390L1990 390L2001 440C1963 436 1929 434 1891 434C1907 528 1918 577 1936 631L1925 646C1905 634 1878 622 1847 610L1822 440C1778 419 1752 408 1734 403L1732 390ZM2294 204L2265 77C2261 60 2259 42 2259 26C2259 4 2268 -9 2283 -9C2306 -9 2347 17 2429 85L2422 106C2398 86 2369 59 2347 59C2338 59 2332 68 2332 82C2332 87 2332 90 2333 93L2425 472L2415 481L2382 463C2341 478 2324 482 2297 482C2269 482 2249 477 2222 464C2160 433 2127 403 2102 354C2058 265 2027 145 2027 67C2027 23 2042 -11 2061 -11C2098 -11 2178 41 2294 204ZM2342 414C2320 305 2301 253 2267 201C2210 117 2149 59 2117 59C2105 59 2099 72 2099 99C2099 163 2127 280 2162 360C2186 415 2209 433 2257 433C2280 433 2298 429 2342 414ZM2490 388L2497 368L2529 389C2566 412 2569 414 2576 414C2587 414 2594 404 2594 389C2594 338 2553 145 2512 2L2519 -9C2544 -2 2567 4 2589 8C2608 134 2629 199 2675 268C2729 352 2804 414 2849 414C2860 414 2866 405 2866 390C2866 372 2863 351 2855 319L2803 107C2794 70 2790 47 2790 31C2790 6 2801 -9 2820 -9C2846 -9 2882 12 2980 85L2970 103L2944 86C2915 67 2893 56 2883 56C2876 56 2870 65 2870 76C2870 81 2871 92 2872 96L2938 372C2945 401 2949 429 2949 446C2949 469 2938 482 2918 482C2876 482 2807 444 2748 389C2710 354 2682 320 2630 247L2668 408C2672 426 2674 438 2674 449C2674 470 2666 482 2651 482C2630 482 2591 460 2518 408ZM3363 330L3386 330C3394 395 3401 432 3410 458C3386 473 3351 482 3314 482C3269 483 3196 463 3139 400C3085 352 3046 241 3046 136C3046 40 3088 -11 3168 -11C3222 -11 3270 9 3325 54L3375 95L3367 115L3352 105C3280 57 3242 40 3207 40C3151 40 3122 80 3122 159C3122 267 3157 371 3206 409C3227 425 3251 433 3282 433C3327 433 3363 414 3363 390ZM3755 111L3731 94C3678 56 3630 36 3594 36C3547 36 3518 73 3518 133C3518 158 3521 185 3526 214C3543 218 3652 248 3677 259C3762 296 3801 342 3801 404C3801 451 3767 482 3717 482C3649 496 3539 423 3502 349C3472 299 3442 180 3442 113C3442 35 3486 -11 3558 -11C3615 -11 3671 17 3763 92ZM3540 274C3557 343 3577 386 3606 412C3624 428 3655 440 3679 440C3708 440 3727 420 3727 388C3727 344 3692 297 3640 272C3612 258 3576 247 3531 237ZM4189 390L4133 107C4132 99 4120 61 4120 31C4120 6 4131 -9 4150 -9C4185 -9 4220 11 4298 74L4329 99L4319 117L4274 86C4245 66 4225 56 4214 56C4205 56 4200 64 4200 76C4200 102 4214 183 4243 328L4256 390L4363 390L4374 440C4336 436 4302 434 4264 434C4280 528 4291 577 4309 631L4298 646C4278 634 4251 622 4220 610L4195 440C4151 419 4125 408 4107 403L4105 390ZM4413 152C4413 46 4458 -11 4541 -11C4596 -11 4656 15 4701 57C4763 116 4807 230 4807 331C4807 425 4757 482 4674 482C4570 482 4413 382 4413 152ZM4637 444C4698 444 4731 399 4731 315C4731 219 4700 113 4656 60C4638 39 4612 27 4581 27C4523 27 4489 72 4489 151C4489 264 4528 387 4577 427C4590 438 4613 444 4637 444ZM5105 152C5105 46 5150 -11 5233 -11C5288 -11 5348 15 5393 57C5455 116 5499 230 5499 331C5499 425 5449 482 5366 482C5262 482 5105 382 5105 152ZM5329 444C5390 444 5423 399 5423 315C5423 219 5392 113 5348 60C5330 39 5304 27 5273 27C5215 27 5181 72 5181 151C5181 264 5220 387 5269 427C5282 438 5305 444 5329 444ZM5766 722L5754 733C5702 707 5666 698 5594 691L5590 670L5638 670C5662 670 5672 663 5672 646C5672 639 5671 628 5670 622L5569 71C5568 68 5568 64 5568 61C5568 22 5616 -11 5671 -11C5708 -11 5759 8 5802 39C5898 107 5964 244 5964 376C5964 414 5955 453 5943 468C5936 477 5923 482 5908 482C5884 482 5854 474 5826 460C5775 433 5742 403 5680 324ZM5853 424C5879 424 5892 401 5892 352C5892 288 5871 202 5841 137C5808 68 5768 36 5714 36C5668 36 5643 59 5643 101C5643 135 5658 276 5739 361C5772 395 5824 424 5853 424ZM6187 351L6087 -144C6076 -196 6058 -231 6040 -231C6026 -231 6008 -225 5987 -212L5979 -269C5989 -274 6002 -276 6017 -276C6057 -276 6097 -233 6133 -152C6153 -107 6167 -57 6195 70L6271 420C6275 438 6277 451 6277 457C6277 473 6268 482 6252 482C6230 482 6193 461 6118 408L6090 388L6097 368L6129 389C6166 412 6169 414 6176 414C6186 414 6194 404 6194 391C6194 382 6187 356 6187 351ZM6278 712C6249 712 6220 679 6220 645C6220 620 6235 604 6259 604C6290 604 6314 633 6314 671C6314 695 6299 712 6278 712ZM6648 111L6624 94C6571 56 6523 36 6487 36C6440 36 6411 73 6411 133C6411 158 6414 185 6419 214C6436 218 6545 248 6570 259C6655 296 6694 342 6694 404C6694 451 6660 482 6610 482C6542 496 6432 423 6395 349C6365 299 6335 180 6335 113C6335 35 6379 -11 6451 -11C6508 -11 6564 17 6656 92ZM6433 274C6450 343 6470 386 6499 412C6517 428 6548 440 6572 440C6601 440 6620 420 6620 388C6620 344 6585 297 6533 272C6505 258 6469 247 6424 237ZM7050 330L7073 330C7081 395 7088 432 7097 458C7073 473 7038 482 7001 482C6956 483 6883 463 6826 400C6772 352 6733 241 6733 136C6733 40 6775 -11 6855 -11C6909 -11 6957 9 7012 54L7062 95L7054 115L7039 105C6967 57 6929 40 6894 40C6838 40 6809 80 6809 159C6809 267 6844 371 6893 409C6914 425 6938 433 6969 433C7014 433 7050 414 7050 390ZM7239 390L7183 107C7182 99 7170 61 7170 31C7170 6 7181 -9 7200 -9C7235 -9 7270 11 7348 74L7379 99L7369 117L7324 86C7295 66 7275 56 7264 56C7255 56 7250 64 7250 76C7250 102 7264 183 7293 328L7306 390L7413 390L7424 440C7386 436 7352 434 7314 434C7330 528 7341 577 7359 631L7348 646C7328 634 7301 622 7270 610L7245 440C7201 419 7175 408 7157 403L7155 390Z" stroke="rgb(0,0,0)" stroke-opacity="1" stroke-width="8" fill="rgb(0,0,0)" fill-opacity="1"></path></g></g></g><g></g></g><g transform="matrix(0.9978130200723071,0.06609975018244577,-0.06609975018244577,0.9978130200723071,12.521864303035272,-29.90796915775607)"><g><g><g transform="matrix(1,0,0,1,374.86669921875,171.43331705729167)"><path transform="matrix(0.018699999999999998,0,0,-0.018699999999999998,0,0)" d="M237 -16C473 -16 572 316 576 504C578 618 546 702 419 702C159 702 72 412 69 199C67 80 101 -16 237 -16ZM401 676C536 676 506 491 485 381L169 381C194 485 272 676 401 676ZM253 13C102 13 147 261 163 349L479 349C454 237 396 13 253 13Z" stroke="rgb(0,0,0)" stroke-opacity="1" stroke-width="8" fill="rgb(0,0,0)" fill-opacity="1"></path></g></g><g><g transform="matrix(1,0,0,1,396.64444986979163,171.43331705729167)"><path transform="matrix(0.018699999999999998,0,0,-0.018699999999999998,0,0)" d="M604 347L604 406L65 406L65 347ZM604 134L604 193L65 193L65 134Z" stroke="rgb(0,0,0)" stroke-opacity="1" stroke-width="8" fill="rgb(0,0,0)" fill-opacity="1"></path></g></g><g><g transform="matrix(1,0,0,1,412.800048828125,171.43331705729167)"><path transform="matrix(0.018699999999999998,0,0,-0.018699999999999998,0,0)" d="M354 664L409 662C433 661 444 653 444 635L361 125C344 34 343 31 303 28L262 25L258 -3L300 -2C341 -1 372 0 390 0C407 0 436 -1 476 -2L529 -3L532 25L467 28C441 29 431 37 431 58C431 67 432 74 435 93L533 648C569 654 585 656 604 656C706 656 755 612 755 519C755 411 683 323 595 323C573 323 553 328 516 342L518 311C555 293 575 288 604 288C733 288 843 405 843 541C843 642 780 695 661 692L357 692ZM1130 204L1101 77C1097 60 1095 42 1095 26C1095 4 1104 -9 1119 -9C1142 -9 1183 17 1265 85L1258 106C1234 86 1205 59 1183 59C1174 59 1168 68 1168 82C1168 87 1168 90 1169 93L1261 472L1251 481L1218 463C1177 478 1160 482 1133 482C1105 482 1085 477 1058 464C996 433 963 403 938 354C894 265 863 145 863 67C863 23 878 -11 897 -11C934 -11 1014 41 1130 204ZM1178 414C1156 305 1137 253 1103 201C1046 117 985 59 953 59C941 59 935 72 935 99C935 163 963 280 998 360C1022 415 1045 433 1093 433C1116 433 1134 429 1178 414ZM1670 365C1673 403 1678 435 1686 476C1675 481 1671 482 1666 482C1635 482 1604 458 1568 407C1529 351 1490 291 1474 256L1506 408C1510 425 1512 438 1512 450C1512 470 1504 482 1489 482C1468 482 1430 461 1356 408L1328 388L1335 368L1367 389C1395 407 1406 412 1415 412C1425 412 1432 403 1432 390C1432 332 1389 126 1349 -2L1359 -9C1374 -4 1390 -1 1413 4L1426 6L1452 126C1470 209 1493 262 1537 319C1571 363 1598 384 1620 384C1635 384 1645 379 1656 365ZM1961 204L1932 77C1928 60 1926 42 1926 26C1926 4 1935 -9 1950 -9C1973 -9 2014 17 2096 85L2089 106C2065 86 2036 59 2014 59C2005 59 1999 68 1999 82C1999 87 1999 90 2000 93L2092 472L2082 481L2049 463C2008 478 1991 482 1964 482C1936 482 1916 477 1889 464C1827 433 1794 403 1769 354C1725 265 1694 145 1694 67C1694 23 1709 -11 1728 -11C1765 -11 1845 41 1961 204ZM2009 414C1987 305 1968 253 1934 201C1877 117 1816 59 1784 59C1772 59 1766 72 1766 99C1766 163 1794 280 1829 360C1853 415 1876 433 1924 433C1947 433 1965 429 2009 414ZM2384 722L2372 733C2320 707 2284 698 2212 691L2208 670L2256 670C2280 670 2290 663 2290 648C2290 645 2290 640 2287 622C2276 567 2203 182 2188 132C2175 82 2169 52 2169 31C2169 6 2180 -9 2199 -9C2225 -9 2261 12 2359 85L2349 103L2323 86C2294 67 2272 56 2262 56C2255 56 2249 66 2249 76C2249 82 2250 89 2253 104ZM2661 722L2649 733C2597 707 2561 698 2489 691L2485 670L2533 670C2557 670 2567 663 2567 648C2567 645 2567 640 2564 622C2553 567 2480 182 2465 132C2452 82 2446 52 2446 31C2446 6 2457 -9 2476 -9C2502 -9 2538 12 2636 85L2626 103L2600 86C2571 67 2549 56 2539 56C2532 56 2526 66 2526 76C2526 82 2527 89 2530 104ZM2958 204L2929 77C2925 60 2923 42 2923 26C2923 4 2932 -9 2947 -9C2970 -9 3011 17 3093 85L3086 106C3062 86 3033 59 3011 59C3002 59 2996 68 2996 82C2996 87 2996 90 2997 93L3089 472L3079 481L3046 463C3005 478 2988 482 2961 482C2933 482 2913 477 2886 464C2824 433 2791 403 2766 354C2722 265 2691 145 2691 67C2691 23 2706 -11 2725 -11C2762 -11 2842 41 2958 204ZM3006 414C2984 305 2965 253 2931 201C2874 117 2813 59 2781 59C2769 59 2763 72 2763 99C2763 163 2791 280 2826 360C2850 415 2873 433 2921 433C2944 433 2962 429 3006 414ZM3472 330L3495 330C3503 395 3510 432 3519 458C3495 473 3460 482 3423 482C3378 483 3305 463 3248 400C3194 352 3155 241 3155 136C3155 40 3197 -11 3277 -11C3331 -11 3379 9 3434 54L3484 95L3476 115L3461 105C3389 57 3351 40 3316 40C3260 40 3231 80 3231 159C3231 267 3266 371 3315 409C3336 425 3360 433 3391 433C3436 433 3472 414 3472 390ZM3661 390L3605 107C3604 99 3592 61 3592 31C3592 6 3603 -9 3622 -9C3657 -9 3692 11 3770 74L3801 99L3791 117L3746 86C3717 66 3697 56 3686 56C3677 56 3672 64 3672 76C3672 102 3686 183 3715 328L3728 390L3835 390L3846 440C3808 436 3774 434 3736 434C3752 528 3763 577 3781 631L3770 646C3750 634 3723 622 3692 610L3667 440C3623 419 3597 408 3579 403L3577 390ZM3902 388L3909 368L3941 389C3978 412 3981 414 3988 414C3998 414 4006 404 4006 391C4006 384 4002 361 3998 347L3932 107C3924 76 3919 49 3919 30C3919 6 3930 -9 3949 -9C3975 -9 4011 12 4109 85L4099 103L4073 86C4044 67 4021 56 4012 56C4005 56 3999 66 3999 76C3999 86 4001 95 4006 116L4083 420C4087 437 4089 448 4089 456C4089 473 4080 482 4064 482C4042 482 4005 461 3930 408ZM4096 712C4067 712 4038 679 4038 645C4038 620 4053 604 4077 604C4108 604 4132 633 4132 671C4132 695 4117 712 4096 712ZM4487 330L4510 330C4518 395 4525 432 4534 458C4510 473 4475 482 4438 482C4393 483 4320 463 4263 400C4209 352 4170 241 4170 136C4170 40 4212 -11 4292 -11C4346 -11 4394 9 4449 54L4499 95L4491 115L4476 105C4404 57 4366 40 4331 40C4275 40 4246 80 4246 159C4246 267 4281 371 4330 409C4351 425 4375 433 4406 433C4451 433 4487 414 4487 390ZM5071 204L5042 77C5038 60 5036 42 5036 26C5036 4 5045 -9 5060 -9C5083 -9 5124 17 5206 85L5199 106C5175 86 5146 59 5124 59C5115 59 5109 68 5109 82C5109 87 5109 90 5110 93L5202 472L5192 481L5159 463C5118 478 5101 482 5074 482C5046 482 5026 477 4999 464C4937 433 4904 403 4879 354C4835 265 4804 145 4804 67C4804 23 4819 -11 4838 -11C4875 -11 4955 41 5071 204ZM5119 414C5097 305 5078 253 5044 201C4987 117 4926 59 4894 59C4882 59 4876 72 4876 99C4876 163 4904 280 4939 360C4963 415 4986 433 5034 433C5057 433 5075 429 5119 414ZM5267 388L5274 368L5306 389C5343 412 5346 414 5353 414C5364 414 5371 404 5371 389C5371 338 5330 145 5289 2L5296 -9C5321 -2 5344 4 5366 8C5385 134 5406 199 5452 268C5506 352 5581 414 5626 414C5637 414 5643 405 5643 390C5643 372 5640 351 5632 319L5580 107C5571 70 5567 47 5567 31C5567 6 5578 -9 5597 -9C5623 -9 5659 12 5757 85L5747 103L5721 86C5692 67 5670 56 5660 56C5653 56 5647 65 5647 76C5647 81 5648 92 5649 96L5715 372C5722 401 5726 429 5726 446C5726 469 5715 482 5695 482C5653 482 5584 444 5525 389C5487 354 5459 320 5407 247L5445 408C5449 426 5451 438 5451 449C5451 470 5443 482 5428 482C5407 482 5368 460 5295 408ZM6073 482C6006 482 5853 419 5853 259C5853 182 5898 136 5975 136C5983 136 5994 136 6005 137L5964 99C5948 84 5937 66 5937 52C5937 42 5944 31 5958 19C5889 -4 5761 -48 5761 -159C5761 -230 5831 -276 5940 -276C6069 -276 6182 -204 6182 -121C6182 -85 6161 -49 6118 -14L6058 35C6024 62 6011 81 6011 100C6011 114 6026 128 6038 146C6136 170 6207 253 6207 342C6207 357 6204 376 6203 380C6220 378 6228 378 6237 378C6254 378 6264 379 6287 382L6296 427L6293 433C6265 426 6245 424 6191 424C6191 425 6167 482 6073 482ZM5974 1L6051 -58C6097 -94 6116 -121 6116 -154C6116 -206 6047 -248 5964 -248C5882 -248 5825 -206 5825 -145C5825 -43 5935 -11 5974 1ZM6048 448C6106 448 6135 412 6135 341C6135 238 6087 168 6017 168C5956 168 5924 209 5924 288C5924 383 5975 448 6048 448ZM6548 722L6536 733C6484 707 6448 698 6376 691L6372 670L6420 670C6444 670 6454 663 6454 648C6454 645 6454 640 6451 622C6440 567 6367 182 6352 132C6339 82 6333 52 6333 31C6333 6 6344 -9 6363 -9C6389 -9 6425 12 6523 85L6513 103L6487 86C6458 67 6436 56 6426 56C6419 56 6413 66 6413 76C6413 82 6414 89 6417 104ZM6902 111L6878 94C6825 56 6777 36 6741 36C6694 36 6665 73 6665 133C6665 158 6668 185 6673 214C6690 218 6799 248 6824 259C6909 296 6948 342 6948 404C6948 451 6914 482 6864 482C6796 496 6686 423 6649 349C6619 299 6589 180 6589 113C6589 35 6633 -11 6705 -11C6762 -11 6818 17 6910 92ZM6687 274C6704 343 6724 386 6753 412C6771 428 6802 440 6826 440C6855 440 6874 420 6874 388C6874 344 6839 297 6787 272C6759 258 6723 247 6678 237Z" stroke="rgb(0,0,0)" stroke-opacity="1" stroke-width="8" fill="rgb(0,0,0)" fill-opacity="1"></path></g></g></g><g></g></g><g transform="matrix(0.9999990252244151,0.0013962629479142763,-0.0013962629479142763,0.9999990252244151,0.1813480633900184,-0.1619485904256237)"><g><g><g transform="matrix(1,0,0,1,29.622233072916668,115.74443359375)"><path transform="matrix(0.018699999999999998,0,0,-0.018699999999999998,0,0)" d="M483 722L471 733C419 707 383 698 311 691L307 670L355 670C379 670 389 663 389 646C389 638 388 629 387 622L359 468C329 477 302 482 277 482C208 482 114 410 68 323C37 265 17 170 17 86C17 21 32 -11 61 -11C88 -11 125 6 159 33C213 77 246 116 313 217L290 126C279 82 274 50 274 24C274 3 283 -9 300 -9C317 -9 341 3 375 28L456 88L446 107L402 76C388 66 372 59 363 59C355 59 349 68 349 82C349 90 350 99 357 128ZM114 59C98 59 89 73 89 98C89 224 135 380 184 418C197 428 216 433 243 433C287 433 316 427 349 410L337 351C300 171 159 59 114 59Z" stroke="rgb(0,0,0)" stroke-opacity="1" stroke-width="8" fill="rgb(0,0,0)" fill-opacity="1"></path></g></g><g><g transform="matrix(1,0,0,1,49.26668294270833,115.74443359375)"><path transform="matrix(0.018699999999999998,0,0,-0.018699999999999998,0,0)" d="M604 347L604 406L65 406L65 347ZM604 134L604 193L65 193L65 134Z" stroke="rgb(0,0,0)" stroke-opacity="1" stroke-width="8" fill="rgb(0,0,0)" fill-opacity="1"></path></g></g><g><g transform="matrix(1,0,0,1,65.44449869791666,115.74443359375)"><path transform="matrix(0.018699999999999998,0,0,-0.018699999999999998,0,0)" d="M565 -3C637 -3 686 8 738 34C894 114 990 265 990 431C990 529 960 599 899 642C853 675 768 693 673 692L469 689L459 689C450 689 447 689 346 692L343 664L396 662C420 661 431 653 431 635C431 621 427 589 422 559L335 55C330 31 305 29 282 23L277 -3L370 0L425 0C460 0 531 -3 565 -3ZM633 655C815 655 898 579 898 415C898 225 798 41 578 41C534 41 485 46 417 56C417 68 418 75 421 93L517 650C540 650 598 655 633 655ZM1060 388L1067 368L1099 389C1136 412 1139 414 1146 414C1156 414 1164 404 1164 391C1164 384 1160 361 1156 347L1090 107C1082 76 1077 49 1077 30C1077 6 1088 -9 1107 -9C1133 -9 1169 12 1267 85L1257 103L1231 86C1202 67 1179 56 1170 56C1163 56 1157 66 1157 76C1157 86 1159 95 1164 116L1241 420C1245 437 1247 448 1247 456C1247 473 1238 482 1222 482C1200 482 1163 461 1088 408ZM1254 712C1225 712 1196 679 1196 645C1196 620 1211 604 1235 604C1266 604 1290 633 1290 671C1290 695 1275 712 1254 712ZM1334 148C1329 97 1323 62 1312 16C1350 -2 1384 -11 1419 -11C1468 -11 1514 7 1565 47C1616 87 1637 124 1637 174C1637 228 1605 257 1531 271L1488 279C1428 290 1409 307 1409 348C1409 401 1454 442 1511 442C1552 442 1590 424 1606 397L1606 342L1629 342C1633 377 1637 404 1648 455C1609 474 1581 482 1548 482C1496 482 1435 452 1387 404C1361 377 1350 352 1350 316C1350 260 1381 228 1447 215L1510 203C1554 195 1570 177 1570 138C1570 73 1524 29 1453 29C1418 29 1387 40 1359 64L1359 148ZM1816 390L1760 107C1759 99 1747 61 1747 31C1747 6 1758 -9 1777 -9C1812 -9 1847 11 1925 74L1956 99L1946 117L1901 86C1872 66 1852 56 1841 56C1832 56 1827 64 1827 76C1827 102 1841 183 1870 328L1883 390L1990 390L2001 440C1963 436 1929 434 1891 434C1907 528 1918 577 1936 631L1925 646C1905 634 1878 622 1847 610L1822 440C1778 419 1752 408 1734 403L1732 390ZM2294 204L2265 77C2261 60 2259 42 2259 26C2259 4 2268 -9 2283 -9C2306 -9 2347 17 2429 85L2422 106C2398 86 2369 59 2347 59C2338 59 2332 68 2332 82C2332 87 2332 90 2333 93L2425 472L2415 481L2382 463C2341 478 2324 482 2297 482C2269 482 2249 477 2222 464C2160 433 2127 403 2102 354C2058 265 2027 145 2027 67C2027 23 2042 -11 2061 -11C2098 -11 2178 41 2294 204ZM2342 414C2320 305 2301 253 2267 201C2210 117 2149 59 2117 59C2105 59 2099 72 2099 99C2099 163 2127 280 2162 360C2186 415 2209 433 2257 433C2280 433 2298 429 2342 414ZM2490 388L2497 368L2529 389C2566 412 2569 414 2576 414C2587 414 2594 404 2594 389C2594 338 2553 145 2512 2L2519 -9C2544 -2 2567 4 2589 8C2608 134 2629 199 2675 268C2729 352 2804 414 2849 414C2860 414 2866 405 2866 390C2866 372 2863 351 2855 319L2803 107C2794 70 2790 47 2790 31C2790 6 2801 -9 2820 -9C2846 -9 2882 12 2980 85L2970 103L2944 86C2915 67 2893 56 2883 56C2876 56 2870 65 2870 76C2870 81 2871 92 2872 96L2938 372C2945 401 2949 429 2949 446C2949 469 2938 482 2918 482C2876 482 2807 444 2748 389C2710 354 2682 320 2630 247L2668 408C2672 426 2674 438 2674 449C2674 470 2666 482 2651 482C2630 482 2591 460 2518 408ZM3363 330L3386 330C3394 395 3401 432 3410 458C3386 473 3351 482 3314 482C3269 483 3196 463 3139 400C3085 352 3046 241 3046 136C3046 40 3088 -11 3168 -11C3222 -11 3270 9 3325 54L3375 95L3367 115L3352 105C3280 57 3242 40 3207 40C3151 40 3122 80 3122 159C3122 267 3157 371 3206 409C3227 425 3251 433 3282 433C3327 433 3363 414 3363 390ZM3755 111L3731 94C3678 56 3630 36 3594 36C3547 36 3518 73 3518 133C3518 158 3521 185 3526 214C3543 218 3652 248 3677 259C3762 296 3801 342 3801 404C3801 451 3767 482 3717 482C3649 496 3539 423 3502 349C3472 299 3442 180 3442 113C3442 35 3486 -11 3558 -11C3615 -11 3671 17 3763 92ZM3540 274C3557 343 3577 386 3606 412C3624 428 3655 440 3679 440C3708 440 3727 420 3727 388C3727 344 3692 297 3640 272C3612 258 3576 247 3531 237ZM4299 722L4287 733C4235 707 4199 698 4127 691L4123 670L4171 670C4195 670 4205 663 4205 646C4205 639 4204 628 4203 622L4102 71C4101 68 4101 64 4101 61C4101 22 4149 -11 4204 -11C4241 -11 4292 8 4335 39C4431 107 4497 244 4497 376C4497 414 4488 453 4476 468C4469 477 4456 482 4441 482C4417 482 4387 474 4359 460C4308 433 4275 403 4213 324ZM4386 424C4412 424 4425 401 4425 352C4425 288 4404 202 4374 137C4341 68 4301 36 4247 36C4201 36 4176 59 4176 101C4176 135 4191 276 4272 361C4305 395 4357 424 4386 424ZM4854 111L4830 94C4777 56 4729 36 4693 36C4646 36 4617 73 4617 133C4617 158 4620 185 4625 214C4642 218 4751 248 4776 259C4861 296 4900 342 4900 404C4900 451 4866 482 4816 482C4748 496 4638 423 4601 349C4571 299 4541 180 4541 113C4541 35 4585 -11 4657 -11C4714 -11 4770 17 4862 92ZM4639 274C4656 343 4676 386 4705 412C4723 428 4754 440 4778 440C4807 440 4826 420 4826 388C4826 344 4791 297 4739 272C4711 258 4675 247 4630 237ZM5039 390L4983 107C4982 99 4970 61 4970 31C4970 6 4981 -9 5000 -9C5035 -9 5070 11 5148 74L5179 99L5169 117L5124 86C5095 66 5075 56 5064 56C5055 56 5050 64 5050 76C5050 102 5064 183 5093 328L5106 390L5213 390L5224 440C5186 436 5152 434 5114 434C5130 528 5141 577 5159 631L5148 646C5128 634 5101 622 5070 610L5045 440C5001 419 4975 408 4957 403L4955 390ZM5413 420C5434 420 5447 421 5472 424C5417 350 5318 266 5318 126C5318 44 5353 -11 5406 -11C5470 -11 5522 44 5596 187C5587 143 5584 118 5584 95C5584 32 5613 -11 5658 -11C5792 -11 5945 238 5945 384C5945 441 5919 482 5883 482C5870 482 5858 478 5850 470L5800 423L5811 404C5820 410 5829 413 5838 413C5865 413 5881 390 5881 350C5881 205 5784 39 5699 39C5670 39 5649 79 5649 134C5649 181 5658 247 5670 290L5722 474L5715 482L5641 460L5612 311C5600 249 5586 209 5557 155C5517 80 5479 39 5449 39C5414 39 5391 78 5391 136C5391 255 5432 352 5531 464L5521 482C5501 473 5488 470 5460 470C5432 470 5390 472 5361 475L5349 476C5343 477 5338 477 5337 477C5325 477 5316 475 5305 470C5291 443 5280 407 5267 352L5289 352L5306 394C5313 411 5333 422 5357 422C5391 422 5374 420 5413 420ZM6295 111L6271 94C6218 56 6170 36 6134 36C6087 36 6058 73 6058 133C6058 158 6061 185 6066 214C6083 218 6192 248 6217 259C6302 296 6341 342 6341 404C6341 451 6307 482 6257 482C6189 496 6079 423 6042 349C6012 299 5982 180 5982 113C5982 35 6026 -11 6098 -11C6155 -11 6211 17 6303 92ZM6080 274C6097 343 6117 386 6146 412C6164 428 6195 440 6219 440C6248 440 6267 420 6267 388C6267 344 6232 297 6180 272C6152 258 6116 247 6071 237ZM6683 111L6659 94C6606 56 6558 36 6522 36C6475 36 6446 73 6446 133C6446 158 6449 185 6454 214C6471 218 6580 248 6605 259C6690 296 6729 342 6729 404C6729 451 6695 482 6645 482C6577 496 6467 423 6430 349C6400 299 6370 180 6370 113C6370 35 6414 -11 6486 -11C6543 -11 6599 17 6691 92ZM6468 274C6485 343 6505 386 6534 412C6552 428 6583 440 6607 440C6636 440 6655 420 6655 388C6655 344 6620 297 6568 272C6540 258 6504 247 6459 237ZM6767 388L6774 368L6806 389C6843 412 6846 414 6853 414C6864 414 6871 404 6871 389C6871 338 6830 145 6789 2L6796 -9C6821 -2 6844 4 6866 8C6885 134 6906 199 6952 268C7006 352 7081 414 7126 414C7137 414 7143 405 7143 390C7143 372 7140 351 7132 319L7080 107C7071 70 7067 47 7067 31C7067 6 7078 -9 7097 -9C7123 -9 7159 12 7257 85L7247 103L7221 86C7192 67 7170 56 7160 56C7153 56 7147 65 7147 76C7147 81 7148 92 7149 96L7215 372C7222 401 7226 429 7226 446C7226 469 7215 482 7195 482C7153 482 7084 444 7025 389C6987 354 6959 320 6907 247L6945 408C6949 426 6951 438 6951 449C6951 470 6943 482 6928 482C6907 482 6868 460 6795 408Z" stroke="rgb(0,0,0)" stroke-opacity="1" stroke-width="8" fill="rgb(0,0,0)" fill-opacity="1"></path></g></g></g><g><g><g transform="matrix(1,0,0,1,29.622233072916668,138.16665445963542)"><path transform="matrix(0.018699999999999998,0,0,-0.018699999999999998,0,0)" d="M979 103L953 86C924 67 902 56 892 56C885 56 879 65 879 76C879 86 881 95 886 116L961 413C965 430 968 446 968 454C968 471 958 482 942 482C913 482 875 464 814 421C751 376 716 341 667 272L697 409C701 429 704 444 704 451C704 470 694 482 678 482C648 482 602 460 547 418C503 384 483 363 418 275L451 408C455 424 457 439 457 451C457 470 448 482 434 482C413 482 375 461 301 408L273 388L280 368C317 391 352 414 359 414C370 414 377 404 377 389C377 338 336 145 295 2L298 -9L366 6L388 108C412 219 439 278 494 338C536 384 581 414 609 414C616 414 620 406 620 393C620 358 598 244 557 69L541 2L546 -9L615 6L636 113C652 194 686 269 730 318C785 379 835 414 867 414C875 414 880 405 880 389C880 365 877 351 855 264C815 105 799 84 799 31C799 6 810 -9 829 -9C855 -9 891 12 989 85ZM1354 111L1330 94C1277 56 1229 36 1193 36C1146 36 1117 73 1117 133C1117 158 1120 185 1125 214C1142 218 1251 248 1276 259C1361 296 1400 342 1400 404C1400 451 1366 482 1316 482C1248 496 1138 423 1101 349C1071 299 1041 180 1041 113C1041 35 1085 -11 1157 -11C1214 -11 1270 17 1362 92ZM1139 274C1156 343 1176 386 1205 412C1223 428 1254 440 1278 440C1307 440 1326 420 1326 388C1326 344 1291 297 1239 272C1211 258 1175 247 1130 237ZM1685 204L1656 77C1652 60 1650 42 1650 26C1650 4 1659 -9 1674 -9C1697 -9 1738 17 1820 85L1813 106C1789 86 1760 59 1738 59C1729 59 1723 68 1723 82C1723 87 1723 90 1724 93L1816 472L1806 481L1773 463C1732 478 1715 482 1688 482C1660 482 1640 477 1613 464C1551 433 1518 403 1493 354C1449 265 1418 145 1418 67C1418 23 1433 -11 1452 -11C1489 -11 1569 41 1685 204ZM1733 414C1711 305 1692 253 1658 201C1601 117 1540 59 1508 59C1496 59 1490 72 1490 99C1490 163 1518 280 1553 360C1577 415 1600 433 1648 433C1671 433 1689 429 1733 414ZM1888 148C1883 97 1877 62 1866 16C1904 -2 1938 -11 1973 -11C2022 -11 2068 7 2119 47C2170 87 2191 124 2191 174C2191 228 2159 257 2085 271L2042 279C1982 290 1963 307 1963 348C1963 401 2008 442 2065 442C2106 442 2144 424 2160 397L2160 342L2183 342C2187 377 2191 404 2202 455C2163 474 2135 482 2102 482C2050 482 1989 452 1941 404C1915 377 1904 352 1904 316C1904 260 1935 228 2001 215L2064 203C2108 195 2124 177 2124 138C2124 73 2078 29 2007 29C1972 29 1941 40 1913 64L1913 148ZM2737 473L2730 482L2662 465L2652 414C2637 336 2612 268 2581 221C2522 130 2444 59 2404 59C2396 59 2391 68 2391 85C2391 99 2393 112 2398 137L2455 408C2458 424 2460 438 2460 451C2460 470 2451 482 2437 482C2417 482 2379 461 2305 408L2277 388L2284 368L2316 389C2344 407 2355 412 2364 412C2373 412 2381 403 2381 392C2381 388 2380 378 2379 374L2316 77C2314 68 2312 44 2312 30C2312 7 2327 -11 2347 -11C2410 -11 2531 101 2615 239L2578 97C2571 73 2567 46 2567 31C2567 6 2578 -9 2597 -9C2623 -9 2659 12 2757 85L2747 103L2721 86C2697 70 2671 59 2660 59C2652 59 2647 66 2647 76C2647 112 2722 416 2737 473ZM3168 365C3171 403 3176 435 3184 476C3173 481 3169 482 3164 482C3133 482 3102 458 3066 407C3027 351 2988 291 2972 256L3004 408C3008 425 3010 438 3010 450C3010 470 3002 482 2987 482C2966 482 2928 461 2854 408L2826 388L2833 368L2865 389C2893 407 2904 412 2913 412C2923 412 2930 403 2930 390C2930 332 2887 126 2847 -2L2857 -9C2872 -4 2888 -1 2911 4L2924 6L2950 126C2968 209 2991 262 3035 319C3069 363 3096 384 3118 384C3133 384 3143 379 3154 365ZM3516 111L3492 94C3439 56 3391 36 3355 36C3308 36 3279 73 3279 133C3279 158 3282 185 3287 214C3304 218 3413 248 3438 259C3523 296 3562 342 3562 404C3562 451 3528 482 3478 482C3410 496 3300 423 3263 349C3233 299 3203 180 3203 113C3203 35 3247 -11 3319 -11C3376 -11 3432 17 3524 92ZM3301 274C3318 343 3338 386 3367 412C3385 428 3416 440 3440 440C3469 440 3488 420 3488 388C3488 344 3453 297 3401 272C3373 258 3337 247 3292 237ZM4306 103L4280 86C4251 67 4229 56 4219 56C4212 56 4206 65 4206 76C4206 86 4208 95 4213 116L4288 413C4292 430 4295 446 4295 454C4295 471 4285 482 4269 482C4240 482 4202 464 4141 421C4078 376 4043 341 3994 272L4024 409C4028 429 4031 444 4031 451C4031 470 4021 482 4005 482C3975 482 3929 460 3874 418C3830 384 3810 363 3745 275L3778 408C3782 424 3784 439 3784 451C3784 470 3775 482 3761 482C3740 482 3702 461 3628 408L3600 388L3607 368C3644 391 3679 414 3686 414C3697 414 3704 404 3704 389C3704 338 3663 145 3622 2L3625 -9L3693 6L3715 108C3739 219 3766 278 3821 338C3863 384 3908 414 3936 414C3943 414 3947 406 3947 393C3947 358 3925 244 3884 69L3868 2L3873 -9L3942 6L3963 113C3979 194 4013 269 4057 318C4112 379 4162 414 4194 414C4202 414 4207 405 4207 389C4207 365 4204 351 4182 264C4142 105 4126 84 4126 31C4126 6 4137 -9 4156 -9C4182 -9 4218 12 4316 85ZM4681 111L4657 94C4604 56 4556 36 4520 36C4473 36 4444 73 4444 133C4444 158 4447 185 4452 214C4469 218 4578 248 4603 259C4688 296 4727 342 4727 404C4727 451 4693 482 4643 482C4575 496 4465 423 4428 349C4398 299 4368 180 4368 113C4368 35 4412 -11 4484 -11C4541 -11 4597 17 4689 92ZM4466 274C4483 343 4503 386 4532 412C4550 428 4581 440 4605 440C4634 440 4653 420 4653 388C4653 344 4618 297 4566 272C4538 258 4502 247 4457 237ZM4765 388L4772 368L4804 389C4841 412 4844 414 4851 414C4862 414 4869 404 4869 389C4869 338 4828 145 4787 2L4794 -9C4819 -2 4842 4 4864 8C4883 134 4904 199 4950 268C5004 352 5079 414 5124 414C5135 414 5141 405 5141 390C5141 372 5138 351 5130 319L5078 107C5069 70 5065 47 5065 31C5065 6 5076 -9 5095 -9C5121 -9 5157 12 5255 85L5245 103L5219 86C5190 67 5168 56 5158 56C5151 56 5145 65 5145 76C5145 81 5146 92 5147 96L5213 372C5220 401 5224 429 5224 446C5224 469 5213 482 5193 482C5151 482 5082 444 5023 389C4985 354 4957 320 4905 247L4943 408C4947 426 4949 438 4949 449C4949 470 4941 482 4926 482C4905 482 4866 460 4793 408ZM5421 390L5365 107C5364 99 5352 61 5352 31C5352 6 5363 -9 5382 -9C5417 -9 5452 11 5530 74L5561 99L5551 117L5506 86C5477 66 5457 56 5446 56C5437 56 5432 64 5432 76C5432 102 5446 183 5475 328L5488 390L5595 390L5606 440C5568 436 5534 434 5496 434C5512 528 5523 577 5541 631L5530 646C5510 634 5483 622 5452 610L5427 440C5383 419 5357 408 5339 403L5337 390ZM5659 148C5654 97 5648 62 5637 16C5675 -2 5709 -11 5744 -11C5793 -11 5839 7 5890 47C5941 87 5962 124 5962 174C5962 228 5930 257 5856 271L5813 279C5753 290 5734 307 5734 348C5734 401 5779 442 5836 442C5877 442 5915 424 5931 397L5931 342L5954 342C5958 377 5962 404 5973 455C5934 474 5906 482 5873 482C5821 482 5760 452 5712 404C5686 377 5675 352 5675 316C5675 260 5706 228 5772 215L5835 203C5879 195 5895 177 5895 138C5895 73 5849 29 5778 29C5743 29 5712 40 5684 64L5684 148ZM6531 152C6531 46 6576 -11 6659 -11C6714 -11 6774 15 6819 57C6881 116 6925 230 6925 331C6925 425 6875 482 6792 482C6688 482 6531 382 6531 152ZM6755 444C6816 444 6849 399 6849 315C6849 219 6818 113 6774 60C6756 39 6730 27 6699 27C6641 27 6607 72 6607 151C6607 264 6646 387 6695 427C6708 438 6731 444 6755 444ZM7325 365C7328 403 7333 435 7341 476C7330 481 7326 482 7321 482C7290 482 7259 458 7223 407C7184 351 7145 291 7129 256L7161 408C7165 425 7167 438 7167 450C7167 470 7159 482 7144 482C7123 482 7085 461 7011 408L6983 388L6990 368L7022 389C7050 407 7061 412 7070 412C7080 412 7087 403 7087 390C7087 332 7044 126 7004 -2L7014 -9C7029 -4 7045 -1 7068 4L7081 6L7107 126C7125 209 7148 262 7192 319C7226 363 7253 384 7275 384C7290 384 7300 379 7311 365ZM7625 148C7620 97 7614 62 7603 16C7641 -2 7675 -11 7710 -11C7759 -11 7805 7 7856 47C7907 87 7928 124 7928 174C7928 228 7896 257 7822 271L7779 279C7719 290 7700 307 7700 348C7700 401 7745 442 7802 442C7843 442 7881 424 7897 397L7897 342L7920 342C7924 377 7928 404 7939 455C7900 474 7872 482 7839 482C7787 482 7726 452 7678 404C7652 377 7641 352 7641 316C7641 260 7672 228 7738 215L7801 203C7845 195 7861 177 7861 138C7861 73 7815 29 7744 29C7709 29 7678 40 7650 64L7650 148ZM8016 388L8023 368L8055 389C8092 412 8095 414 8102 414C8112 414 8120 404 8120 391C8120 384 8116 361 8112 347L8046 107C8038 76 8033 49 8033 30C8033 6 8044 -9 8063 -9C8089 -9 8125 12 8223 85L8213 103L8187 86C8158 67 8135 56 8126 56C8119 56 8113 66 8113 76C8113 86 8115 95 8120 116L8197 420C8201 437 8203 448 8203 456C8203 473 8194 482 8178 482C8156 482 8119 461 8044 408ZM8210 712C8181 712 8152 679 8152 645C8152 620 8167 604 8191 604C8222 604 8246 633 8246 671C8246 695 8231 712 8210 712ZM8581 -11C8593 -11 8602 -9 8631 -1C8642 61 8650 95 8661 142L8639 142L8617 82C8611 64 8599 57 8578 57C8566 57 8550 59 8529 64L8511 68C8478 75 8444 80 8425 80C8393 80 8366 74 8330 59L8669 441L8675 473L8666 482L8643 459C8633 449 8623 445 8609 445C8575 445 8523 453 8475 466L8457 471C8429 478 8409 482 8395 482C8378 482 8358 479 8334 472L8302 350L8323 350L8353 408C8370 412 8379 413 8392 413C8433 413 8465 398 8518 398C8554 398 8578 404 8611 421L8258 21L8267 -6C8296 17 8323 26 8358 26C8421 26 8512 -11 8581 -11ZM9030 111L9006 94C8953 56 8905 36 8869 36C8822 36 8793 73 8793 133C8793 158 8796 185 8801 214C8818 218 8927 248 8952 259C9037 296 9076 342 9076 404C9076 451 9042 482 8992 482C8924 496 8814 423 8777 349C8747 299 8717 180 8717 113C8717 35 8761 -11 8833 -11C8890 -11 8946 17 9038 92ZM8815 274C8832 343 8852 386 8881 412C8899 428 8930 440 8954 440C8983 440 9002 420 9002 388C9002 344 8967 297 8915 272C8887 258 8851 247 8806 237Z" stroke="rgb(0,0,0)" stroke-opacity="1" stroke-width="8" fill="rgb(0,0,0)" fill-opacity="1"></path></g></g></g><g><g><g transform="matrix(1,0,0,1,29.622233072916668,160.61109212239583)"><path transform="matrix(0.018699999999999998,0,0,-0.018699999999999998,0,0)" d="M266 152C266 46 311 -11 394 -11C449 -11 509 15 554 57C616 116 660 230 660 331C660 425 610 482 527 482C423 482 266 382 266 152ZM490 444C551 444 584 399 584 315C584 219 553 113 509 60C491 39 465 27 434 27C376 27 342 72 342 151C342 264 381 387 430 427C443 438 466 444 490 444ZM1037 437L1021 437L1042 549C1058 635 1086 673 1132 673C1162 673 1189 658 1204 634L1214 638C1219 654 1229 685 1237 705L1242 720C1226 727 1195 733 1172 733C1161 733 1145 730 1137 726C1113 715 1031 654 1008 630C986 608 974 578 963 521L948 442C907 422 887 414 862 405L857 383L938 383L929 327C899 132 862 -54 840 -123C822 -182 792 -213 756 -213C733 -213 722 -206 704 -184L690 -188C686 -211 672 -259 667 -268C676 -273 691 -276 702 -276C743 -276 797 -245 836 -198C907 -114 927 -18 1011 383L1115 383C1119 402 1126 425 1132 439L1128 446C1099 439 1100 437 1037 437ZM1508 152C1508 46 1553 -11 1636 -11C1691 -11 1751 15 1796 57C1858 116 1902 230 1902 331C1902 425 1852 482 1769 482C1665 482 1508 382 1508 152ZM1732 444C1793 444 1826 399 1826 315C1826 219 1795 113 1751 60C1733 39 1707 27 1676 27C1618 27 1584 72 1584 151C1584 264 1623 387 1672 427C1685 438 1708 444 1732 444ZM2169 722L2157 733C2105 707 2069 698 1997 691L1993 670L2041 670C2065 670 2075 663 2075 646C2075 639 2074 628 2073 622L1972 71C1971 68 1971 64 1971 61C1971 22 2019 -11 2074 -11C2111 -11 2162 8 2205 39C2301 107 2367 244 2367 376C2367 414 2358 453 2346 468C2339 477 2326 482 2311 482C2287 482 2257 474 2229 460C2178 433 2145 403 2083 324ZM2256 424C2282 424 2295 401 2295 352C2295 288 2274 202 2244 137C2211 68 2171 36 2117 36C2071 36 2046 59 2046 101C2046 135 2061 276 2142 361C2175 395 2227 424 2256 424ZM2590 351L2490 -144C2479 -196 2461 -231 2443 -231C2429 -231 2411 -225 2390 -212L2382 -269C2392 -274 2405 -276 2420 -276C2460 -276 2500 -233 2536 -152C2556 -107 2570 -57 2598 70L2674 420C2678 438 2680 451 2680 457C2680 473 2671 482 2655 482C2633 482 2596 461 2521 408L2493 388L2500 368L2532 389C2569 412 2572 414 2579 414C2589 414 2597 404 2597 391C2597 382 2590 356 2590 351ZM2681 712C2652 712 2623 679 2623 645C2623 620 2638 604 2662 604C2693 604 2717 633 2717 671C2717 695 2702 712 2681 712ZM3051 111L3027 94C2974 56 2926 36 2890 36C2843 36 2814 73 2814 133C2814 158 2817 185 2822 214C2839 218 2948 248 2973 259C3058 296 3097 342 3097 404C3097 451 3063 482 3013 482C2945 496 2835 423 2798 349C2768 299 2738 180 2738 113C2738 35 2782 -11 2854 -11C2911 -11 2967 17 3059 92ZM2836 274C2853 343 2873 386 2902 412C2920 428 2951 440 2975 440C3004 440 3023 420 3023 388C3023 344 2988 297 2936 272C2908 258 2872 247 2827 237ZM3453 330L3476 330C3484 395 3491 432 3500 458C3476 473 3441 482 3404 482C3359 483 3286 463 3229 400C3175 352 3136 241 3136 136C3136 40 3178 -11 3258 -11C3312 -11 3360 9 3415 54L3465 95L3457 115L3442 105C3370 57 3332 40 3297 40C3241 40 3212 80 3212 159C3212 267 3247 371 3296 409C3317 425 3341 433 3372 433C3417 433 3453 414 3453 390ZM3642 390L3586 107C3585 99 3573 61 3573 31C3573 6 3584 -9 3603 -9C3638 -9 3673 11 3751 74L3782 99L3772 117L3727 86C3698 66 3678 56 3667 56C3658 56 3653 64 3653 76C3653 102 3667 183 3696 328L3709 390L3816 390L3827 440C3789 436 3755 434 3717 434C3733 528 3744 577 3762 631L3751 646C3731 634 3704 622 3673 610L3648 440C3604 419 3578 408 3560 403L3558 390Z" stroke="rgb(0,0,0)" stroke-opacity="1" stroke-width="8" fill="rgb(0,0,0)" fill-opacity="1"></path></g></g></g></g></svg>
</svg>
