<svg xmlns="http://www.w3.org/2000/svg" xmlns:xlink="http://www.w3.org/1999/xlink" x="0" y="0" width="661.3333740234375" height="284.6666564941406" style="
        width:661.3333740234375px;
        height:284.6666564941406px;
        background: #FFF;
        fill: none;
">
        
        
        <svg xmlns="http://www.w3.org/2000/svg" class="role-diagram-draw-area"><g class="shapes-region" style="stroke: black; fill: none;"><g class="arrow-line"><path class="connection real" stroke-dasharray="" d="  M74.33,119.28 L381.9,123.89" style="stroke: rgb(0, 0, 0); stroke-width: 1px; fill: none; fill-opacity: 1;"/></g><g class="composite-shape"><defs><!-- react-text: 10445 --> <!-- /react-text --><radialGradient id="_pgf6yy3imhza" gradientTransform="matrix(1.28, 0, 0, 1.28, -0.14, -0.14)" cx="0.43" cy="0.38" fx="0.43" fy="0.38"><!-- react-text: 10447 --> <!-- /react-text --><stop offset="0" style="stop-color: rgb(153, 218, 255); stop-opacity: 1;"/><stop offset="0.39" style="stop-color: rgb(126, 211, 33); stop-opacity: 1;"/><stop offset="0.71" style="stop-color: rgb(33, 170, 211); stop-opacity: 1;"/><stop offset="0.95" style="stop-color: rgb(126, 211, 33); stop-opacity: 1;"/></radialGradient></defs><path class="real" d=" M66.64,41.43 C66.64,36.79 70.61,33.02 75.51,33.02 C80.41,33.02 84.39,36.79 84.39,41.43 C84.39,46.08 80.41,49.85 75.51,49.85 C70.61,49.85 66.64,46.08 66.64,41.43 Z" style="stroke-width: 1px; stroke: rgb(0, 0, 0); fill: url(&quot;#_pgf6yy3imhza&quot;); fill-opacity: 1;"/></g><g class="composite-shape"><defs><!-- react-text: 10456 --> <!-- /react-text --><radialGradient id="_pgfing07htct" gradientTransform="matrix(1.28, 0, 0, 1.28, -0.14, -0.14)" cx="0.43" cy="0.38" fx="0.43" fy="0.38"><!-- react-text: 10458 --> <!-- /react-text --><stop offset="0" style="stop-color: rgb(153, 218, 255); stop-opacity: 1;"/><stop offset="0.39" style="stop-color: rgb(126, 211, 33); stop-opacity: 1;"/><stop offset="0.71" style="stop-color: rgb(33, 170, 211); stop-opacity: 1;"/><stop offset="0.95" style="stop-color: rgb(126, 211, 33); stop-opacity: 1;"/></radialGradient></defs><path class="real" d=" M66.64,199.61 C66.64,194.96 70.61,191.2 75.51,191.2 C80.41,191.2 84.39,194.96 84.39,199.61 C84.39,204.26 80.41,208.02 75.51,208.02 C70.61,208.02 66.64,204.26 66.64,199.61 Z" style="stroke-width: 1px; stroke: rgb(0, 0, 0); fill: url(&quot;#_pgfing07htct&quot;); fill-opacity: 1;"/></g><g class="arrow-line"><path class="connection real" stroke-dasharray="" d="  M75.51,41.43 L549.24,169.01" style="stroke: rgb(0, 0, 0); stroke-width: 1px; fill: none; fill-opacity: 1;"/></g><g class="arrow-line"><path class="connection real" stroke-dasharray="" d="  M554.33,82.06 L75.51,199.61" style="stroke: rgb(0, 0, 0); stroke-width: 1px; fill: none; fill-opacity: 1;"/></g><g class="composite-shape"><path class="real" d=" M381.9,120.52 L382.94,122.52 L385.28,122.85 L383.59,124.41 L383.99,126.61 L381.9,125.57 L379.81,126.61 L380.21,124.41 L378.52,122.85 L380.86,122.52 Z" style="stroke-width: 1px; stroke: rgb(0, 0, 0); fill: rgb(255, 65, 65); fill-opacity: 1;"/></g><g class="composite-shape"><path class="real" d=" M552.43,31 L555.18,36.48 L561.32,37.36 L556.88,41.63 L557.93,47.66 L552.43,44.82 L546.94,47.66 L547.99,41.63 L543.54,37.36 L549.68,36.48 Z" style="stroke-width: 1px; stroke: rgb(0, 0, 0); fill: rgb(255, 255, 255); fill-opacity: 1;"/></g><g class="composite-shape"><path class="real" d=" M566.63,44.46 L569.38,49.95 L575.52,50.83 L571.08,55.09 L572.13,61.12 L566.63,58.28 L561.14,61.12 L562.19,55.09 L557.74,50.83 L563.89,49.95 Z" style="stroke-width: 1px; stroke: rgb(0, 0, 0); fill: rgb(255, 255, 255); fill-opacity: 1;"/></g><g class="composite-shape"><path class="real" d=" M587.94,39.75 L590.68,45.23 L596.83,46.11 L592.38,50.38 L593.43,56.41 L587.94,53.57 L582.44,56.41 L583.49,50.38 L579.04,46.11 L585.19,45.23 Z" style="stroke-width: 1px; stroke: rgb(0, 0, 0); fill: rgb(255, 255, 255); fill-opacity: 1;"/></g><g class="composite-shape"><path class="real" d=" M561.66,66.67 L564.41,72.16 L570.55,73.04 L566.11,77.31 L567.16,83.33 L561.66,80.49 L556.17,83.33 L557.22,77.31 L552.77,73.04 L558.92,72.16 Z" style="stroke-width: 1px; stroke: rgb(0, 0, 0); fill: rgb(255, 255, 255); fill-opacity: 1;"/></g><g class="composite-shape"><path class="real" d=" M591.49,88.89 L594.23,94.37 L600.38,95.25 L595.93,99.52 L596.98,105.55 L591.49,102.7 L585.99,105.55 L587.04,99.52 L582.59,95.25 L588.74,94.37 Z" style="stroke-width: 1px; stroke: rgb(0, 0, 0); fill: rgb(255, 255, 255); fill-opacity: 1;"/></g><g class="composite-shape"><path class="real" d=" M537.28,55.9 L540.03,61.39 L546.18,62.27 L541.73,66.54 L542.78,72.57 L537.28,69.72 L531.79,72.57 L532.84,66.54 L528.39,62.27 L534.54,61.39 Z" style="stroke-width: 1px; stroke: rgb(0, 0, 0); fill: rgb(255, 255, 255); fill-opacity: 1;"/></g><g class="composite-shape"><path class="real" d=" M569.95,150.81 L572.69,156.29 L578.84,157.17 L574.39,161.44 L575.44,167.47 L569.95,164.62 L564.45,167.47 L565.5,161.44 L561.06,157.17 L567.2,156.29 Z" style="stroke-width: 1px; stroke: rgb(0, 0, 0); fill: rgb(255, 255, 255); fill-opacity: 1;"/></g><g class="composite-shape"><path class="real" d=" M619.65,158.89 L622.4,164.37 L628.54,165.25 L624.1,169.52 L625.15,175.55 L619.65,172.7 L614.16,175.55 L615.21,169.52 L610.76,165.25 L616.9,164.37 Z" style="stroke-width: 1px; stroke: rgb(0, 0, 0); fill: rgb(255, 255, 255); fill-opacity: 1;"/></g><g class="composite-shape"><path class="real" d=" M610.42,135.33 L613.17,140.81 L619.31,141.69 L614.87,145.96 L615.92,151.99 L610.42,149.14 L604.92,151.99 L605.97,145.96 L601.53,141.69 L607.67,140.81 Z" style="stroke-width: 1px; stroke: rgb(0, 0, 0); fill: rgb(255, 255, 255); fill-opacity: 1;"/></g><g class="composite-shape"><path class="real" d=" M582.02,196.58 L584.77,202.06 L590.91,202.94 L586.46,207.21 L587.51,213.24 L582.02,210.39 L576.52,213.24 L577.57,207.21 L573.13,202.94 L579.27,202.06 Z" style="stroke-width: 1px; stroke: rgb(0, 0, 0); fill: rgb(255, 255, 255); fill-opacity: 1;"/></g><g class="composite-shape"><path class="real" d=" M593.38,163.6 L596.13,169.08 L602.27,169.96 L597.82,174.23 L598.87,180.26 L593.38,177.41 L587.88,180.26 L588.93,174.23 L584.49,169.96 L590.63,169.08 Z" style="stroke-width: 1px; stroke: rgb(0, 0, 0); fill: rgb(255, 255, 255); fill-opacity: 1;"/></g><g class="composite-shape"><path class="real" d=" M554.8,175.71 L557.55,181.2 L563.69,182.08 L559.24,186.35 L560.29,192.38 L554.8,189.53 L549.3,192.38 L550.35,186.35 L545.91,182.08 L552.05,181.2 Z" style="stroke-width: 1px; stroke: rgb(0, 0, 0); fill: rgb(255, 255, 255); fill-opacity: 1;"/></g><g class="composite-shape"><path class="real" d=" M74.33,94.27 L76.14,106.87 L81.54,95.06 L79.66,107.65 L88.3,97.36 L82.85,109.16 L94.18,101.05 L85.5,111.31 L98.81,105.88 L87.44,113.96 L101.9,111.55 L88.57,116.94 L103.26,117.71 L88.8,120.07 L102.81,123.97 L88.11,123.15 L100.56,129.93 L86.57,125.98 L96.67,135.22 L84.25,128.4 L91.37,139.52 L81.31,130.24 L85,142.54 L77.93,131.39 L77.96,144.09 L74.33,131.79 L70.69,144.09 L70.72,131.39 L63.65,142.54 L67.34,130.24 L57.29,139.52 L64.4,128.4 L51.99,135.22 L62.09,125.98 L48.09,129.93 L60.54,123.15 L45.85,123.97 L59.86,120.07 L45.39,117.71 L60.09,116.94 L46.75,111.55 L61.21,113.96 L49.85,105.88 L63.16,111.31 L54.48,101.05 L65.81,109.16 L60.36,97.36 L68.99,107.65 L67.12,95.06 L72.51,106.87 Z" style="stroke-width: 1px; stroke: rgb(0, 0, 0); fill: rgb(255, 211, 43); fill-opacity: 1;"/></g><g class="composite-shape"><path class="real" d=" M333.06,136.23 C331.96,132.29 331.37,128.15 331.37,123.89 C331.37,119.02 332.13,114.32 333.56,109.89 L381.9,123.89 Z" style="stroke-width: 2px; stroke: none; stroke-opacity: 1; fill: none; fill-opacity: 1;"/><path class="real" d=" M333.06,136.23 C331.96,132.29 331.37,128.15 331.37,123.89 C331.37,119.02 332.13,114.32 333.56,109.89" style="stroke-width: 2px; stroke: rgb(249, 23, 23); stroke-opacity: 1; fill: none; fill-opacity: 1;"/></g><g/></g><g/><g/><g/></svg>
        <svg xmlns="http://www.w3.org/2000/svg" xmlns:xlink="http://www.w3.org/1999/xlink" width="660" height="283.3333435058594" style="width:660px;height:283.3333435058594px;font-family:Asana-Math, Asana;background:#FFF;"><g><g><g><g transform="matrix(1,0,0,1,126.316650390625,118.53333740234375)"><path transform="matrix(0.0238,0,0,-0.0238,0,0)" d="M316 -3C388 -3 437 8 489 34C645 114 741 265 741 431C741 529 711 599 650 642C604 675 519 693 424 692L220 689L210 689C201 689 198 689 97 692L94 664L147 662C171 661 182 653 182 635C182 621 178 589 173 559L86 55C81 31 56 29 33 23L28 -3L121 0L176 0C211 0 282 -3 316 -3ZM384 655C566 655 649 579 649 415C649 225 549 41 329 41C285 41 236 46 168 56C168 68 169 75 172 93L268 650C291 650 349 655 384 655Z" stroke="rgb(0,0,0)" stroke-opacity="1" stroke-width="8" fill="rgb(0,0,0)" fill-opacity="1"></path></g></g></g></g><g><g><g><g transform="matrix(1,0,0,1,302.8499755859375,118.84333435058593)"><path transform="matrix(0.01666,0,0,-0.01666,0,0)" d="M176 -11C232 -11 347 62 390 125C431 186 465 296 465 371C465 438 442 482 406 482C364 482 311 456 259 409C218 374 198 348 162 289L186 408C189 425 191 440 191 452C191 471 183 482 169 482C148 482 110 461 36 408L8 388L15 368L47 389C75 407 86 412 95 412C105 412 112 403 112 389C112 381 110 361 108 351L50 8C40 -52 21 -143 1 -233L-7 -270L0 -276C21 -269 41 -264 73 -259L115 3C136 -4 158 -11 176 -11ZM143 165C165 293 272 424 355 424C381 424 393 402 393 356C393 275 353 156 300 80C280 51 248 36 207 36C176 36 151 43 125 59Z" stroke="rgb(0,0,0)" stroke-opacity="1" stroke-width="8" fill="rgb(0,0,0)" fill-opacity="1"></path></g></g></g><g></g></g><g><g><g><g transform="matrix(1,0,0,1,302.13330078125,136.34333435058593)"><path transform="matrix(0.01666,0,0,-0.01666,0,0)" d="M176 -11C232 -11 347 62 390 125C431 186 465 296 465 371C465 438 442 482 406 482C364 482 311 456 259 409C218 374 198 348 162 289L186 408C189 425 191 440 191 452C191 471 183 482 169 482C148 482 110 461 36 408L8 388L15 368L47 389C75 407 86 412 95 412C105 412 112 403 112 389C112 381 110 361 108 351L50 8C40 -52 21 -143 1 -233L-7 -270L0 -276C21 -269 41 -264 73 -259L115 3C136 -4 158 -11 176 -11ZM143 165C165 293 272 424 355 424C381 424 393 402 393 356C393 275 353 156 300 80C280 51 248 36 207 36C176 36 151 43 125 59Z" stroke="rgb(0,0,0)" stroke-opacity="1" stroke-width="8" fill="rgb(0,0,0)" fill-opacity="1"></path></g></g></g><g></g></g></svg>
</svg>
