<svg xmlns="http://www.w3.org/2000/svg" xmlns:xlink="http://www.w3.org/1999/xlink" x="0" y="0" width="701.3333129882812" height="301.3333435058594" style="
        width:701.3333129882812px;
        height:301.3333435058594px;
        background: #FFF;
        fill: none;
">
        
        
        <svg xmlns="http://www.w3.org/2000/svg" class="role-diagram-draw-area" style="overflow: visible;"><g class="shapes-region" style="stroke: black; fill: none;"><g class="composite-shape"><path class="real" d=" M101,257 L110.5,257 L110.5,266.5 L101,266.5 Z" style="stroke-width: 1px; stroke: rgb(0, 0, 0); fill: none; fill-opacity: 1;"/></g><g class="composite-shape"><path class="real" d=" M125.12,69.05 C121.92,71.55 118.28,73.49 114.26,74.74 C109.65,76.17 104.92,76.56 100.29,76.04 L101,32 Z" style="stroke-width: 1px; stroke: none; stroke-opacity: 1; fill: none; fill-opacity: 1;"/><path class="real" d=" M125.12,69.05 C121.92,71.55 118.28,73.49 114.26,74.74 C109.65,76.17 104.92,76.56 100.29,76.04" style="stroke-width: 1px; stroke: rgb(78, 78, 78); stroke-opacity: 1; fill: none; fill-opacity: 1;"/></g><g class="composite-shape"><path class="real" d=" M101,32 L241.33,266.5 L101,266.5 Z" style="stroke-width: 3px; stroke: rgb(0, 0, 0); fill: none; fill-opacity: 1;"/></g><g class="arrow-line"><path class="connection real" stroke-dasharray="" d="  M107,266.5 L241.33,266.5" style="stroke: rgb(67, 177, 230); stroke-opacity: 1; stroke-width: 4px; fill: none; fill-opacity: 1;"/><g stroke="none" fill="rgb(67,177,230)" fill-opacity="1" transform="matrix(1,0,0,1,101,266.5)" style="stroke: none; fill: rgb(67, 177, 230); stroke-width: 4px;"><path d=" M18.75,-9.01 L0,0 L18.75,9.01 L12.45,0 Z"/></g></g><g class="arrow-line"><path class="connection real" stroke-dasharray="" d="  M101,266.5 L101.33,31.5" style="stroke: rgb(230, 67, 71); stroke-opacity: 1; stroke-width: 4px; fill: none; fill-opacity: 1;"/><g stroke="none" fill="rgb(230,67,71)" fill-opacity="1" transform="matrix(-0.001396262947912995,0.9999990252244151,-0.9999990252244151,-0.001396262947912995,101.33331298828125,25.5)" style="stroke: none; fill: rgb(230, 67, 71); stroke-width: 4px;"><path d=" M18.75,-9.01 L0,0 L18.75,9.01 L12.45,0 Z"/></g></g><g class="arrow-line"><path class="connection real" stroke-dasharray="" d="  M241.33,266.5 L103.05,35.43" style="stroke: rgb(0, 0, 0); stroke-width: 2px; fill: none; fill-opacity: 1;"/><g stroke="none" fill="#000" transform="matrix(0.5135412520581698,0.8580649057236448,-0.8580649057236448,0.5135412520581698,101,32)" style="stroke: none; fill: rgb(0, 0, 0); stroke-width: 2px;"><path d=" M13.4,-6.43 L0,0 L13.4,6.44 L8.9,0 Z"/></g></g><g/></g><g/><g/><g/></svg>
        <svg xmlns="http://www.w3.org/2000/svg" xmlns:xlink="http://www.w3.org/1999/xlink" width="700" height="300" style="width:700px;height:300px;font-family:Asana-Math, Asana;background:#FFF;"><g><g><g><g transform="matrix(1,0,0,1,108.6666259765625,88.53334045410156)"><path transform="matrix(0.017,0,0,-0.017,0,0)" d="M237 -16C473 -16 572 316 576 504C578 618 546 702 419 702C159 702 72 412 69 199C67 80 101 -16 237 -16ZM401 676C536 676 506 491 485 381L169 381C194 485 272 676 401 676ZM253 13C102 13 147 261 163 349L479 349C454 237 396 13 253 13Z" stroke="rgb(0,0,0)" stroke-opacity="1" stroke-width="8" fill="rgb(0,0,0)" fill-opacity="1"></path></g></g></g></g><g><g><g><g><g><g><g transform="matrix(1,0,0,1,175.6666259765625,145.96668701171876)"><path transform="matrix(0.015300000000000001,0,0,-0.015300000000000001,0,0)" d="M166 420C187 420 203 421 229 424C118 304 76 221 76 121C76 44 122 -11 186 -11C324 -11 477 236 477 384C477 441 451 482 415 482C402 482 390 478 382 470L332 423L343 404C352 410 361 413 370 413C397 413 413 390 413 350C413 202 316 39 228 39C179 39 148 81 148 146C148 251 187 342 285 464L275 482C255 473 242 470 214 470C186 470 144 472 115 475L103 476C97 477 92 477 91 477C79 477 70 475 59 470C45 443 34 407 21 352L43 352L60 394C67 411 87 422 111 422C144 422 128 420 166 420Z" stroke="rgb(0,0,0)" stroke-opacity="1" stroke-width="8" fill="rgb(0,0,0)" fill-opacity="1"></path></g></g></g></g><svg x="175.6666259765625" overflow="visible" y="128.66668701171875" height="9" width="8.416671752929688"><path d=" M 8.42 4.37 l -2.84 -2.99 l -0.44 0.47 l 1.74 2.09 h -0.14 v 0.81 h 0.14 l -1.74 2.09 l 0.44 0.47 z  M 1.51 4.71 h 6.49 v -0.81 h -6.49 z" style="fill:rgb(0,0,0);fill-opacity:1;stroke-width:1px;stroke:none;stroke-opacity:1;"></path></svg></g><g><g transform="matrix(1,0,0,1,183.316650390625,145.81666259765626)"><path transform="matrix(0.015300000000000001,0,0,-0.015300000000000001,0,0)" d="" stroke="rgb(0,0,0)" stroke-opacity="1" stroke-width="8" fill="rgb(0,0,0)" fill-opacity="1"></path></g></g><g><g transform="matrix(1,0,0,1,191.71661376953125,145.81666259765626)"><path transform="matrix(0.015300000000000001,0,0,-0.015300000000000001,0,0)" d="M604 347L604 406L65 406L65 347ZM604 134L604 193L65 193L65 134Z" stroke="rgb(0,0,0)" stroke-opacity="1" stroke-width="8" fill="rgb(0,0,0)" fill-opacity="1"></path></g></g><g><g transform="matrix(1,0,0,1,206.51666259765625,145.81666259765626)"><path transform="matrix(0.015300000000000001,0,0,-0.015300000000000001,0,0)" d="M711 224C711 345 604 366 557 374C637 436 667 482 667 541C667 630 593 689 482 689C414 689 369 670 321 622L292 498L323 498L341 554C352 588 415 622 467 622C532 622 585 569 585 506C585 431 526 368 455 368C447 368 436 369 423 370L408 371L396 318L403 312C441 329 460 334 487 334C570 334 618 281 618 190C618 88 557 21 464 21C418 21 377 36 347 64C323 86 310 109 291 163L264 153C285 92 293 56 299 6C352 -12 396 -20 433 -20C556 -20 711 87 711 224ZM879 331C900 512 989 611 1169 665L1127 689C1031 657 990 637 939 593C836 506 780 384 780 247C780 82 860 -20 989 -20C1119 -20 1216 83 1216 219C1216 334 1147 409 1041 409C964 409 932 370 879 331ZM1003 349C1079 349 1130 283 1130 184C1130 80 1079 13 1002 13C917 13 871 86 871 220C871 255 875 274 886 291C908 325 955 349 1003 349ZM1371 111C1341 111 1314 83 1314 53C1314 23 1341 -5 1370 -5C1402 -5 1430 22 1430 53C1430 83 1402 111 1371 111ZM1759 689C1604 689 1525 566 1525 324C1525 207 1546 106 1581 57C1616 8 1672 -20 1734 -20C1885 -20 1961 110 1961 366C1961 585 1896 689 1759 689ZM1741 654C1838 654 1877 556 1877 316C1877 103 1839 15 1747 15C1650 15 1609 116 1609 360C1609 571 1646 654 1741 654ZM2454 253C2454 366 2373 446 2259 446C2211 446 2175 443 2122 396L2122 605L2427 604L2427 689L2070 690L2070 322L2090 316C2137 363 2164 377 2213 377C2309 377 2369 309 2369 201C2369 90 2305 25 2196 25C2142 25 2092 43 2078 69L2032 151L2008 137C2031 80 2043 48 2057 4C2085 -11 2125 -20 2168 -20C2296 -20 2454 89 2454 253ZM2625 331C2646 512 2735 611 2915 665L2873 689C2777 657 2736 637 2685 593C2582 506 2526 384 2526 247C2526 82 2606 -20 2735 -20C2865 -20 2962 83 2962 219C2962 334 2893 409 2787 409C2710 409 2678 370 2625 331ZM2749 349C2825 349 2876 283 2876 184C2876 80 2825 13 2748 13C2663 13 2617 86 2617 220C2617 255 2621 274 2632 291C2654 325 2701 349 2749 349ZM3482 722L3470 733C3418 707 3382 698 3310 691L3306 670L3354 670C3378 670 3388 663 3388 646C3388 638 3387 629 3386 622L3338 354C3324 279 3308 210 3256 1L3265 -9L3332 8L3355 132C3364 180 3388 225 3422 259C3491 59 3523 -9 3548 -9C3561 -9 3585 4 3629 35L3675 67L3667 86L3624 62C3610 54 3603 52 3595 52C3585 52 3578 58 3569 75C3534 139 3512 193 3473 316L3487 330C3548 391 3594 416 3644 416C3652 416 3663 414 3680 410L3697 473C3679 479 3661 482 3649 482C3583 482 3500 405 3375 230ZM4440 103L4414 86C4385 67 4363 56 4353 56C4346 56 4340 65 4340 76C4340 86 4342 95 4347 116L4422 413C4426 430 4429 446 4429 454C4429 471 4419 482 4403 482C4374 482 4336 464 4275 421C4212 376 4177 341 4128 272L4158 409C4162 429 4165 444 4165 451C4165 470 4155 482 4139 482C4109 482 4063 460 4008 418C3964 384 3944 363 3879 275L3912 408C3916 424 3918 439 3918 451C3918 470 3909 482 3895 482C3874 482 3836 461 3762 408L3734 388L3741 368C3778 391 3813 414 3820 414C3831 414 3838 404 3838 389C3838 338 3797 145 3756 2L3759 -9L3827 6L3849 108C3873 219 3900 278 3955 338C3997 384 4042 414 4070 414C4077 414 4081 406 4081 393C4081 358 4059 244 4018 69L4002 2L4007 -9L4076 6L4097 113C4113 194 4147 269 4191 318C4246 379 4296 414 4328 414C4336 414 4341 405 4341 389C4341 365 4338 351 4316 264C4276 105 4260 84 4260 31C4260 6 4271 -9 4290 -9C4316 -9 4352 12 4450 85Z" stroke="rgb(0,0,0)" stroke-opacity="1" stroke-width="8" fill="rgb(0,0,0)" fill-opacity="1"></path></g></g><g><g transform="matrix(1,0,0,1,278.25,145.81666259765626)"><path transform="matrix(0.015300000000000001,0,0,-0.015300000000000001,0,0)" d="M297 714L242 714L-37 -169L18 -169Z" stroke="rgb(0,0,0)" stroke-opacity="1" stroke-width="8" fill="rgb(0,0,0)" fill-opacity="1"></path></g></g><g><g transform="matrix(1,0,0,1,285.70001220703125,145.81666259765626)"><path transform="matrix(0.015300000000000001,0,0,-0.015300000000000001,0,0)" d="M31 148C26 97 20 62 9 16C47 -2 81 -11 116 -11C165 -11 211 7 262 47C313 87 334 124 334 174C334 228 302 257 228 271L185 279C125 290 106 307 106 348C106 401 151 442 208 442C249 442 287 424 303 397L303 342L326 342C330 377 334 404 345 455C306 474 278 482 245 482C193 482 132 452 84 404C58 377 47 352 47 316C47 260 78 228 144 215L207 203C251 195 267 177 267 138C267 73 221 29 150 29C115 29 84 40 56 64L56 148Z" stroke="rgb(0,0,0)" stroke-opacity="1" stroke-width="8" fill="rgb(0,0,0)" fill-opacity="1"></path></g></g></g></g><g><g><g><g><g><g><g transform="matrix(1,0,0,1,80.6666259765625,169.5333251953125)"><path transform="matrix(0.017,0,0,-0.017,0,0)" d="M166 420C187 420 203 421 229 424C118 304 76 221 76 121C76 44 122 -11 186 -11C324 -11 477 236 477 384C477 441 451 482 415 482C402 482 390 478 382 470L332 423L343 404C352 410 361 413 370 413C397 413 413 390 413 350C413 202 316 39 228 39C179 39 148 81 148 146C148 251 187 342 285 464L275 482C255 473 242 470 214 470C186 470 144 472 115 475L103 476C97 477 92 477 91 477C79 477 70 475 59 470C45 443 34 407 21 352L43 352L60 394C67 411 87 422 111 422C144 422 128 420 166 420Z" stroke="rgb(0,0,0)" stroke-opacity="1" stroke-width="8" fill="rgb(0,0,0)" fill-opacity="1"></path></g></g><g><g><g><g><g transform="matrix(1,0,0,1,89.6666259765625,172.66666259765626)"><path transform="matrix(0.0119,0,0,-0.0119,0,0)" d="M368 365C371 403 376 435 384 476C373 481 369 482 364 482C333 482 302 458 266 407C227 351 188 291 172 256L204 408C208 425 210 438 210 450C210 470 202 482 187 482C166 482 128 461 54 408L26 388L33 368L65 389C93 407 104 412 113 412C123 412 130 403 130 390C130 332 87 126 47 -2L57 -9C72 -4 88 -1 111 4L124 6L150 126C168 209 191 262 235 319C269 363 296 384 318 384C333 384 343 379 354 365Z" stroke="rgb(0,0,0)" stroke-opacity="1" stroke-width="8" fill="rgb(0,0,0)" fill-opacity="1"></path></g></g></g></g></g></g></g><svg x="80.6666259765625" overflow="visible" y="146.66668701171875" height="10" width="15.48333740234375"><path d=" M 15.48 5.39 l -3.50 -3.69 l -0.54 0.58 l 2.14 2.58 h -0.17 v 1.00 h 0.17 l -2.14 2.58 l 0.54 0.58 z  M 1.87 5.81 h 13.10 v -1.00 h -13.10 z" style="fill:rgb(0,0,0);fill-opacity:1;stroke-width:1px;stroke:none;stroke-opacity:1;"></path></svg></g></g></g><g><g><g><g><g><g><g transform="matrix(1,0,0,1,159.6666259765625,293.5333251953125)"><path transform="matrix(0.017,0,0,-0.017,0,0)" d="M166 420C187 420 203 421 229 424C118 304 76 221 76 121C76 44 122 -11 186 -11C324 -11 477 236 477 384C477 441 451 482 415 482C402 482 390 478 382 470L332 423L343 404C352 410 361 413 370 413C397 413 413 390 413 350C413 202 316 39 228 39C179 39 148 81 148 146C148 251 187 342 285 464L275 482C255 473 242 470 214 470C186 470 144 472 115 475L103 476C97 477 92 477 91 477C79 477 70 475 59 470C45 443 34 407 21 352L43 352L60 394C67 411 87 422 111 422C144 422 128 420 166 420Z" stroke="rgb(0,0,0)" stroke-opacity="1" stroke-width="8" fill="rgb(0,0,0)" fill-opacity="1"></path></g></g><g><g><g><g><g transform="matrix(1,0,0,1,168.6666259765625,296.6666625976562)"><path transform="matrix(0.0119,0,0,-0.0119,0,0)" d="M125 390L69 107C68 99 56 61 56 31C56 6 67 -9 86 -9C121 -9 156 11 234 74L265 99L255 117L210 86C181 66 161 56 150 56C141 56 136 64 136 76C136 102 150 183 179 328L192 390L299 390L310 440C272 436 238 434 200 434C216 528 227 577 245 631L234 646C214 634 187 622 156 610L131 440C87 419 61 408 43 403L41 390Z" stroke="rgb(0,0,0)" stroke-opacity="1" stroke-width="8" fill="rgb(0,0,0)" fill-opacity="1"></path></g></g></g></g></g></g></g><svg x="159.6666259765625" overflow="visible" y="270.66668701171875" height="10" width="14.816665649414062"><path d=" M 14.82 5.39 l -3.50 -3.69 l -0.54 0.58 l 2.14 2.58 h -0.17 v 1.00 h 0.17 l -2.14 2.58 l 0.54 0.58 z  M 1.87 5.81 h 12.44 v -1.00 h -12.44 z" style="fill:rgb(0,0,0);fill-opacity:1;stroke-width:1px;stroke:none;stroke-opacity:1;"></path></svg></g></g></g><g><g><g><g transform="matrix(1,0,0,1,111.6666259765625,106.416650390625)"><path transform="matrix(0.0136,0,0,-0.0136,0,0)" d="M462 224C462 345 355 366 308 374C388 436 418 482 418 541C418 630 344 689 233 689C165 689 120 670 72 622L43 498L74 498L92 554C103 588 166 622 218 622C283 622 336 569 336 506C336 431 277 368 206 368C198 368 187 369 174 370L159 371L147 318L154 312C192 329 211 334 238 334C321 334 369 281 369 190C369 88 308 21 215 21C169 21 128 36 98 64C74 86 61 109 42 163L15 153C36 92 44 56 50 6C103 -12 147 -20 184 -20C307 -20 462 87 462 224ZM762 689C607 689 528 566 528 324C528 207 549 106 584 57C619 8 675 -20 737 -20C888 -20 964 110 964 366C964 585 899 689 762 689ZM744 654C841 654 880 556 880 316C880 103 842 15 750 15C653 15 612 116 612 360C612 571 649 654 744 654ZM1197 689C1115 689 1048 622 1048 539C1048 456 1115 389 1198 389C1279 389 1348 457 1348 537C1348 621 1281 689 1197 689ZM1197 649C1258 649 1308 599 1308 537C1308 479 1258 429 1198 429C1137 429 1088 478 1088 539C1088 600 1137 649 1197 649Z" stroke="rgb(0,0,0)" stroke-opacity="1" stroke-width="8" fill="rgb(0,0,0)" fill-opacity="1"></path></g></g></g></g><g><g><g><g><g><g><g transform="matrix(1,0,0,1,356.6666259765625,82.53334045410156)"><path transform="matrix(0.017,0,0,-0.017,0,0)" d="M166 420C187 420 203 421 229 424C118 304 76 221 76 121C76 44 122 -11 186 -11C324 -11 477 236 477 384C477 441 451 482 415 482C402 482 390 478 382 470L332 423L343 404C352 410 361 413 370 413C397 413 413 390 413 350C413 202 316 39 228 39C179 39 148 81 148 146C148 251 187 342 285 464L275 482C255 473 242 470 214 470C186 470 144 472 115 475L103 476C97 477 92 477 91 477C79 477 70 475 59 470C45 443 34 407 21 352L43 352L60 394C67 411 87 422 111 422C144 422 128 420 166 420Z" stroke="rgb(0,0,0)" stroke-opacity="1" stroke-width="8" fill="rgb(0,0,0)" fill-opacity="1"></path></g></g><g><g><g><g><g transform="matrix(1,0,0,1,365.6666259765625,85.66666259765626)"><path transform="matrix(0.0119,0,0,-0.0119,0,0)" d="M125 390L69 107C68 99 56 61 56 31C56 6 67 -9 86 -9C121 -9 156 11 234 74L265 99L255 117L210 86C181 66 161 56 150 56C141 56 136 64 136 76C136 102 150 183 179 328L192 390L299 390L310 440C272 436 238 434 200 434C216 528 227 577 245 631L234 646C214 634 187 622 156 610L131 440C87 419 61 408 43 403L41 390Z" stroke="rgb(0,0,0)" stroke-opacity="1" stroke-width="8" fill="rgb(0,0,0)" fill-opacity="1"></path></g></g></g></g></g></g></g><svg x="356.6666259765625" overflow="visible" y="59.66667175292969" height="10" width="14.816665649414062"><path d=" M 14.82 5.39 l -3.50 -3.69 l -0.54 0.58 l 2.14 2.58 h -0.17 v 1.00 h 0.17 l -2.14 2.58 l 0.54 0.58 z  M 1.87 5.81 h 12.44 v -1.00 h -12.44 z" style="fill:rgb(0,0,0);fill-opacity:1;stroke-width:1px;stroke:none;stroke-opacity:1;"></path></svg></g><g><g transform="matrix(1,0,0,1,370.63330078125,82.53334045410156)"><path transform="matrix(0.017,0,0,-0.017,0,0)" d="" stroke="rgb(0,0,0)" stroke-opacity="1" stroke-width="8" fill="rgb(0,0,0)" fill-opacity="1"></path></g></g><g><g transform="matrix(1,0,0,1,379.96661376953125,82.53334045410156)"><path transform="matrix(0.017,0,0,-0.017,0,0)" d="M604 347L604 406L65 406L65 347ZM604 134L604 193L65 193L65 134Z" stroke="rgb(0,0,0)" stroke-opacity="1" stroke-width="8" fill="rgb(0,0,0)" fill-opacity="1"></path></g></g><g><g transform="matrix(1,0,0,1,396.4166259765625,82.53334045410156)"><path transform="matrix(0.017,0,0,-0.017,0,0)" d="M711 224C711 345 604 366 557 374C637 436 667 482 667 541C667 630 593 689 482 689C414 689 369 670 321 622L292 498L323 498L341 554C352 588 415 622 467 622C532 622 585 569 585 506C585 431 526 368 455 368C447 368 436 369 423 370L408 371L396 318L403 312C441 329 460 334 487 334C570 334 618 281 618 190C618 88 557 21 464 21C418 21 377 36 347 64C323 86 310 109 291 163L264 153C285 92 293 56 299 6C352 -12 396 -20 433 -20C556 -20 711 87 711 224ZM879 331C900 512 989 611 1169 665L1127 689C1031 657 990 637 939 593C836 506 780 384 780 247C780 82 860 -20 989 -20C1119 -20 1216 83 1216 219C1216 334 1147 409 1041 409C964 409 932 370 879 331ZM1003 349C1079 349 1130 283 1130 184C1130 80 1079 13 1002 13C917 13 871 86 871 220C871 255 875 274 886 291C908 325 955 349 1003 349ZM1371 111C1341 111 1314 83 1314 53C1314 23 1341 -5 1370 -5C1402 -5 1430 22 1430 53C1430 83 1402 111 1371 111ZM1759 689C1604 689 1525 566 1525 324C1525 207 1546 106 1581 57C1616 8 1672 -20 1734 -20C1885 -20 1961 110 1961 366C1961 585 1896 689 1759 689ZM1741 654C1838 654 1877 556 1877 316C1877 103 1839 15 1747 15C1650 15 1609 116 1609 360C1609 571 1646 654 1741 654ZM2454 253C2454 366 2373 446 2259 446C2211 446 2175 443 2122 396L2122 605L2427 604L2427 689L2070 690L2070 322L2090 316C2137 363 2164 377 2213 377C2309 377 2369 309 2369 201C2369 90 2305 25 2196 25C2142 25 2092 43 2078 69L2032 151L2008 137C2031 80 2043 48 2057 4C2085 -11 2125 -20 2168 -20C2296 -20 2454 89 2454 253ZM2625 331C2646 512 2735 611 2915 665L2873 689C2777 657 2736 637 2685 593C2582 506 2526 384 2526 247C2526 82 2606 -20 2735 -20C2865 -20 2962 83 2962 219C2962 334 2893 409 2787 409C2710 409 2678 370 2625 331ZM2749 349C2825 349 2876 283 2876 184C2876 80 2825 13 2748 13C2663 13 2617 86 2617 220C2617 255 2621 274 2632 291C2654 325 2701 349 2749 349ZM3452 253C3452 366 3371 446 3257 446C3209 446 3173 443 3120 396L3120 605L3425 604L3425 689L3068 690L3068 322L3088 316C3135 363 3162 377 3211 377C3307 377 3367 309 3367 201C3367 90 3303 25 3194 25C3140 25 3090 43 3076 69L3030 151L3006 137C3029 80 3041 48 3055 4C3083 -11 3123 -20 3166 -20C3294 -20 3452 89 3452 253Z" stroke="rgb(0,0,0)" stroke-opacity="1" stroke-width="8" fill="rgb(0,0,0)" fill-opacity="1"></path></g></g><g><g><g transform="matrix(1,0,0,1,460.01666259765625,82.53334045410156)"><path transform="matrix(0.017,0,0,-0.017,0,0)" d="M41 143C41 74 38 44 30 4C82 -13 121 -20 167 -20C298 -20 391 50 391 148C391 321 107 228 107 358C107 408 142 436 203 436C270 436 321 401 321 354L321 331L349 331C350 389 351 413 354 444C301 462 265 469 224 469C108 469 37 414 37 324C37 276 59 242 105 221C223 169 317 195 317 109C317 55 267 17 196 17C123 17 71 52 71 102L71 143ZM611 465L602 469C551 448 499 434 446 428L446 400L483 400C523 400 527 393 527 327L527 102C527 39 524 32 490 30L444 27L444 -3C544 0 544 0 569 0C594 0 594 0 694 -3L694 27L648 30C614 32 611 39 611 102ZM565 687C535 687 509 661 509 631C509 602 535 576 564 576C593 576 620 602 620 631C620 659 593 687 565 687ZM1123 -3C1184 0 1185 0 1202 0C1216 0 1216 0 1285 -3L1285 27L1244 30C1210 32 1207 38 1207 102L1207 295C1207 412 1152 469 1040 469C1003 469 982 462 961 444L885 378L885 465L876 469C825 448 773 434 720 428L720 400L757 400C797 400 801 393 801 327L801 102C801 39 798 32 764 30L719 27L719 -3C787 -1 814 0 843 0C872 0 899 -1 967 -3L967 27L922 30C888 32 885 39 885 102L885 314C885 359 951 408 1012 408C1079 408 1123 358 1123 281Z" stroke="rgb(0,0,0)" stroke-opacity="1" stroke-width="8" fill="rgb(0,0,0)" fill-opacity="1"></path></g></g></g><g><g transform="matrix(1,0,0,1,485.4166259765625,82.53334045410156)"><path transform="matrix(0.017,0,0,-0.017,0,0)" d="M462 224C462 345 355 366 308 374C388 436 418 482 418 541C418 630 344 689 233 689C165 689 120 670 72 622L43 498L74 498L92 554C103 588 166 622 218 622C283 622 336 569 336 506C336 431 277 368 206 368C198 368 187 369 174 370L159 371L147 318L154 312C192 329 211 334 238 334C321 334 369 281 369 190C369 88 308 21 215 21C169 21 128 36 98 64C74 86 61 109 42 163L15 153C36 92 44 56 50 6C103 -12 147 -20 184 -20C307 -20 462 87 462 224ZM762 689C607 689 528 566 528 324C528 207 549 106 584 57C619 8 675 -20 737 -20C888 -20 964 110 964 366C964 585 899 689 762 689ZM744 654C841 654 880 556 880 316C880 103 842 15 750 15C653 15 612 116 612 360C612 571 649 654 744 654ZM1197 689C1115 689 1048 622 1048 539C1048 456 1115 389 1198 389C1279 389 1348 457 1348 537C1348 621 1281 689 1197 689ZM1197 649C1258 649 1308 599 1308 537C1308 479 1258 429 1198 429C1137 429 1088 478 1088 539C1088 600 1137 649 1197 649Z" stroke="rgb(0,0,0)" stroke-opacity="1" stroke-width="8" fill="rgb(0,0,0)" fill-opacity="1"></path></g></g><g><g transform="matrix(1,0,0,1,518.5166625976562,82.53334045410156)"><path transform="matrix(0.017,0,0,-0.017,0,0)" d="M604 347L604 406L65 406L65 347ZM604 134L604 193L65 193L65 134Z" stroke="rgb(0,0,0)" stroke-opacity="1" stroke-width="8" fill="rgb(0,0,0)" fill-opacity="1"></path></g></g><g><g transform="matrix(1,0,0,1,534.9666137695312,82.53334045410156)"><path transform="matrix(0.017,0,0,-0.017,0,0)" d="M418 -3L418 27L366 30C311 33 301 44 301 96L301 700L60 598L67 548L217 614L217 96C217 44 206 33 152 30L96 27L96 -3C250 0 250 0 261 0C292 0 402 -3 418 -3ZM667 345C626 326 609 315 587 294C549 256 529 211 529 159C529 56 612 -20 725 -20C855 -20 963 82 963 206C963 286 926 329 812 381C903 443 935 485 935 545C935 631 864 689 758 689C639 689 552 613 552 508C552 440 579 402 667 345ZM783 295C846 267 884 218 884 164C884 80 821 14 740 14C655 14 600 74 600 167C600 240 629 286 703 331ZM722 423C659 454 627 494 627 544C627 610 675 655 746 655C819 655 867 607 867 534C867 477 842 438 777 396ZM1122 111C1092 111 1065 83 1065 53C1065 23 1092 -5 1121 -5C1153 -5 1181 22 1181 53C1181 83 1153 111 1122 111ZM1510 689C1355 689 1276 566 1276 324C1276 207 1297 106 1332 57C1367 8 1423 -20 1485 -20C1636 -20 1712 110 1712 366C1712 585 1647 689 1510 689ZM1492 654C1589 654 1628 556 1628 316C1628 103 1590 15 1498 15C1401 15 1360 116 1360 360C1360 571 1397 654 1492 654ZM1762 23L1762 -3C1949 -3 1949 0 1985 0C2021 0 2021 -3 2214 -3L2214 82C2099 77 2053 81 1868 77L2050 270C2147 373 2177 428 2177 503C2177 618 2099 689 1972 689C1900 689 1851 669 1802 619L1785 483L1814 483L1827 529C1843 587 1879 612 1946 612C2032 612 2087 558 2087 473C2087 398 2045 324 1932 204ZM2413 345C2372 326 2355 315 2333 294C2295 256 2275 211 2275 159C2275 56 2358 -20 2471 -20C2601 -20 2709 82 2709 206C2709 286 2672 329 2558 381C2649 443 2681 485 2681 545C2681 631 2610 689 2504 689C2385 689 2298 613 2298 508C2298 440 2325 402 2413 345ZM2529 295C2592 267 2630 218 2630 164C2630 80 2567 14 2486 14C2401 14 2346 74 2346 167C2346 240 2375 286 2449 331ZM2468 423C2405 454 2373 494 2373 544C2373 610 2421 655 2492 655C2565 655 2613 607 2613 534C2613 477 2588 438 2523 396ZM3233 722L3221 733C3169 707 3133 698 3061 691L3057 670L3105 670C3129 670 3139 663 3139 646C3139 638 3138 629 3137 622L3089 354C3075 279 3059 210 3007 1L3016 -9L3083 8L3106 132C3115 180 3139 225 3173 259C3242 59 3274 -9 3299 -9C3312 -9 3336 4 3380 35L3426 67L3418 86L3375 62C3361 54 3354 52 3346 52C3336 52 3329 58 3320 75C3285 139 3263 193 3224 316L3238 330C3299 391 3345 416 3395 416C3403 416 3414 414 3431 410L3448 473C3430 479 3412 482 3400 482C3334 482 3251 405 3126 230ZM4191 103L4165 86C4136 67 4114 56 4104 56C4097 56 4091 65 4091 76C4091 86 4093 95 4098 116L4173 413C4177 430 4180 446 4180 454C4180 471 4170 482 4154 482C4125 482 4087 464 4026 421C3963 376 3928 341 3879 272L3909 409C3913 429 3916 444 3916 451C3916 470 3906 482 3890 482C3860 482 3814 460 3759 418C3715 384 3695 363 3630 275L3663 408C3667 424 3669 439 3669 451C3669 470 3660 482 3646 482C3625 482 3587 461 3513 408L3485 388L3492 368C3529 391 3564 414 3571 414C3582 414 3589 404 3589 389C3589 338 3548 145 3507 2L3510 -9L3578 6L3600 108C3624 219 3651 278 3706 338C3748 384 3793 414 3821 414C3828 414 3832 406 3832 393C3832 358 3810 244 3769 69L3753 2L3758 -9L3827 6L3848 113C3864 194 3898 269 3942 318C3997 379 4047 414 4079 414C4087 414 4092 405 4092 389C4092 365 4089 351 4067 264C4027 105 4011 84 4011 31C4011 6 4022 -9 4041 -9C4067 -9 4103 12 4201 85Z" stroke="rgb(0,0,0)" stroke-opacity="1" stroke-width="8" fill="rgb(0,0,0)" fill-opacity="1"></path></g></g><g><g transform="matrix(1,0,0,1,610.4166870117188,82.53334045410156)"><path transform="matrix(0.017,0,0,-0.017,0,0)" d="M297 714L242 714L-37 -169L18 -169Z" stroke="rgb(0,0,0)" stroke-opacity="1" stroke-width="8" fill="rgb(0,0,0)" fill-opacity="1"></path></g></g><g><g transform="matrix(1,0,0,1,618.6832885742188,82.53334045410156)"><path transform="matrix(0.017,0,0,-0.017,0,0)" d="M31 148C26 97 20 62 9 16C47 -2 81 -11 116 -11C165 -11 211 7 262 47C313 87 334 124 334 174C334 228 302 257 228 271L185 279C125 290 106 307 106 348C106 401 151 442 208 442C249 442 287 424 303 397L303 342L326 342C330 377 334 404 345 455C306 474 278 482 245 482C193 482 132 452 84 404C58 377 47 352 47 316C47 260 78 228 144 215L207 203C251 195 267 177 267 138C267 73 221 29 150 29C115 29 84 40 56 64L56 148Z" stroke="rgb(0,0,0)" stroke-opacity="1" stroke-width="8" fill="rgb(0,0,0)" fill-opacity="1"></path></g></g></g></g><g><g><g><g><g><g><g transform="matrix(1,0,0,1,355.6666259765625,136.5333251953125)"><path transform="matrix(0.017,0,0,-0.017,0,0)" d="M166 420C187 420 203 421 229 424C118 304 76 221 76 121C76 44 122 -11 186 -11C324 -11 477 236 477 384C477 441 451 482 415 482C402 482 390 478 382 470L332 423L343 404C352 410 361 413 370 413C397 413 413 390 413 350C413 202 316 39 228 39C179 39 148 81 148 146C148 251 187 342 285 464L275 482C255 473 242 470 214 470C186 470 144 472 115 475L103 476C97 477 92 477 91 477C79 477 70 475 59 470C45 443 34 407 21 352L43 352L60 394C67 411 87 422 111 422C144 422 128 420 166 420Z" stroke="rgb(0,0,0)" stroke-opacity="1" stroke-width="8" fill="rgb(0,0,0)" fill-opacity="1"></path></g></g><g><g><g><g><g transform="matrix(1,0,0,1,364.6666259765625,139.66666259765626)"><path transform="matrix(0.0119,0,0,-0.0119,0,0)" d="M368 365C371 403 376 435 384 476C373 481 369 482 364 482C333 482 302 458 266 407C227 351 188 291 172 256L204 408C208 425 210 438 210 450C210 470 202 482 187 482C166 482 128 461 54 408L26 388L33 368L65 389C93 407 104 412 113 412C123 412 130 403 130 390C130 332 87 126 47 -2L57 -9C72 -4 88 -1 111 4L124 6L150 126C168 209 191 262 235 319C269 363 296 384 318 384C333 384 343 379 354 365Z" stroke="rgb(0,0,0)" stroke-opacity="1" stroke-width="8" fill="rgb(0,0,0)" fill-opacity="1"></path></g></g></g></g></g></g></g><svg x="355.6666259765625" overflow="visible" y="113.66668701171875" height="10" width="15.48333740234375"><path d=" M 15.48 5.39 l -3.50 -3.69 l -0.54 0.58 l 2.14 2.58 h -0.17 v 1.00 h 0.17 l -2.14 2.58 l 0.54 0.58 z  M 1.87 5.81 h 13.10 v -1.00 h -13.10 z" style="fill:rgb(0,0,0);fill-opacity:1;stroke-width:1px;stroke:none;stroke-opacity:1;"></path></svg></g><g><g transform="matrix(1,0,0,1,370.29998779296875,136.5333251953125)"><path transform="matrix(0.017,0,0,-0.017,0,0)" d="" stroke="rgb(0,0,0)" stroke-opacity="1" stroke-width="8" fill="rgb(0,0,0)" fill-opacity="1"></path></g></g><g><g transform="matrix(1,0,0,1,379.63330078125,136.5333251953125)"><path transform="matrix(0.017,0,0,-0.017,0,0)" d="M604 347L604 406L65 406L65 347ZM604 134L604 193L65 193L65 134Z" stroke="rgb(0,0,0)" stroke-opacity="1" stroke-width="8" fill="rgb(0,0,0)" fill-opacity="1"></path></g></g><g><g transform="matrix(1,0,0,1,396.08331298828125,136.5333251953125)"><path transform="matrix(0.017,0,0,-0.017,0,0)" d="M711 224C711 345 604 366 557 374C637 436 667 482 667 541C667 630 593 689 482 689C414 689 369 670 321 622L292 498L323 498L341 554C352 588 415 622 467 622C532 622 585 569 585 506C585 431 526 368 455 368C447 368 436 369 423 370L408 371L396 318L403 312C441 329 460 334 487 334C570 334 618 281 618 190C618 88 557 21 464 21C418 21 377 36 347 64C323 86 310 109 291 163L264 153C285 92 293 56 299 6C352 -12 396 -20 433 -20C556 -20 711 87 711 224ZM879 331C900 512 989 611 1169 665L1127 689C1031 657 990 637 939 593C836 506 780 384 780 247C780 82 860 -20 989 -20C1119 -20 1216 83 1216 219C1216 334 1147 409 1041 409C964 409 932 370 879 331ZM1003 349C1079 349 1130 283 1130 184C1130 80 1079 13 1002 13C917 13 871 86 871 220C871 255 875 274 886 291C908 325 955 349 1003 349ZM1371 111C1341 111 1314 83 1314 53C1314 23 1341 -5 1370 -5C1402 -5 1430 22 1430 53C1430 83 1402 111 1371 111ZM1759 689C1604 689 1525 566 1525 324C1525 207 1546 106 1581 57C1616 8 1672 -20 1734 -20C1885 -20 1961 110 1961 366C1961 585 1896 689 1759 689ZM1741 654C1838 654 1877 556 1877 316C1877 103 1839 15 1747 15C1650 15 1609 116 1609 360C1609 571 1646 654 1741 654ZM2454 253C2454 366 2373 446 2259 446C2211 446 2175 443 2122 396L2122 605L2427 604L2427 689L2070 690L2070 322L2090 316C2137 363 2164 377 2213 377C2309 377 2369 309 2369 201C2369 90 2305 25 2196 25C2142 25 2092 43 2078 69L2032 151L2008 137C2031 80 2043 48 2057 4C2085 -11 2125 -20 2168 -20C2296 -20 2454 89 2454 253ZM2625 331C2646 512 2735 611 2915 665L2873 689C2777 657 2736 637 2685 593C2582 506 2526 384 2526 247C2526 82 2606 -20 2735 -20C2865 -20 2962 83 2962 219C2962 334 2893 409 2787 409C2710 409 2678 370 2625 331ZM2749 349C2825 349 2876 283 2876 184C2876 80 2825 13 2748 13C2663 13 2617 86 2617 220C2617 255 2621 274 2632 291C2654 325 2701 349 2749 349Z" stroke="rgb(0,0,0)" stroke-opacity="1" stroke-width="8" fill="rgb(0,0,0)" fill-opacity="1"></path></g></g><g><g><g transform="matrix(1,0,0,1,451.20001220703125,136.5333251953125)"><path transform="matrix(0.017,0,0,-0.017,0,0)" d="M399 311C399 357 404 398 413 434C381 478 338 497 293 497C169 497 25 361 25 224C25 219 26 215 26 210C26 75 121 -20 255 -20C307 -20 382 -1 392 14L413 46L403 61C366 41 334 32 298 32C187 32 114 118 114 250C114 357 164 417 254 417C298 417 346 397 364 372L371 311ZM722 469C576 469 475 366 475 217C475 76 564 -20 693 -20C847 -20 957 87 957 237C957 372 859 469 722 469ZM704 436C796 436 864 336 864 200C864 85 813 13 732 13C634 13 568 109 568 251C568 371 616 436 704 436ZM1029 143C1029 74 1026 44 1018 4C1070 -13 1109 -20 1155 -20C1286 -20 1379 50 1379 148C1379 321 1095 228 1095 358C1095 408 1130 436 1191 436C1258 436 1309 401 1309 354L1309 331L1337 331C1338 389 1339 413 1342 444C1289 462 1253 469 1212 469C1096 469 1025 414 1025 324C1025 276 1047 242 1093 221C1211 169 1305 195 1305 109C1305 55 1255 17 1184 17C1111 17 1059 52 1059 102L1059 143Z" stroke="rgb(0,0,0)" stroke-opacity="1" stroke-width="8" fill="rgb(0,0,0)" fill-opacity="1"></path></g></g></g><g><g transform="matrix(1,0,0,1,478.58331298828125,136.5333251953125)"><path transform="matrix(0.017,0,0,-0.017,0,0)" d="M462 224C462 345 355 366 308 374C388 436 418 482 418 541C418 630 344 689 233 689C165 689 120 670 72 622L43 498L74 498L92 554C103 588 166 622 218 622C283 622 336 569 336 506C336 431 277 368 206 368C198 368 187 369 174 370L159 371L147 318L154 312C192 329 211 334 238 334C321 334 369 281 369 190C369 88 308 21 215 21C169 21 128 36 98 64C74 86 61 109 42 163L15 153C36 92 44 56 50 6C103 -12 147 -20 184 -20C307 -20 462 87 462 224ZM762 689C607 689 528 566 528 324C528 207 549 106 584 57C619 8 675 -20 737 -20C888 -20 964 110 964 366C964 585 899 689 762 689ZM744 654C841 654 880 556 880 316C880 103 842 15 750 15C653 15 612 116 612 360C612 571 649 654 744 654ZM1197 689C1115 689 1048 622 1048 539C1048 456 1115 389 1198 389C1279 389 1348 457 1348 537C1348 621 1281 689 1197 689ZM1197 649C1258 649 1308 599 1308 537C1308 479 1258 429 1198 429C1137 429 1088 478 1088 539C1088 600 1137 649 1197 649Z" stroke="rgb(0,0,0)" stroke-opacity="1" stroke-width="8" fill="rgb(0,0,0)" fill-opacity="1"></path></g></g><g><g transform="matrix(1,0,0,1,511.68328857421875,136.5333251953125)"><path transform="matrix(0.017,0,0,-0.017,0,0)" d="M604 347L604 406L65 406L65 347ZM604 134L604 193L65 193L65 134Z" stroke="rgb(0,0,0)" stroke-opacity="1" stroke-width="8" fill="rgb(0,0,0)" fill-opacity="1"></path></g></g><g><g transform="matrix(1,0,0,1,528.13330078125,136.5333251953125)"><path transform="matrix(0.017,0,0,-0.017,0,0)" d="M462 224C462 345 355 366 308 374C388 436 418 482 418 541C418 630 344 689 233 689C165 689 120 670 72 622L43 498L74 498L92 554C103 588 166 622 218 622C283 622 336 569 336 506C336 431 277 368 206 368C198 368 187 369 174 370L159 371L147 318L154 312C192 329 211 334 238 334C321 334 369 281 369 190C369 88 308 21 215 21C169 21 128 36 98 64C74 86 61 109 42 163L15 153C36 92 44 56 50 6C103 -12 147 -20 184 -20C307 -20 462 87 462 224ZM917 -3L917 27L865 30C810 33 800 44 800 96L800 700L559 598L566 548L716 614L716 96C716 44 705 33 651 30L595 27L595 -3C749 0 749 0 760 0C791 0 901 -3 917 -3ZM1122 111C1092 111 1065 83 1065 53C1065 23 1092 -5 1121 -5C1153 -5 1181 22 1181 53C1181 83 1153 111 1122 111ZM1263 23L1263 -3C1450 -3 1450 0 1486 0C1522 0 1522 -3 1715 -3L1715 82C1600 77 1554 81 1369 77L1551 270C1648 373 1678 428 1678 503C1678 618 1600 689 1473 689C1401 689 1352 669 1303 619L1286 483L1315 483L1328 529C1344 587 1380 612 1447 612C1533 612 1588 558 1588 473C1588 398 1546 324 1433 204ZM1762 23L1762 -3C1949 -3 1949 0 1985 0C2021 0 2021 -3 2214 -3L2214 82C2099 77 2053 81 1868 77L2050 270C2147 373 2177 428 2177 503C2177 618 2099 689 1972 689C1900 689 1851 669 1802 619L1785 483L1814 483L1827 529C1843 587 1879 612 1946 612C2032 612 2087 558 2087 473C2087 398 2045 324 1932 204ZM2704 253C2704 366 2623 446 2509 446C2461 446 2425 443 2372 396L2372 605L2677 604L2677 689L2320 690L2320 322L2340 316C2387 363 2414 377 2463 377C2559 377 2619 309 2619 201C2619 90 2555 25 2446 25C2392 25 2342 43 2328 69L2282 151L2258 137C2281 80 2293 48 2307 4C2335 -11 2375 -20 2418 -20C2546 -20 2704 89 2704 253ZM3024 181L3024 106C3024 46 3013 32 2964 30L2902 27L2902 -3C3035 0 3035 0 3059 0C3083 0 3083 0 3216 -3L3216 27L3168 30C3119 33 3108 46 3108 106L3108 181C3167 181 3188 180 3216 177L3216 248L3108 245L3109 697L3029 667L2746 204L2746 181ZM3024 245L2809 245L3024 597ZM3732 722L3720 733C3668 707 3632 698 3560 691L3556 670L3604 670C3628 670 3638 663 3638 646C3638 638 3637 629 3636 622L3588 354C3574 279 3558 210 3506 1L3515 -9L3582 8L3605 132C3614 180 3638 225 3672 259C3741 59 3773 -9 3798 -9C3811 -9 3835 4 3879 35L3925 67L3917 86L3874 62C3860 54 3853 52 3845 52C3835 52 3828 58 3819 75C3784 139 3762 193 3723 316L3737 330C3798 391 3844 416 3894 416C3902 416 3913 414 3930 410L3947 473C3929 479 3911 482 3899 482C3833 482 3750 405 3625 230ZM4690 103L4664 86C4635 67 4613 56 4603 56C4596 56 4590 65 4590 76C4590 86 4592 95 4597 116L4672 413C4676 430 4679 446 4679 454C4679 471 4669 482 4653 482C4624 482 4586 464 4525 421C4462 376 4427 341 4378 272L4408 409C4412 429 4415 444 4415 451C4415 470 4405 482 4389 482C4359 482 4313 460 4258 418C4214 384 4194 363 4129 275L4162 408C4166 424 4168 439 4168 451C4168 470 4159 482 4145 482C4124 482 4086 461 4012 408L3984 388L3991 368C4028 391 4063 414 4070 414C4081 414 4088 404 4088 389C4088 338 4047 145 4006 2L4009 -9L4077 6L4099 108C4123 219 4150 278 4205 338C4247 384 4292 414 4320 414C4327 414 4331 406 4331 393C4331 358 4309 244 4268 69L4252 2L4257 -9L4326 6L4347 113C4363 194 4397 269 4441 318C4496 379 4546 414 4578 414C4586 414 4591 405 4591 389C4591 365 4588 351 4566 264C4526 105 4510 84 4510 31C4510 6 4521 -9 4540 -9C4566 -9 4602 12 4700 85Z" stroke="rgb(0,0,0)" stroke-opacity="1" stroke-width="8" fill="rgb(0,0,0)" fill-opacity="1"></path></g></g><g><g transform="matrix(1,0,0,1,612.0667114257812,136.5333251953125)"><path transform="matrix(0.017,0,0,-0.017,0,0)" d="M297 714L242 714L-37 -169L18 -169Z" stroke="rgb(0,0,0)" stroke-opacity="1" stroke-width="8" fill="rgb(0,0,0)" fill-opacity="1"></path></g></g><g><g transform="matrix(1,0,0,1,620.3333129882812,136.5333251953125)"><path transform="matrix(0.017,0,0,-0.017,0,0)" d="M31 148C26 97 20 62 9 16C47 -2 81 -11 116 -11C165 -11 211 7 262 47C313 87 334 124 334 174C334 228 302 257 228 271L185 279C125 290 106 307 106 348C106 401 151 442 208 442C249 442 287 424 303 397L303 342L326 342C330 377 334 404 345 455C306 474 278 482 245 482C193 482 132 452 84 404C58 377 47 352 47 316C47 260 78 228 144 215L207 203C251 195 267 177 267 138C267 73 221 29 150 29C115 29 84 40 56 64L56 148Z" stroke="rgb(0,0,0)" stroke-opacity="1" stroke-width="8" fill="rgb(0,0,0)" fill-opacity="1"></path></g></g></g></g></svg>
</svg>
