<svg xmlns="http://www.w3.org/2000/svg" xmlns:xlink="http://www.w3.org/1999/xlink" x="0" y="0" width="701.3333129882812" height="301.33331298828125" style="
        width:701.3333129882812px;
        height:301.33331298828125px;
        background: #FFF;
        fill: none;
">
        
        
        <svg xmlns="http://www.w3.org/2000/svg" class="role-diagram-draw-area" style="overflow: visible;"><g class="shapes-region" style="stroke: black; fill: none;"><g class="arrow-line"><path class="connection real" stroke-dasharray="" d="  M344.83,132.7 L540.55,178.25" style="stroke: rgb(0, 0, 0); stroke-width: 1px; fill: none; fill-opacity: 1;"/><g stroke="#000" transform="matrix(-0.9739759672790517,-0.2266513074368549,0.2266513074368549,-0.9739759672790517,542.5000305175782,178.6999969482422)" style="stroke: rgb(0, 0, 0); stroke-width: 1px;"><path d=" M10.93,-3.29 Q4.96,-0.45 0,0 Q4.96,0.45 10.93,3.29"/></g></g><g class="arrow-line"><path class="connection real" stroke-dasharray="" d="  M344.83,132.7 L359.3,209.73" style="stroke: rgb(0, 0, 0); stroke-width: 1px; fill: none; fill-opacity: 1;"/><g stroke="#000" transform="matrix(-0.18446598911885798,-0.9828388977133543,0.9828388977133543,-0.18446598911885798,359.66668701171875,211.6999969482422)" style="stroke: rgb(0, 0, 0); stroke-width: 1px;"><path d=" M10.93,-3.29 Q4.96,-0.45 0,0 Q4.96,0.45 10.93,3.29"/></g></g><g class="arrow-line"><path class="connection real" stroke-dasharray="" d="  M95.09,178.31 L524.72,100.24" style="stroke: rgb(0, 0, 0); stroke-width: 1px; fill: none; fill-opacity: 1;"/><g stroke="none" transform="matrix(-0.9838850379335417,0.17880221511634944,-0.17880221511634944,-0.9838850379335417,527.6666870117186,99.69999694824219)" style="stroke: none; stroke-width: 1px; fill: rgb(0, 0, 0);" fill="#000"><path d=" M8.93,-4.29 L0,0 L8.93,4.29 Z"/></g></g><g class="composite-shape"><path class="real" d=" M344.83,121.7 L347.72,128.25 L354.19,129.3 L349.51,134.4 L350.61,141.6 L344.83,138.2 L339.05,141.6 L340.16,134.4 L335.48,129.3 L341.94,128.25 Z" style="stroke-width: 1px; stroke: rgb(0, 0, 0); fill: rgb(248, 231, 28); fill-opacity: 1;"/></g><g class="composite-shape"><defs><!-- react-text: 2219 --> <!-- /react-text --><radialGradient id="_pgfc1occnzrmdg-full-view" gradientTransform="matrix(1.28, 0, 0, 1.28, -0.14, -0.14)" cx="0.43" cy="0.38" fx="0.43" fy="0.38"><!-- react-text: 2221 --> <!-- /react-text --><stop offset="0" style="stop-color: rgb(153, 218, 255); stop-opacity: 1;"/><stop offset="0.39" style="stop-color: rgb(126, 211, 33); stop-opacity: 1;"/><stop offset="0.71" style="stop-color: rgb(33, 170, 211); stop-opacity: 1;"/><stop offset="0.95" style="stop-color: rgb(126, 211, 33); stop-opacity: 1;"/></radialGradient></defs><path class="real" d=" M72.64,178.31 C72.64,166.55 82.69,157.02 95.09,157.02 C107.5,157.02 117.55,166.55 117.55,178.31 C117.55,190.07 107.5,199.6 95.09,199.6 C82.69,199.6 72.64,190.07 72.64,178.31 Z" style="stroke-width: 1px; stroke: rgb(0, 0, 0); fill: url(&quot;#_pgfc1occnzrmdg-full-view&quot;); fill-opacity: 1;"/></g><g class="arrow-line"><path class="connection real" stroke-dasharray="1.125 3.35" d="  M95.09,178.31 L359.67,211.7" style="stroke: rgb(0, 0, 0); stroke-width: 1px; fill: none; fill-opacity: 1;"/></g><g class="composite-shape"><path class="real" d=" M196.61,160.48 C198.45,165.91 199.23,171.86 198.72,178.02 C198.35,182.39 197.36,186.55 195.84,190.41 L160.45,174.81 Z" style="stroke-width: 2px; stroke: none; fill: none; fill-opacity: 1; stroke-opacity: 1;"/><path class="real" d=" M196.61,160.48 C198.45,165.91 199.23,171.86 198.72,178.02 C198.35,182.39 197.36,186.55 195.84,190.41" style="stroke-width: 2px; stroke: rgb(207, 1, 1); fill: none; fill-opacity: 1; stroke-opacity: 1;"/></g><g/></g><g/><g/><g/></svg>
        <svg xmlns="http://www.w3.org/2000/svg" xmlns:xlink="http://www.w3.org/1999/xlink" width="700" height="300" style="width:700px;height:300px;font-family:Asana-Math, Asana;background:#FFF;"><g><g><g><text x="71.66668701171875" y="207.7000274658203" style="white-space:pre;stroke:none;fill:rgb(0,0,0);fill-opacity:1;font-size:21px;font-family:sans-serif, Arial, Helvetica;font-weight:400;font-style:normal;dominant-baseline:text-before-edge;text-decoration:rgb(0, 0, 0);">Earth</text></g></g></g><g><g><g><text x="308.66668701171875" y="212.9500274658203" style="white-space:pre;stroke:none;fill:rgb(0,0,0);fill-opacity:1;font-size:14.7px;font-family:sans-serif, Arial, Helvetica;font-weight:400;font-style:normal;dominant-baseline:text-before-edge;text-decoration:rgb(0, 0, 0);">Tangential velocity</text></g></g></g><g><g><g><text x="479.66668701171875" y="69.95001220703125" style="white-space:pre;stroke:none;fill:rgb(0,0,0);fill-opacity:1;font-size:14.7px;font-family:sans-serif, Arial, Helvetica;font-weight:400;font-style:normal;dominant-baseline:text-before-edge;text-decoration:rgb(0, 0, 0);">Radial velocity</text></g></g></g><g><g><g><text x="537.6666870117188" y="182.9500274658203" style="white-space:pre;stroke:none;fill:rgb(0,0,0);fill-opacity:1;font-size:14.7px;font-family:sans-serif, Arial, Helvetica;font-weight:400;font-style:normal;dominant-baseline:text-before-edge;text-decoration:rgb(0, 0, 0);">Real velocity in space</text></g></g></g><g><g><g><g transform="matrix(1,0,0,1,178.66668701171875,178.32667175292968)"><path transform="matrix(0.01666,0,0,-0.01666,0,0)" d="M409 -15C458 -15 530 43 565 74L565 81C562 86 558 90 553 92C531 76 472 25 461 77C461 151 506 393 533 463L533 473C511 465 488 459 465 456L455 445C453 381 421 203 395 146C372 97 311 42 254 42C199 42 184 90 185 137C188 248 238 356 241 467C213 462 187 457 161 453C179 227 9 -91 53 -286C76 -285 109 -281 131 -273L131 -261C81 -173 121 -38 138 36L138 35C204 -77 344 37 395 104L395 101C387 65 354 -15 409 -15Z" stroke="rgb(0,0,0)" stroke-opacity="1" stroke-width="8" fill="rgb(0,0,0)" fill-opacity="1"></path></g></g></g></g><g transform="matrix(0.9887563810470058,0.14953534344370953,-0.14953534344370953,0.9887563810470058,32.78197438322724,-26.136276168115018)"><g><g><text x="146.76666259765625" y="195.9166717529297" style="white-space:pre;stroke:none;fill:rgb(0,0,0);fill-opacity:1;font-size:14.7px;font-family:sans-serif, Arial, Helvetica;font-weight:400;font-style:normal;dominant-baseline:text-before-edge;text-decoration:rgb(0, 0, 0);">Proper motion</text></g></g></g></svg>
</svg>
