<svg xmlns="http://www.w3.org/2000/svg" xmlns:xlink="http://www.w3.org/1999/xlink" x="0" y="0" width="701.433349609375" height="306.433349609375" style="
        width:701.433349609375px;
        height:306.433349609375px;
        background: #FFF;
        fill: none;
">
        
        
        <svg xmlns="http://www.w3.org/2000/svg" class="role-diagram-draw-area" style="overflow: visible;"><g class="shapes-region" style="stroke: black; fill: none;"><g class="composite-shape"><path class="real" d=" M15,149.66 C15,80.35 72.5,24.16 143.43,24.16 C214.35,24.16 271.85,80.35 271.85,149.66 C271.85,218.98 214.35,275.17 143.43,275.17 C72.5,275.17 15,218.98 15,149.66 Z" style="stroke-width: 2px; stroke: rgb(0, 0, 0); fill: none; fill-opacity: 1;"/></g><g class="arrow-line"><path class="connection real" stroke-dasharray="" d="  M15,149.66 C49.44,186.17 235.08,187.31 271.85,149.66" style="stroke: rgb(0, 0, 0); stroke-width: 2px; fill: none; fill-opacity: 1;"/></g><g class="composite-shape"><path class="real" d=" M150.66,276.12 C161.84,272.5 170.73,217.27 170.73,149.66 C170.73,83.08 162.11,28.5 151.16,23.4 L149.49,149.66 Z" style="stroke-width: 1px; stroke: none; fill: none; fill-opacity: 1; stroke-dasharray: 6px, 6px;"/><path class="real" d=" M150.66,276.12 C161.84,272.5 170.73,217.27 170.73,149.66 C170.73,83.08 162.11,28.5 151.16,23.4" style="stroke-width: 1px; stroke: rgb(0, 0, 0); fill: none; fill-opacity: 1; stroke-dasharray: 6px, 6px;"/></g><g class="composite-shape"><path class="real" d=" M160.92,274 C190.05,272.59 213.48,217.72 213.48,150.23 C213.48,83.13 190.31,28.5 161.41,26.5 L159.77,150.23 Z" style="stroke-width: 1px; stroke: none; fill: none; fill-opacity: 1; stroke-dasharray: 6px, 6px;"/><path class="real" d=" M160.92,274 C190.05,272.59 213.48,217.72 213.48,150.23 C213.48,83.13 190.31,28.5 161.41,26.5" style="stroke-width: 1px; stroke: rgb(0, 0, 0); fill: none; fill-opacity: 1; stroke-dasharray: 6px, 6px;"/></g><g class="arrow-line"><path class="connection real" stroke-dasharray="1.125 3.35" d="  M15,149.66 C24.74,116.07 264.01,124.93 271.85,149.66" style="stroke: rgb(180, 180, 180); stroke-width: 1px; fill: none; fill-opacity: 1; stroke-opacity: 1;"/></g><g class="arrow-line"><path class="connection real" stroke-dasharray="" d="  M143.43,24.16 L143.43,149.66" style="stroke: rgb(0, 0, 0); stroke-width: 1px; fill: none; fill-opacity: 1;"/></g><g class="arrow-line"><path class="connection real" stroke-dasharray="" d="  M69.09,171.36 L143.43,149.66" style="stroke: rgb(0, 0, 0); stroke-width: 1px; fill: none; fill-opacity: 1;"/></g><g class="arrow-line"><path class="connection real" stroke-dasharray="" d="  M143.43,149.66 L272.24,155.39" style="stroke: rgb(0, 0, 0); stroke-width: 1px; fill: none; fill-opacity: 1;"/></g><g class="composite-shape"><path class="real" d=" M170.1,119.78 L167.31,77.28 L202.44,73.92 L212.77,115.7 Z" style="stroke-width: 1px; stroke: rgb(0, 0, 0); fill: rgb(175, 246, 215); fill-opacity: 1; stroke-dasharray: 1.125px, 3.35px;"/></g><g class="arrow-line"><path class="connection real" stroke-dasharray="6 6" d="  M167.33,77.27 L143.43,149.66" style="stroke: rgb(0, 0, 0); stroke-width: 1px; fill: none; fill-opacity: 1;"/></g><g class="arrow-line"><path class="connection real" stroke-dasharray="6 6" d="  M170.1,119.78 L143.43,149.66" style="stroke: rgb(0, 0, 0); stroke-width: 1px; fill: none; fill-opacity: 1;"/></g><g class="arrow-line"><path class="connection real" stroke-dasharray="6 6" d="  M211.53,171.36 L189.13,164.22 L143.43,149.66" style="stroke: rgb(0, 0, 0); stroke-width: 1px; fill: none; fill-opacity: 1;"/></g><g class="arrow-line"><path class="connection real" stroke-dasharray="6 6" d="  M143.43,149.66 L169.5,177.06" style="stroke: rgb(0, 0, 0); stroke-width: 1px; fill: none; fill-opacity: 1;"/></g><g class="arrow-line"><path class="connection real" stroke-dasharray="" d="  M122.33,156.68 C126.05,160.88 134.61,163.74 149.87,159.68" style="stroke: rgb(165, 0, 0); stroke-width: 1px; fill: none; fill-opacity: 1; stroke-opacity: 1;"/><g stroke="none" transform="matrix(-0.9566612415939945,0.2912031401476242,-0.2912031401476242,-0.9566612415939945,152.6056793704629,158.899208762429)" style="stroke: none; stroke-width: 1px; fill: rgb(165, 0, 0);" fill="rgb(165,0,0)" fill-opacity="1"><path d=" M8.93,-4.29 L0,0 L8.93,4.29 Z"/></g></g><g class="arrow-line"><path class="connection real" stroke-dasharray="" d="  M177.63,180 L207.11,176.93" style="stroke: rgb(175, 43, 43); stroke-width: 1px; fill: none; fill-opacity: 1; stroke-opacity: 1;"/><g stroke="none" fill="rgb(175,43,43)" transform="matrix(-0.9946127349631558,0.10366053949845712,-0.10366053949845712,-0.9946127349631558,210.0973163003271,176.62301913174718)" style="stroke: none; fill: rgb(175, 43, 43); stroke-width: 1px;" fill-opacity="1"><path d=" M8.93,-4.29 L0,0 L8.93,4.29 Z"/></g><g stroke="none" fill="rgb(175,43,43)" transform="matrix(0.994612734963156,-0.10366053949845523,0.10366053949845523,0.994612734963156,174.64969556169075,180.31547962535512)" style="stroke: none; fill: rgb(175, 43, 43); stroke-width: 1px;" fill-opacity="1"><path d=" M8.93,-4.29 L0,0 L8.93,4.29 Z"/></g></g><g class="arrow-line"><path class="connection real" stroke-dasharray="" d="  M203.16,76.83 L212.05,112.78" style="stroke: rgb(175, 43, 43); stroke-opacity: 1; stroke-width: 1px; fill: none; fill-opacity: 1;"/><g stroke="none" fill="rgb(175,43,43)" fill-opacity="1" transform="matrix(-0.2400586168321726,-0.9707583944960889,0.9707583944960889,-0.2400586168321726,212.76881417409885,115.69365398925208)" style="stroke: none; fill: rgb(175, 43, 43); stroke-width: 1px;"><path d=" M8.93,-4.29 L0,0 L8.93,4.29 Z"/></g><g stroke="none" fill="rgb(175,43,43)" fill-opacity="1" transform="matrix(0.24005861683217247,0.9707583944960889,-0.9707583944960889,0.24005861683217247,202.43814789280145,73.91759200631236)" style="stroke: none; fill: rgb(175, 43, 43); stroke-width: 1px;"><path d=" M8.93,-4.29 L0,0 L8.93,4.29 Z"/></g></g><g class="composite-shape"><path class="real" d=" M47.63,65.85 C47.63,60.14 90.61,55.51 143.63,55.51 C196.65,55.51 239.64,60.14 239.64,65.85 C239.64,71.56 196.65,76.19 143.63,76.19 C90.61,76.19 47.63,71.56 47.63,65.85 Z" style="stroke-width: 1px; stroke: rgb(124, 124, 124); fill: none; fill-opacity: 1; stroke-dasharray: 1.125px, 3.35px; stroke-opacity: 1;"/></g><g class="arrow-line"><path class="connection real" stroke-dasharray="" d="  M143.63,70.65 L164.42,76.47" style="stroke: rgb(0, 0, 0); stroke-width: 1px; fill: none; fill-opacity: 1;"/><g stroke="none" fill="#000" transform="matrix(-0.9629745906442971,-0.2695921693474207,0.2695921693474207,-0.9629745906442971,167.30637278685705,77.27564484633018)" style="stroke: none; fill: rgb(0, 0, 0); stroke-width: 1px;"><path d=" M8.93,-4.29 L0,0 L8.93,4.29 Z"/></g></g><g class="arrow-line"><path class="connection real" stroke-dasharray="" d="  M158.52,68.28 C200.29,40.38 266.23,62.08 300.18,64.02" style="stroke: rgb(100, 100, 100); stroke-width: 2px; fill: none; fill-opacity: 1; stroke-opacity: 1;"/><g stroke="none" fill="rgb(100,100,100)" fill-opacity="1" transform="matrix(0.7916502665290893,-0.6109745129744955,0.6109745129744955,0.7916502665290893,154.7104088962078,71.01864901455966)" style="stroke: none; fill: rgb(100, 100, 100); stroke-width: 2px;"><path d=" M11.61,-5.58 L0,0 L11.61,5.58 Z"/></g></g><g class="arrow-line"><path class="connection real" stroke-dasharray="" d="  M215.76,99.25 C289.02,87.61 288.64,119.22 325.18,119.02" style="stroke: rgb(80, 80, 80); stroke-opacity: 1; stroke-width: 2px; fill: none; fill-opacity: 1;"/><g stroke="none" fill="rgb(80,80,80)" fill-opacity="1" transform="matrix(0.9848380453369782,-0.17347629364509776,0.17347629364509776,0.9848380453369782,211.183349609375,100.01666259765625)" style="stroke: none; fill: rgb(80, 80, 80); stroke-width: 2px;"><path d=" M11.61,-5.58 L0,0 L11.61,5.58 Z"/></g></g><g class="composite-shape"><path class="real" d=" M142.81,120.41 C146.64,119.53 150.49,119.44 154.18,120.02 L149.49,149.66 Z" style="stroke-width: 1px; stroke: none; fill: none; fill-opacity: 1; stroke-opacity: 1;"/><path class="real" d=" M142.81,120.41 C146.64,119.53 150.49,119.44 154.18,120.02" style="stroke-width: 1px; stroke: rgb(165, 0, 0); fill: none; fill-opacity: 1; stroke-opacity: 1;"/></g><g class="arrow-line"><path class="connection real" stroke-dasharray="" d="  M194.4,120.68 C223.83,166.16 275.43,130.67 324.18,156.02" style="stroke: rgb(107, 107, 107); stroke-opacity: 1; stroke-width: 2px; fill: none; fill-opacity: 1;"/><g stroke="none" fill="rgb(107,107,107)" fill-opacity="1" transform="matrix(0.49424534747239335,0.8693224582983539,-0.8693224582983539,0.49424534747239335,192.183349609375,117.01666259765625)" style="stroke: none; fill: rgb(107, 107, 107); stroke-width: 2px;"><path d=" M11.61,-5.58 L0,0 L11.61,5.58 Z"/></g></g><g class="composite-shape"><path class="real" d=" M355,252.02 L360.38,225 L388.81,225 L394.18,252.02 Z" style="stroke-width: 1px; stroke: rgb(0, 0, 0); fill: rgb(179, 251, 206); fill-opacity: 1;"/></g><g/></g><g/><g/><g/></svg>
        <svg xmlns="http://www.w3.org/2000/svg" xmlns:xlink="http://www.w3.org/1999/xlink" width="700" height="305" style="width:700px;height:305px;font-family:Asana-Math, Asana;background:#FFF;"><g><g><g><g transform="matrix(1,0,0,1,128.48333740234375,172.066650390625)"><path transform="matrix(0.017,0,0,-0.017,0,0)" d="M622 285C624 428 505 474 382 473C398 548 407 624 432 699L432 705C418 700 404 693 389 684L354 473C184 474 30 367 27 185C24 37 142 -8 268 -16L229 -289C249 -282 267 -274 282 -261C283 -179 288 -98 299 -16C481 -3 618 87 622 285ZM539 273C537 130 451 11 301 6L377 449C487 447 541 380 539 273ZM349 449L270 5C155 14 106 73 108 187C111 336 196 444 349 449Z" stroke="rgb(0,0,0)" stroke-opacity="1" stroke-width="0" fill="rgb(0,0,0)" fill-opacity="1"></path></g></g></g></g><g transform="matrix(0.9950901784711764,-0.09897240378106525,0.09897240378106525,0.9950901784711764,-17.493847655589434,19.69158885732074)"><g><g><g transform="matrix(1,0,0,1,179.8333740234375,192.7833251953125)"><path transform="matrix(0.017,0,0,-0.017,0,0)" d="M483 722L471 733C419 707 383 698 311 691L307 670L355 670C379 670 389 663 389 646C389 638 388 629 387 622L359 468C329 477 302 482 277 482C208 482 114 410 68 323C37 265 17 170 17 86C17 21 32 -11 61 -11C88 -11 125 6 159 33C213 77 246 116 313 217L290 126C279 82 274 50 274 24C274 3 283 -9 300 -9C317 -9 341 3 375 28L456 88L446 107L402 76C388 66 372 59 363 59C355 59 349 68 349 82C349 90 350 99 357 128ZM114 59C98 59 89 73 89 98C89 224 135 380 184 418C197 428 216 433 243 433C287 433 316 427 349 410L337 351C300 171 159 59 114 59ZM1121 285C1123 428 1004 474 881 473C897 548 906 624 931 699L931 705C917 700 903 693 888 684L853 473C683 474 529 367 526 185C523 37 641 -8 767 -16L728 -289C748 -282 766 -274 781 -261C782 -179 787 -98 798 -16C980 -3 1117 87 1121 285ZM1038 273C1036 130 950 11 800 6L876 449C986 447 1040 380 1038 273ZM848 449L769 5C654 14 605 73 607 187C610 336 695 444 848 449Z" stroke="rgb(0,0,0)" stroke-opacity="1" stroke-width="0" fill="rgb(0,0,0)" fill-opacity="1"></path></g></g></g></g><g><g><g><g transform="matrix(1,0,0,1,144.38336181640625,115.41665649414062)"><path transform="matrix(0.017,0,0,-0.017,0,0)" d="M237 -16C473 -16 572 316 576 504C578 618 546 702 419 702C159 702 72 412 69 199C67 80 101 -16 237 -16ZM401 676C536 676 506 491 485 381L169 381C194 485 272 676 401 676ZM253 13C102 13 147 261 163 349L479 349C454 237 396 13 253 13Z" stroke="rgb(0,0,0)" stroke-opacity="1" stroke-width="0" fill="rgb(0,0,0)" fill-opacity="1"></path></g></g></g></g><g transform="matrix(0.9663311864642536,-0.25730145368145113,0.25730145368145113,0.9663311864642536,-13.663574247127826,58.54784738497001)"><g><g><g transform="matrix(1,0,0,1,207.433349609375,88.0999755859375)"><path transform="matrix(0.017,0,0,-0.017,0,0)" d="M483 722L471 733C419 707 383 698 311 691L307 670L355 670C379 670 389 663 389 646C389 638 388 629 387 622L359 468C329 477 302 482 277 482C208 482 114 410 68 323C37 265 17 170 17 86C17 21 32 -11 61 -11C88 -11 125 6 159 33C213 77 246 116 313 217L290 126C279 82 274 50 274 24C274 3 283 -9 300 -9C317 -9 341 3 375 28L456 88L446 107L402 76C388 66 372 59 363 59C355 59 349 68 349 82C349 90 350 99 357 128ZM114 59C98 59 89 73 89 98C89 224 135 380 184 418C197 428 216 433 243 433C287 433 316 427 349 410L337 351C300 171 159 59 114 59ZM736 -16C972 -16 1071 316 1075 504C1077 618 1045 702 918 702C658 702 571 412 568 199C566 80 600 -16 736 -16ZM900 676C1035 676 1005 491 984 381L668 381C693 485 771 676 900 676ZM752 13C601 13 646 261 662 349L978 349C953 237 895 13 752 13Z" stroke="rgb(0,0,0)" stroke-opacity="1" stroke-width="0" fill="rgb(0,0,0)" fill-opacity="1"></path></g></g></g></g><g><g><g><g transform="matrix(1,0,0,1,303.10003662109375,67.19999694824219)"><path transform="matrix(0.017,0,0,-0.017,0,0)" d="M386 473C267 473 146 396 119 277C79 98 60 -97 34 -284C62 -283 92 -277 118 -266C116 -222 115 -145 145 29C169 -5 206 -15 247 -15C424 -15 522 168 525 325C527 420 482 473 386 473ZM347 441C426 441 446 380 445 311C444 203 398 11 260 11C182 11 164 72 166 138C168 243 210 441 347 441Z" stroke="rgb(0,0,0)" stroke-opacity="1" stroke-width="0" fill="rgb(0,0,0)" fill-opacity="1"></path></g></g><g><g><g transform="matrix(1,0,0,1,316.11669921875,67.19999694824219)"><path transform="matrix(0.017,0,0,-0.017,0,0)" d="M41 143C41 74 38 44 30 4C82 -13 121 -20 167 -20C298 -20 391 50 391 148C391 321 107 228 107 358C107 408 142 436 203 436C270 436 321 401 321 354L321 331L349 331C350 389 351 413 354 444C301 462 265 469 224 469C108 469 37 414 37 324C37 276 59 242 105 221C223 169 317 195 317 109C317 55 267 17 196 17C123 17 71 52 71 102L71 143ZM611 465L602 469C551 448 499 434 446 428L446 400L483 400C523 400 527 393 527 327L527 102C527 39 524 32 490 30L444 27L444 -3C544 0 544 0 569 0C594 0 594 0 694 -3L694 27L648 30C614 32 611 39 611 102ZM565 687C535 687 509 661 509 631C509 602 535 576 564 576C593 576 620 602 620 631C620 659 593 687 565 687ZM1123 -3C1184 0 1185 0 1202 0C1216 0 1216 0 1285 -3L1285 27L1244 30C1210 32 1207 38 1207 102L1207 295C1207 412 1152 469 1040 469C1003 469 982 462 961 444L885 378L885 465L876 469C825 448 773 434 720 428L720 400L757 400C797 400 801 393 801 327L801 102C801 39 798 32 764 30L719 27L719 -3C787 -1 814 0 843 0C872 0 899 -1 967 -3L967 27L922 30C888 32 885 39 885 102L885 314C885 359 951 408 1012 408C1079 408 1123 358 1123 281Z" stroke="rgb(0,0,0)" stroke-opacity="1" stroke-width="0" fill="rgb(0,0,0)" fill-opacity="1"></path></g></g></g><g><g transform="matrix(1,0,0,1,341.51666259765625,67.19999694824219)"><path transform="matrix(0.017,0,0,-0.017,0,0)" d="M237 -16C473 -16 572 316 576 504C578 618 546 702 419 702C159 702 72 412 69 199C67 80 101 -16 237 -16ZM401 676C536 676 506 491 485 381L169 381C194 485 272 676 401 676ZM253 13C102 13 147 261 163 349L479 349C454 237 396 13 253 13Z" stroke="rgb(0,0,0)" stroke-opacity="1" stroke-width="0" fill="rgb(0,0,0)" fill-opacity="1"></path></g></g></g></g><g><g><g><g transform="matrix(1,0,0,1,330.0833740234375,121.11666870117188)"><path transform="matrix(0.017,0,0,-0.017,0,0)" d="M386 473C267 473 146 396 119 277C79 98 60 -97 34 -284C62 -283 92 -277 118 -266C116 -222 115 -145 145 29C169 -5 206 -15 247 -15C424 -15 522 168 525 325C527 420 482 473 386 473ZM347 441C426 441 446 380 445 311C444 203 398 11 260 11C182 11 164 72 166 138C168 243 210 441 347 441ZM1049 722L1037 733C985 707 949 698 877 691L873 670L921 670C945 670 955 663 955 646C955 638 954 629 953 622L925 468C895 477 868 482 843 482C774 482 680 410 634 323C603 265 583 170 583 86C583 21 598 -11 627 -11C654 -11 691 6 725 33C779 77 812 116 879 217L856 126C845 82 840 50 840 24C840 3 849 -9 866 -9C883 -9 907 3 941 28L1022 88L1012 107L968 76C954 66 938 59 929 59C921 59 915 68 915 82C915 90 916 99 923 128ZM680 59C664 59 655 73 655 98C655 224 701 380 750 418C763 428 782 433 809 433C853 433 882 427 915 410L903 351C866 171 725 59 680 59ZM1302 -16C1538 -16 1637 316 1641 504C1643 618 1611 702 1484 702C1224 702 1137 412 1134 199C1132 80 1166 -16 1302 -16ZM1466 676C1601 676 1571 491 1550 381L1234 381C1259 485 1337 676 1466 676ZM1318 13C1167 13 1212 261 1228 349L1544 349C1519 237 1461 13 1318 13Z" stroke="rgb(0,0,0)" stroke-opacity="1" stroke-width="0" fill="rgb(0,0,0)" fill-opacity="1"></path></g></g></g></g><g><g><g><text x="358.7166748046875" y="53.96665954589844" style="white-space:pre;stroke:none;fill:rgb(74,74,74);fill-opacity:1;font-size:15px;font-family:Arial, Helvetica, sans-serif;font-weight:400;font-style:normal;dominant-baseline:text-before-edge;text-decoration:rgb(74, 74, 74);">(radius of small circle)</text></g></g></g><g><g><g><text x="362.7166748046875" y="105.9666748046875" style="white-space:pre;stroke:none;fill:rgb(74,74,74);fill-opacity:1;font-size:15px;font-family:Arial, Helvetica, sans-serif;font-weight:400;font-style:normal;dominant-baseline:text-before-edge;text-decoration:rgb(74, 74, 74);">(arc length of great circle)</text></g></g></g><g><g><g><g transform="matrix(1,0,0,1,329.7166748046875,162.5333251953125)"><path transform="matrix(0.017,0,0,-0.017,0,0)" d="M386 473C267 473 146 396 119 277C79 98 60 -97 34 -284C62 -283 92 -277 118 -266C116 -222 115 -145 145 29C169 -5 206 -15 247 -15C424 -15 522 168 525 325C527 420 482 473 386 473ZM347 441C426 441 446 380 445 311C444 203 398 11 260 11C182 11 164 72 166 138C168 243 210 441 347 441Z" stroke="rgb(0,0,0)" stroke-opacity="1" stroke-width="0" fill="rgb(0,0,0)" fill-opacity="1"></path></g></g><g><g><g transform="matrix(1,0,0,1,342.73333740234375,162.5333251953125)"><path transform="matrix(0.017,0,0,-0.017,0,0)" d="M41 143C41 74 38 44 30 4C82 -13 121 -20 167 -20C298 -20 391 50 391 148C391 321 107 228 107 358C107 408 142 436 203 436C270 436 321 401 321 354L321 331L349 331C350 389 351 413 354 444C301 462 265 469 224 469C108 469 37 414 37 324C37 276 59 242 105 221C223 169 317 195 317 109C317 55 267 17 196 17C123 17 71 52 71 102L71 143ZM611 465L602 469C551 448 499 434 446 428L446 400L483 400C523 400 527 393 527 327L527 102C527 39 524 32 490 30L444 27L444 -3C544 0 544 0 569 0C594 0 594 0 694 -3L694 27L648 30C614 32 611 39 611 102ZM565 687C535 687 509 661 509 631C509 602 535 576 564 576C593 576 620 602 620 631C620 659 593 687 565 687ZM1123 -3C1184 0 1185 0 1202 0C1216 0 1216 0 1285 -3L1285 27L1244 30C1210 32 1207 38 1207 102L1207 295C1207 412 1152 469 1040 469C1003 469 982 462 961 444L885 378L885 465L876 469C825 448 773 434 720 428L720 400L757 400C797 400 801 393 801 327L801 102C801 39 798 32 764 30L719 27L719 -3C787 -1 814 0 843 0C872 0 899 -1 967 -3L967 27L922 30C888 32 885 39 885 102L885 314C885 359 951 408 1012 408C1079 408 1123 358 1123 281Z" stroke="rgb(0,0,0)" stroke-opacity="1" stroke-width="0" fill="rgb(0,0,0)" fill-opacity="1"></path></g></g></g><g><g transform="matrix(1,0,0,1,368.13336181640625,162.5333251953125)"><path transform="matrix(0.017,0,0,-0.017,0,0)" d="M237 -16C473 -16 572 316 576 504C578 618 546 702 419 702C159 702 72 412 69 199C67 80 101 -16 237 -16ZM401 676C536 676 506 491 485 381L169 381C194 485 272 676 401 676ZM253 13C102 13 147 261 163 349L479 349C454 237 396 13 253 13ZM1096 722L1084 733C1032 707 996 698 924 691L920 670L968 670C992 670 1002 663 1002 646C1002 638 1001 629 1000 622L972 468C942 477 915 482 890 482C821 482 727 410 681 323C650 265 630 170 630 86C630 21 645 -11 674 -11C701 -11 738 6 772 33C826 77 859 116 926 217L903 126C892 82 887 50 887 24C887 3 896 -9 913 -9C930 -9 954 3 988 28L1069 88L1059 107L1015 76C1001 66 985 59 976 59C968 59 962 68 962 82C962 90 963 99 970 128ZM727 59C711 59 702 73 702 98C702 224 748 380 797 418C810 428 829 433 856 433C900 433 929 427 962 410L950 351C913 171 772 59 727 59ZM1734 285C1736 428 1617 474 1494 473C1510 548 1519 624 1544 699L1544 705C1530 700 1516 693 1501 684L1466 473C1296 474 1142 367 1139 185C1136 37 1254 -8 1380 -16L1341 -289C1361 -282 1379 -274 1394 -261C1395 -179 1400 -98 1411 -16C1593 -3 1730 87 1734 285ZM1651 273C1649 130 1563 11 1413 6L1489 449C1599 447 1653 380 1651 273ZM1461 449L1382 5C1267 14 1218 73 1220 187C1223 336 1308 444 1461 449Z" stroke="rgb(0,0,0)" stroke-opacity="1" stroke-width="0" fill="rgb(0,0,0)" fill-opacity="1"></path></g></g></g></g><g><g><g><text x="404.7166748046875" y="149.9666748046875" style="white-space:pre;stroke:none;fill:rgb(74,74,74);fill-opacity:1;font-size:15px;font-family:Arial, Helvetica, sans-serif;font-weight:400;font-style:normal;dominant-baseline:text-before-edge;text-decoration:rgb(74, 74, 74);">(distance x change in angle)</text></g></g></g><g><g><g><g transform="matrix(1,0,0,1,363.10003662109375,242.5333251953125)"><path transform="matrix(0.017,0,0,-0.017,0,0)" d="M483 722L471 733C419 707 383 698 311 691L307 670L355 670C379 670 389 663 389 646C389 638 388 629 387 622L359 468C329 477 302 482 277 482C208 482 114 410 68 323C37 265 17 170 17 86C17 21 32 -11 61 -11C88 -11 125 6 159 33C213 77 246 116 313 217L290 126C279 82 274 50 274 24C274 3 283 -9 300 -9C317 -9 341 3 375 28L456 88L446 107L402 76C388 66 372 59 363 59C355 59 349 68 349 82C349 90 350 99 357 128ZM114 59C98 59 89 73 89 98C89 224 135 380 184 418C197 428 216 433 243 433C287 433 316 427 349 410L337 351C300 171 159 59 114 59ZM1066 55C1066 39 1051 30 1023 28L979 25L979 -3C1081 0 1081 0 1101 0C1121 0 1121 0 1223 -3L1223 25L1197 28C1150 35 1149 35 1141 80L1054 705L1008 705L635 112C599 56 581 40 547 32L527 27L527 -3C619 0 619 0 639 0C658 0 660 0 746 -3L746 25L694 28C678 29 663 38 663 47C663 55 670 69 689 102L791 277L1037 277L1062 89L1062 86C1062 84 1066 69 1066 55ZM995 601L1032 313L816 313Z" stroke="rgb(0,0,0)" stroke-opacity="1" stroke-width="0" fill="rgb(0,0,0)" fill-opacity="1"></path></g></g></g></g><g><g><g><g transform="matrix(1,0,0,1,396.61669921875,244.13333129882812)"><path transform="matrix(0.017,0,0,-0.017,0,0)" d="M604 347L604 406L65 406L65 347ZM604 134L604 193L65 193L65 134Z" stroke="rgb(0,0,0)" stroke-opacity="1" stroke-width="0" fill="rgb(0,0,0)" fill-opacity="1"></path></g></g><g><g transform="matrix(1,0,0,1,413.066650390625,244.13333129882812)"><path transform="matrix(0.017,0,0,-0.017,0,0)" d="M635 473C516 473 395 396 368 277C328 98 309 -97 283 -284C311 -283 341 -277 367 -266C365 -222 364 -145 394 29C418 -5 455 -15 496 -15C673 -15 771 168 774 325C776 420 731 473 635 473ZM596 441C675 441 695 380 694 311C693 203 647 11 509 11C431 11 413 72 415 138C417 243 459 441 596 441Z" stroke="rgb(0,0,0)" stroke-opacity="1" stroke-width="0" fill="rgb(0,0,0)" fill-opacity="1"></path></g></g><g><g><g><g><g transform="matrix(1,0,0,1,427.91668701171875,237.6166748046875)"><path transform="matrix(0.0119,0,0,-0.0119,0,0)" d="M16 23L16 -3C203 -3 203 0 239 0C275 0 275 -3 468 -3L468 82C353 77 307 81 122 77L304 270C401 373 431 428 431 503C431 618 353 689 226 689C154 689 105 669 56 619L39 483L68 483L81 529C97 587 133 612 200 612C286 612 341 558 341 473C341 398 299 324 186 204Z" stroke="rgb(0,0,0)" stroke-opacity="1" stroke-width="0" fill="rgb(0,0,0)" fill-opacity="1"></path></g></g></g></g></g><g><g><g transform="matrix(1,0,0,1,438.26666259765625,244.13333129882812)"><path transform="matrix(0.017,0,0,-0.017,0,0)" d="M41 143C41 74 38 44 30 4C82 -13 121 -20 167 -20C298 -20 391 50 391 148C391 321 107 228 107 358C107 408 142 436 203 436C270 436 321 401 321 354L321 331L349 331C350 389 351 413 354 444C301 462 265 469 224 469C108 469 37 414 37 324C37 276 59 242 105 221C223 169 317 195 317 109C317 55 267 17 196 17C123 17 71 52 71 102L71 143ZM611 465L602 469C551 448 499 434 446 428L446 400L483 400C523 400 527 393 527 327L527 102C527 39 524 32 490 30L444 27L444 -3C544 0 544 0 569 0C594 0 594 0 694 -3L694 27L648 30C614 32 611 39 611 102ZM565 687C535 687 509 661 509 631C509 602 535 576 564 576C593 576 620 602 620 631C620 659 593 687 565 687ZM1123 -3C1184 0 1185 0 1202 0C1216 0 1216 0 1285 -3L1285 27L1244 30C1210 32 1207 38 1207 102L1207 295C1207 412 1152 469 1040 469C1003 469 982 462 961 444L885 378L885 465L876 469C825 448 773 434 720 428L720 400L757 400C797 400 801 393 801 327L801 102C801 39 798 32 764 30L719 27L719 -3C787 -1 814 0 843 0C872 0 899 -1 967 -3L967 27L922 30C888 32 885 39 885 102L885 314C885 359 951 408 1012 408C1079 408 1123 358 1123 281Z" stroke="rgb(0,0,0)" stroke-opacity="1" stroke-width="0" fill="rgb(0,0,0)" fill-opacity="1"></path></g></g></g><g><g transform="matrix(1,0,0,1,463.66668701171875,244.13333129882812)"><path transform="matrix(0.017,0,0,-0.017,0,0)" d="M237 -16C473 -16 572 316 576 504C578 618 546 702 419 702C159 702 72 412 69 199C67 80 101 -16 237 -16ZM401 676C536 676 506 491 485 381L169 381C194 485 272 676 401 676ZM253 13C102 13 147 261 163 349L479 349C454 237 396 13 253 13ZM1096 722L1084 733C1032 707 996 698 924 691L920 670L968 670C992 670 1002 663 1002 646C1002 638 1001 629 1000 622L972 468C942 477 915 482 890 482C821 482 727 410 681 323C650 265 630 170 630 86C630 21 645 -11 674 -11C701 -11 738 6 772 33C826 77 859 116 926 217L903 126C892 82 887 50 887 24C887 3 896 -9 913 -9C930 -9 954 3 988 28L1069 88L1059 107L1015 76C1001 66 985 59 976 59C968 59 962 68 962 82C962 90 963 99 970 128ZM727 59C711 59 702 73 702 98C702 224 748 380 797 418C810 428 829 433 856 433C900 433 929 427 962 410L950 351C913 171 772 59 727 59ZM1349 -16C1585 -16 1684 316 1688 504C1690 618 1658 702 1531 702C1271 702 1184 412 1181 199C1179 80 1213 -16 1349 -16ZM1513 676C1648 676 1618 491 1597 381L1281 381C1306 485 1384 676 1513 676ZM1365 13C1214 13 1259 261 1275 349L1591 349C1566 237 1508 13 1365 13ZM2208 722L2196 733C2144 707 2108 698 2036 691L2032 670L2080 670C2104 670 2114 663 2114 646C2114 638 2113 629 2112 622L2084 468C2054 477 2027 482 2002 482C1933 482 1839 410 1793 323C1762 265 1742 170 1742 86C1742 21 1757 -11 1786 -11C1813 -11 1850 6 1884 33C1938 77 1971 116 2038 217L2015 126C2004 82 1999 50 1999 24C1999 3 2008 -9 2025 -9C2042 -9 2066 3 2100 28L2181 88L2171 107L2127 76C2113 66 2097 59 2088 59C2080 59 2074 68 2074 82C2074 90 2075 99 2082 128ZM1839 59C1823 59 1814 73 1814 98C1814 224 1860 380 1909 418C1922 428 1941 433 1968 433C2012 433 2041 427 2074 410L2062 351C2025 171 1884 59 1839 59ZM2846 285C2848 428 2729 474 2606 473C2622 548 2631 624 2656 699L2656 705C2642 700 2628 693 2613 684L2578 473C2408 474 2254 367 2251 185C2248 37 2366 -8 2492 -16L2453 -289C2473 -282 2491 -274 2506 -261C2507 -179 2512 -98 2523 -16C2705 -3 2842 87 2846 285ZM2763 273C2761 130 2675 11 2525 6L2601 449C2711 447 2765 380 2763 273ZM2573 449L2494 5C2379 14 2330 73 2332 187C2335 336 2420 444 2573 449Z" stroke="rgb(0,0,0)" stroke-opacity="1" stroke-width="0" fill="rgb(0,0,0)" fill-opacity="1"></path></g></g><g><g transform="matrix(1,0,0,1,512.7666625976562,244.13333129882812)"><path transform="matrix(0.017,0,0,-0.017,0,0)" d="M124 111C94 111 67 83 67 53C67 23 94 -5 123 -5C155 -5 183 22 183 53C183 83 155 111 124 111Z" stroke="rgb(0,0,0)" stroke-opacity="1" stroke-width="0" fill="rgb(0,0,0)" fill-opacity="1"></path></g></g></g></g></svg>
</svg>
